<svg width="18" height="22" viewBox="0 0 18 22" fill="none" xmlns="http://www.w3.org/2000/svg">
<path d="M9 0.5L0.5 4.31818V10.0455C0.5 15.3432 4.12667 20.2973 9 21.5C13.8733 20.2973 17.5 15.3432 17.5 10.0455V4.31818L9 0.5ZM9 4.22273C9.56038 4.22273 10.1082 4.39068 10.5741 4.70534C11.0401 5.02 11.4032 5.46724 11.6177 5.9905C11.8321 6.51376 11.8882 7.08954 11.7789 7.64503C11.6696 8.20052 11.3997 8.71077 11.0035 9.11126C10.6072 9.51175 10.1024 9.78448 9.55276 9.89498C9.00314 10.0055 8.43345 9.94876 7.91573 9.73202C7.39801 9.51528 6.9555 9.14824 6.64417 8.67731C6.33284 8.20639 6.16667 7.65274 6.16667 7.08636C6.16667 6.32688 6.46518 5.5985 6.99653 5.06147C7.52788 4.52443 8.24855 4.22273 9 4.22273ZM9 11.7636C10.8889 11.7636 14.6667 12.8041 14.6667 14.7036C14.0464 15.6488 13.2043 16.424 12.2156 16.9603C11.2268 17.4967 10.1221 17.7773 9 17.7773C7.87786 17.7773 6.77317 17.4967 5.78442 16.9603C4.79568 16.424 3.95362 15.6488 3.33333 14.7036C3.33333 12.8041 7.11111 11.7636 9 11.7636Z" fill="#6F10C0"/>
</svg>
