<svg width="48" height="48" viewBox="0 0 48 48" fill="none" xmlns="http://www.w3.org/2000/svg">
<path d="M30.6672 30.16C31.4919 30.16 32.1605 29.4914 32.1605 28.6667C32.1605 27.8419 31.4919 27.1733 30.6672 27.1733C29.8424 27.1733 29.1738 27.8419 29.1738 28.6667C29.1738 29.4914 29.8424 30.16 30.6672 30.16Z" fill="#A939EA"/>
<path fill-rule="evenodd" clip-rule="evenodd" d="M30.6664 31.3335C29.693 31.3335 27.7464 31.8135 27.6797 32.7735C28.3464 33.7202 29.4397 34.3335 30.6664 34.3335C31.893 34.3335 32.9864 33.7202 33.653 32.7735C33.5864 31.8135 31.6397 31.3335 30.6664 31.3335Z" fill="#A939EA"/>
<path fill-rule="evenodd" clip-rule="evenodd" d="M32 22.7867V16.36L22 12L12 16.36V22.9067C12 28.96 16.2667 34.6267 22 36C22.7333 35.8267 23.44 35.5733 24.1333 35.2667C24.8682 36.3175 25.8459 37.1753 26.9834 37.7673C28.1208 38.3592 29.3844 38.6678 30.6667 38.6667C35.08 38.6667 38.6667 35.08 38.6667 30.6667C38.6667 26.7067 35.7867 23.4267 32 22.7867ZM22.6667 30.6667C22.6667 31.4133 22.7733 32.1467 22.9733 32.8267C22.6533 32.9733 22.3333 33.12 22 33.2267C17.7733 31.8933 14.6667 27.5733 14.6667 22.9067V18.1067L22 14.9067L29.3333 18.1067V22.7867C25.5467 23.4267 22.6667 26.7067 22.6667 30.6667ZM30.6667 36C27.72 36 25.3333 33.6133 25.3333 30.6667C25.3333 27.72 27.72 25.3333 30.6667 25.3333C33.6133 25.3333 36 27.72 36 30.6667C36 33.6133 33.6133 36 30.6667 36Z" fill="#A939EA"/>
</svg>
