<svg width="40" height="48" viewBox="0 0 40 48" fill="none" xmlns="http://www.w3.org/2000/svg">
<path d="M28 36L23.2634 31.2634M15.28 34.56C18.2716 34.56 21.1408 33.3716 23.2562 31.2562C25.3716 29.1408 26.56 26.2716 26.56 23.28C26.56 20.2884 25.3716 17.4192 23.2562 15.3038C21.1408 13.1884 18.2716 12 15.28 12C12.2884 12 9.41925 13.1884 7.30384 15.3038C5.18843 17.4192 4 20.2884 4 23.28C4 26.2716 5.18843 29.1408 7.30384 31.2562C9.41925 33.3716 12.2884 34.56 15.28 34.56Z" stroke="#6F10C0" stroke-width="2" stroke-linecap="round" stroke-linejoin="round"/>
<path d="M13.1203 19.2002L9.28027 23.0402L13.1203 26.8802M16.9603 19.2002L20.8003 23.0402L16.9603 26.8802" stroke="#6F10C0" stroke-width="2" stroke-linecap="round" stroke-linejoin="round"/>
</svg>
