<svg xmlns="http://www.w3.org/2000/svg" width="17" height="18" viewBox="0 0 17 18" fill="none">
    <path d="M12.7507 11.8332H4.60482C3.0394 11.8332 1.77148 10.5653 1.77148 8.99984C1.77148 7.43442 3.0394 6.1665 4.60482 6.1665H13.459C14.4365 6.1665 15.2298 6.95984 15.2298 7.93734C15.2298 8.91484 14.4365 9.70817 13.459 9.70817H6.02148C5.6319 9.70817 5.31315 9.38942 5.31315 8.99984C5.31315 8.61025 5.6319 8.2915 6.02148 8.2915H12.7507V7.229H6.02148C5.04398 7.229 4.25065 8.02234 4.25065 8.99984C4.25065 9.97734 5.04398 10.7707 6.02148 10.7707H13.459C15.0244 10.7707 16.2923 9.50275 16.2923 7.93734C16.2923 6.37192 15.0244 5.104 13.459 5.104H4.60482C2.45148 5.104 0.708984 6.8465 0.708984 8.99984C0.708984 11.1532 2.45148 12.8957 4.60482 12.8957H12.7507V11.8332Z" fill="#A7A7A7"/>
  </svg>