<svg width="16" height="8" viewBox="0 0 16 8" fill="none" xmlns="http://www.w3.org/2000/svg">
<path d="M4.79508 3.45539C5.19549 3.54072 5.51713 3.74092 5.76 4.056C6.00287 4.36451 6.12431 4.71897 6.12431 5.11938C6.12431 5.69703 5.92082 6.15651 5.51384 6.49785C5.11343 6.83262 4.5522 7 3.83015 7H0.610461V0.0880015H3.72185C4.4242 0.0880015 4.97231 0.248822 5.36615 0.570463C5.76656 0.892104 5.96677 1.32862 5.96677 1.88C5.96677 2.28698 5.85846 2.62503 5.64184 2.89415C5.43179 3.16328 5.14954 3.35036 4.79508 3.45539ZM2.29415 2.88431H3.39692C3.67261 2.88431 3.88267 2.82523 4.02708 2.70708C4.17805 2.58236 4.25354 2.40185 4.25354 2.16554C4.25354 1.92923 4.17805 1.74872 4.02708 1.624C3.88267 1.49928 3.67261 1.43692 3.39692 1.43692H2.29415V2.88431ZM3.53477 5.64123C3.81702 5.64123 4.03364 5.57887 4.18461 5.45415C4.34215 5.32287 4.42092 5.1358 4.42092 4.89292C4.42092 4.65005 4.33887 4.45969 4.17477 4.32185C4.01723 4.184 3.79733 4.11508 3.51508 4.11508H2.29415V5.64123H3.53477ZM11.2855 3.45539C11.6859 3.54072 12.0075 3.74092 12.2504 4.056C12.4933 4.36451 12.6147 4.71897 12.6147 5.11938C12.6147 5.69703 12.4112 6.15651 12.0042 6.49785C11.6038 6.83262 11.0426 7 10.3205 7H7.10084V0.0880015H10.2122C10.9146 0.0880015 11.4627 0.248822 11.8565 0.570463C12.2569 0.892104 12.4572 1.32862 12.4572 1.88C12.4572 2.28698 12.3488 2.62503 12.1322 2.89415C11.9222 3.16328 11.6399 3.35036 11.2855 3.45539ZM8.78454 2.88431H9.88731C10.163 2.88431 10.373 2.82523 10.5175 2.70708C10.6684 2.58236 10.7439 2.40185 10.7439 2.16554C10.7439 1.92923 10.6684 1.74872 10.5175 1.624C10.373 1.49928 10.163 1.43692 9.88731 1.43692H8.78454V2.88431ZM10.0252 5.64123C10.3074 5.64123 10.524 5.57887 10.675 5.45415C10.8325 5.32287 10.9113 5.1358 10.9113 4.89292C10.9113 4.65005 10.8293 4.45969 10.6652 4.32185C10.5076 4.184 10.2877 4.11508 10.0055 4.11508H8.78454V5.64123H10.0252ZM14.3789 7.07877C14.0835 7.07877 13.8407 6.99344 13.6503 6.82277C13.4665 6.64554 13.3746 6.42892 13.3746 6.17292C13.3746 5.91036 13.4665 5.69046 13.6503 5.51323C13.8407 5.336 14.0835 5.24739 14.3789 5.24739C14.6677 5.24739 14.904 5.336 15.0878 5.51323C15.2782 5.69046 15.3734 5.91036 15.3734 6.17292C15.3734 6.42892 15.2782 6.64554 15.0878 6.82277C14.904 6.99344 14.6677 7.07877 14.3789 7.07877Z" fill="url(#paint0_linear_1650_8644)"/>
<defs>
<linearGradient id="paint0_linear_1650_8644" x1="8.34783" y1="11" x2="8.34783" y2="-4" gradientUnits="userSpaceOnUse">
<stop stop-color="#721EC2"/>
<stop offset="1" stop-color="#A838E9"/>
</linearGradient>
</defs>
</svg>
