<svg width="24" height="24" viewBox="0 0 24 24" fill="none" xmlns="http://www.w3.org/2000/svg">
<path d="M5.2973 10.2C4.57946 10.2 4 10.7807 4 11.5C4 12.2193 4.57946 12.8 5.2973 12.8C6.01514 12.8 6.59459 12.2193 6.59459 11.5C6.59459 10.7807 6.01514 10.2 5.2973 10.2ZM5.2973 5C4.57946 5 4 5.58067 4 6.3C4 7.01933 4.57946 7.6 5.2973 7.6C6.01514 7.6 6.59459 7.01933 6.59459 6.3C6.59459 5.58067 6.01514 5 5.2973 5ZM5.2973 15.4C4.57946 15.4 4 15.9893 4 16.7C4 17.4107 4.58811 18 5.2973 18C6.00649 18 6.59459 17.4107 6.59459 16.7C6.59459 15.9893 6.01514 15.4 5.2973 15.4ZM7.89189 17.5667H20V15.8333H7.89189V17.5667ZM7.89189 12.3667H20V10.6333H7.89189V12.3667ZM7.89189 5.43333V7.16667H20V5.43333H7.89189Z" fill="#919EAB"/>
</svg>
