<svg width="20" height="20" viewBox="0 0 20 20" fill="none" xmlns="http://www.w3.org/2000/svg">
<g id="Frame 48097702">
<path id="Vector" d="M10 9C9.17533 9 8.469 8.706 7.881 8.118C7.293 7.53 6.99933 6.824 7 6C7 5.17467 7.29367 4.468 7.881 3.88C8.46833 3.29333 9.17467 3 10 3C10.8253 3 11.5317 3.29333 12.119 3.88C12.7063 4.468 13 5.17467 13 6C13 6.82467 12.7063 7.53067 12.119 8.118C11.5317 8.70533 10.8253 8.99933 10 9ZM3 16.23V14.585C3 14.1723 3.12 13.7863 3.36 13.427C3.60067 13.067 3.924 12.7877 4.33 12.589C5.274 12.1363 6.21833 11.797 7.163 11.571C8.10833 11.3443 9.054 11.231 10 11.231C10.9467 11.231 11.8923 11.3443 12.837 11.571C13.7817 11.7977 14.7257 12.137 15.669 12.589C16.0757 12.7877 16.399 13.067 16.639 13.427C16.8797 13.7863 17 14.1723 17 14.585V16.231L3 16.23ZM4 15.23H16V14.584C16 14.3627 15.9287 14.1543 15.786 13.959C15.6427 13.7643 15.4447 13.5997 15.192 13.465C14.3693 13.0663 13.5207 12.761 12.646 12.549C11.7727 12.3363 10.8907 12.23 10 12.23C9.11 12.23 8.228 12.3363 7.354 12.549C6.47933 12.761 5.63067 13.0663 4.808 13.465C4.55467 13.5997 4.35667 13.7643 4.214 13.959C4.07133 14.1543 4 14.363 4 14.585V15.23ZM10 8C10.55 8 11.021 7.804 11.413 7.412C11.805 7.02 12.0007 6.54933 12 6C12 5.45 11.8043 4.979 11.413 4.587C11.0217 4.195 10.5507 3.99933 10 4C9.45 4 8.97933 4.19567 8.588 4.587C8.19667 4.97833 8.00067 5.44933 8 6C8 6.55 8.196 7.02067 8.588 7.412C8.98 7.80333 9.45067 7.99933 10 8Z" fill="#A7A7A7"/>
</g>
</svg>
