<svg width="24" height="24" viewBox="0 0 24 24" fill="none" xmlns="http://www.w3.org/2000/svg">
<path d="M5.99998 15.6008C5.99998 15.2825 5.87355 14.9773 5.6485 14.7523C5.42346 14.5272 5.11824 14.4008 4.79998 14.4008C4.48172 14.4008 4.17649 14.5272 3.95145 14.7523C3.7264 14.9773 3.59998 15.2825 3.59998 15.6008C3.59998 15.919 3.7264 16.2243 3.95145 16.4493C4.17649 16.6744 4.48172 16.8008 4.79998 16.8008C5.11824 16.8008 5.42346 16.6744 5.6485 16.4493C5.87355 16.2243 5.99998 15.919 5.99998 15.6008ZM13.2 15.6008C13.2 15.2825 13.0735 14.9773 12.8485 14.7523C12.6235 14.5272 12.3182 14.4008 12 14.4008C11.6817 14.4008 11.3765 14.5272 11.1514 14.7523C10.9264 14.9773 10.8 15.2825 10.8 15.6008C10.8 15.919 10.9264 16.2243 11.1514 16.4493C11.3765 16.6744 11.6817 16.8008 12 16.8008C12.3182 16.8008 12.6235 16.6744 12.8485 16.4493C13.0735 16.2243 13.2 15.919 13.2 15.6008ZM19.2 14.4008C19.5182 14.4008 19.8235 14.5272 20.0485 14.7523C20.2735 14.9773 20.4 15.2825 20.4 15.6008C20.4 15.919 20.2735 16.2243 20.0485 16.4493C19.8235 16.6744 19.5182 16.8008 19.2 16.8008C18.8817 16.8008 18.5765 16.6744 18.3514 16.4493C18.1264 16.2243 18 15.919 18 15.6008C18 15.2825 18.1264 14.9773 18.3514 14.7523C18.5765 14.5272 18.8817 14.4008 19.2 14.4008ZM5.99998 8.40078C5.99998 8.08252 5.87355 7.7773 5.6485 7.55225C5.42346 7.32721 5.11823 7.20078 4.79998 7.20078C4.48172 7.20078 4.17649 7.32721 3.95145 7.55225C3.7264 7.7773 3.59998 8.08252 3.59998 8.40078C3.59998 8.71904 3.7264 9.02427 3.95145 9.24931C4.17649 9.47435 4.48172 9.60078 4.79998 9.60078C5.11824 9.60078 5.42346 9.47435 5.6485 9.24931C5.87355 9.02427 5.99998 8.71904 5.99998 8.40078ZM12 7.20078C12.3182 7.20078 12.6235 7.32721 12.8485 7.55225C13.0735 7.7773 13.2 8.08252 13.2 8.40078C13.2 8.71904 13.0735 9.02426 12.8485 9.24931C12.6235 9.47435 12.3182 9.60078 12 9.60078C11.6817 9.60078 11.3765 9.47435 11.1514 9.24931C10.9264 9.02426 10.8 8.71904 10.8 8.40078C10.8 8.08252 10.9264 7.7773 11.1514 7.55225C11.3765 7.32721 11.6817 7.20078 12 7.20078ZM20.4 8.40078C20.4 8.08252 20.2735 7.7773 20.0485 7.55225C19.8235 7.32721 19.5182 7.20078 19.2 7.20078C18.8817 7.20078 18.5765 7.32721 18.3514 7.55225C18.1264 7.7773 18 8.08252 18 8.40078C18 8.71904 18.1264 9.02426 18.3514 9.24931C18.5765 9.47435 18.8817 9.60078 19.2 9.60078C19.5182 9.60078 19.8235 9.47435 20.0485 9.24931C20.2735 9.02426 20.4 8.71904 20.4 8.40078Z" fill="#919EAB"/>
</svg>