<svg width="30" height="34" viewBox="0 0 30 34" fill="none" xmlns="http://www.w3.org/2000/svg">
<path d="M12 22.1C11.132 22.1 10.2996 22.4582 9.68583 23.0958C9.07208 23.7335 8.72727 24.5983 8.72727 25.5C8.72727 26.4017 9.07208 27.2665 9.68583 27.9042C10.2996 28.5418 11.132 28.9 12 28.9C12.868 28.9 13.7004 28.5418 14.3142 27.9042C14.9279 27.2665 15.2727 26.4017 15.2727 25.5C15.2727 24.5983 14.9279 23.7335 14.3142 23.0958C13.7004 22.4582 12.868 22.1 12 22.1ZM12 31.1667C10.5534 31.1667 9.16598 30.5696 8.14305 29.5069C7.12013 28.4442 6.54545 27.0029 6.54545 25.5C6.54545 23.9971 7.12013 22.5558 8.14305 21.4931C9.16598 20.4304 10.5534 19.8333 12 19.8333C13.4466 19.8333 14.834 20.4304 15.8569 21.4931C16.8799 22.5558 17.4545 23.9971 17.4545 25.5C17.4545 27.0029 16.8799 28.4442 15.8569 29.5069C14.834 30.5696 13.4466 31.1667 12 31.1667ZM12 17C6.54545 17 1.88727 20.5247 0 25.5C1.88727 30.4753 6.54545 34 12 34C17.4545 34 22.1127 30.4753 24 25.5C22.1127 20.5247 17.4545 17 12 17Z" fill="#6F10C0"/>
<path fill-rule="evenodd" clip-rule="evenodd" d="M18 1.4C18 1.0287 18.1459 0.672601 18.4055 0.410051C18.6652 0.1475 19.0174 0 19.3846 0L26.9603 0L30 3.07347V12.6C30 12.9713 29.8541 13.3274 29.5945 13.5899C29.3348 13.8525 28.9826 14 28.6154 14H19.3846C19.0174 14 18.6652 13.8525 18.4055 13.5899C18.1459 13.3274 18 12.9713 18 12.6V1.4ZM20.7692 3.73333H23.5385V4.66667H20.7692V3.73333ZM27.2308 6.53333H20.7692V7.46667H27.2308V6.53333ZM27.2308 9.33333H24.4615V10.2667H27.2308V9.33333Z" fill="#6F10C0"/>
</svg>
