<svg width="22" height="24" viewBox="0 0 22 24" fill="none" xmlns="http://www.w3.org/2000/svg">
<g clip-path="url(#clip0_1803_47901)">
<path d="M10.6284 20.0548C15.1034 20.0548 18.7311 16.4485 18.7311 12C18.7311 7.55144 15.1034 3.94519 10.6284 3.94519C6.15335 3.94519 2.52563 7.55144 2.52563 12C2.52563 16.4485 6.15335 20.0548 10.6284 20.0548Z" stroke="#6E10C0" stroke-width="2" stroke-miterlimit="10"/>
<path d="M10.6284 15.1781C12.394 15.1781 13.8254 13.7552 13.8254 12C13.8254 10.2448 12.394 8.8219 10.6284 8.8219C8.86274 8.8219 7.4314 10.2448 7.4314 12C7.4314 13.7552 8.86274 15.1781 10.6284 15.1781Z" fill="#6E10C0"/>
<path d="M11.087 10.6301H10.2624L9.80493 0.986301C9.80493 0.441644 10.1731 0 10.6284 0C11.0837 0 11.453 0.441644 11.453 0.986301L11.087 10.6301Z" fill="#6E10C0"/>
<path d="M12.0505 11.7052L11.636 10.9962L19.7938 5.75675C20.2679 5.48277 20.8367 5.57812 21.066 5.96935C21.2953 6.36058 21.0958 6.89976 20.6228 7.17373L12.0516 11.7052H12.0505Z" fill="#6E10C0"/>
<path d="M11.5996 13.074L12.0075 12.3617L20.6636 16.7398C21.1399 17.0094 21.3427 17.5464 21.1178 17.9398C20.8929 18.3332 20.3241 18.4329 19.8479 18.1633L11.5996 13.0729V13.074Z" fill="#6E10C0"/>
<path d="M10.183 13.3743L11.0076 13.3677L11.5489 23.0071C11.5533 23.5518 11.1884 23.9967 10.7331 24C10.2778 24.0044 9.90517 23.566 9.89966 23.0203L10.1819 13.3732L10.183 13.3743Z" fill="#6E10C0"/>
<path d="M9.20967 12.3069L9.62969 13.0115L1.51924 18.3211C1.04741 18.5984 0.477464 18.5085 0.244855 18.1195C0.0122459 17.7304 0.20627 17.1891 0.678103 16.9118L9.20967 12.308V12.3069Z" fill="#6E10C0"/>
<path d="M9.6494 10.9347L9.24702 11.6504L0.553396 7.3468C0.0749495 7.0816 -0.133406 6.54571 0.0892809 6.15009C0.310866 5.75447 0.878608 5.64927 1.35705 5.91557L9.64829 10.9347H9.6494Z" fill="#6E10C0"/>
</g>
<defs>
<clipPath id="clip0_1803_47901">
<rect width="21.2093" height="24" fill="white"/>
</clipPath>
</defs>
</svg>
