<svg width="32" height="32" viewBox="0 0 32 32" fill="none" xmlns="http://www.w3.org/2000/svg">
<g id="mdi:ship-wheel">
<path id="Vector" d="M2.66671 14.6667L5.40004 14.8C5.56158 13.3406 6.02418 11.9306 6.75859 10.6591C7.49301 9.38769 8.48325 8.28245 9.66671 7.41333L8.17337 5.12C7.81337 4.48 8.00004 3.66666 8.66671 3.29333C9.33337 2.93333 10.12 3.14666 10.4934 3.78666L11.7334 6.21333C13.0812 5.63387 14.5329 5.33503 16 5.33503C17.4671 5.33503 18.9189 5.63387 20.2667 6.21333L21.5067 3.78666C21.88 3.14666 22.6667 2.93333 23.3334 3.29333C24 3.66666 24.1867 4.48 23.8267 5.12L22.3334 7.41333C23.5168 8.28245 24.5071 9.38769 25.2415 10.6591C25.9759 11.9306 26.4385 13.3406 26.6 14.8L29.3334 14.6667C29.687 14.6667 30.0261 14.8071 30.2762 15.0572C30.5262 15.3072 30.6667 15.6464 30.6667 16C30.6667 16.3536 30.5262 16.6928 30.2762 16.9428C30.0261 17.1929 29.687 17.3333 29.3334 17.3333L26.6 17.2C26.4385 18.6594 25.9759 20.0694 25.2415 21.3409C24.5071 22.6123 23.5168 23.7175 22.3334 24.5867L23.8267 26.88C24.1867 27.52 24 28.3333 23.3334 28.7067C22.6667 29.0667 21.88 28.8533 21.5067 28.2133L20.2667 25.7867C18.9189 26.3661 17.4671 26.665 16 26.665C14.5329 26.665 13.0812 26.3661 11.7334 25.7867L10.4934 28.2133C10.12 28.8533 9.33337 29.0667 8.66671 28.7067C8.00004 28.3333 7.81337 27.52 8.17337 26.88L9.66671 24.5867C8.48325 23.7175 7.49301 22.6123 6.75859 21.3409C6.02418 20.0694 5.56158 18.6594 5.40004 17.2L2.66671 17.3333C2.31309 17.3333 1.97395 17.1929 1.7239 16.9428C1.47385 16.6928 1.33337 16.3536 1.33337 16C1.33337 15.6464 1.47385 15.3072 1.7239 15.0572C1.97395 14.8071 2.31309 14.6667 2.66671 14.6667ZM12.0934 15.1333C12.2667 14.32 12.7067 13.6 13.3334 13.0533L11.12 9.66666C9.4472 10.9506 8.34968 12.8437 8.06671 14.9333L12.0934 15.1333ZM16 12C16.4267 12 16.8267 12.0667 17.2 12.1867L19.04 8.6C18.1067 8.21333 17.08 8 16 8C14.92 8 13.8934 8.21333 12.96 8.6L14.8 12.1867C15.1734 12.0667 15.5734 12 16 12ZM19.9067 15.1333L23.9334 14.9333C23.6504 12.8437 22.5529 10.9506 20.88 9.66666L18.6667 13.0533C19.2934 13.6 19.7334 14.32 19.9067 15.1333ZM19.9067 16.8667C19.7334 17.68 19.2934 18.4 18.6667 18.9467L20.88 22.3333C22.5529 21.0494 23.6504 19.1563 23.9334 17.0667L19.9067 16.8667ZM16 20C15.5734 20 15.1734 19.9333 14.7867 19.8133L12.96 23.4C13.8934 23.7867 14.92 24 16 24C17.08 24 18.1067 23.7867 19.04 23.4L17.2134 19.8133C16.8267 19.9333 16.4267 20 16 20ZM12.0934 16.8667L8.06671 17.0667C8.36004 19.2 9.48004 21.08 11.12 22.3333L13.3334 18.9467C12.7067 18.4 12.2667 17.68 12.0934 16.8667Z" fill="#A939EA"/>
</g>
</svg>
