<svg width="48" height="48" viewBox="0 0 48 48" fill="none" xmlns="http://www.w3.org/2000/svg">
<path d="M10.6673 22.6668L13.4007 22.8002C13.5622 21.3408 14.0248 19.9308 14.7592 18.6593C15.4936 17.3879 16.4839 16.2826 17.6673 15.4135L16.174 13.1202C15.814 12.4802 16.0007 11.6668 16.6673 11.2935C17.334 10.9335 18.1207 11.1468 18.494 11.7868L19.734 14.2135C21.0818 13.6341 22.5335 13.3352 24.0007 13.3352C25.4678 13.3352 26.9195 13.6341 28.2673 14.2135L29.5073 11.7868C29.8806 11.1468 30.6673 10.9335 31.334 11.2935C32.0007 11.6668 32.1873 12.4802 31.8273 13.1202L30.334 15.4135C31.5174 16.2826 32.5077 17.3879 33.2421 18.6593C33.9765 19.9308 34.4391 21.3408 34.6007 22.8002L37.334 22.6668C37.6876 22.6668 38.0267 22.8073 38.2768 23.0574C38.5268 23.3074 38.6673 23.6466 38.6673 24.0002C38.6673 24.3538 38.5268 24.6929 38.2768 24.943C38.0267 25.193 37.6876 25.3335 37.334 25.3335L34.6007 25.2002C34.4391 26.6596 33.9765 28.0696 33.2421 29.341C32.5077 30.6125 31.5174 31.7177 30.334 32.5868L31.8273 34.8802C32.1873 35.5202 32.0007 36.3335 31.334 36.7068C30.6673 37.0668 29.8806 36.8535 29.5073 36.2135L28.2673 33.7868C26.9195 34.3663 25.4678 34.6651 24.0007 34.6651C22.5335 34.6651 21.0818 34.3663 19.734 33.7868L18.494 36.2135C18.1207 36.8535 17.334 37.0668 16.6673 36.7068C16.0007 36.3335 15.814 35.5202 16.174 34.8802L17.6673 32.5868C16.4839 31.7177 15.4936 30.6125 14.7592 29.341C14.0248 28.0696 13.5622 26.6596 13.4007 25.2002L10.6673 25.3335C10.3137 25.3335 9.97456 25.193 9.72451 24.943C9.47446 24.6929 9.33398 24.3538 9.33398 24.0002C9.33398 23.6466 9.47446 23.3074 9.72451 23.0574C9.97456 22.8073 10.3137 22.6668 10.6673 22.6668ZM20.094 23.1335C20.2673 22.3202 20.7073 21.6002 21.334 21.0535L19.1207 17.6668C17.4478 18.9507 16.3503 20.8438 16.0673 22.9335L20.094 23.1335ZM24.0007 20.0002C24.4273 20.0002 24.8273 20.0668 25.2007 20.1868L27.0407 16.6002C26.1073 16.2135 25.0807 16.0002 24.0007 16.0002C22.9207 16.0002 21.894 16.2135 20.9607 16.6002L22.8007 20.1868C23.174 20.0668 23.574 20.0002 24.0007 20.0002ZM27.9073 23.1335L31.934 22.9335C31.651 20.8438 30.5535 18.9507 28.8807 17.6668L26.6673 21.0535C27.294 21.6002 27.734 22.3202 27.9073 23.1335ZM27.9073 24.8668C27.734 25.6802 27.294 26.4002 26.6673 26.9468L28.8807 30.3335C30.5535 29.0496 31.651 27.1565 31.934 25.0668L27.9073 24.8668ZM24.0007 28.0002C23.574 28.0002 23.174 27.9335 22.7873 27.8135L20.9607 31.4002C21.894 31.7868 22.9207 32.0002 24.0007 32.0002C25.0807 32.0002 26.1073 31.7868 27.0407 31.4002L25.214 27.8135C24.8273 27.9335 24.4273 28.0002 24.0007 28.0002ZM20.094 24.8668L16.0673 25.0668C16.3607 27.2002 17.4807 29.0802 19.1207 30.3335L21.334 26.9468C20.7073 26.4002 20.2673 25.6802 20.094 24.8668Z" fill="#A939EA"/>
</svg>
