<svg width="24" height="20" viewBox="0 0 24 20" fill="none" xmlns="http://www.w3.org/2000/svg">
<path d="M1.54545 8.96489L3.68864 9.0684C3.8153 7.93541 4.17802 6.84078 4.75387 5.8537C5.32971 4.86663 6.10615 4.0086 7.03409 3.33387L5.86318 1.55348C5.58091 1.05662 5.72727 0.425202 6.25 0.13537C6.77273 -0.14411 7.38954 0.0215079 7.68227 0.518362L8.65455 2.40227C9.71136 1.95242 10.8497 1.72042 12 1.72042C13.1503 1.72042 14.2886 1.95242 15.3455 2.40227L16.3177 0.518362C16.6105 0.0215079 17.2273 -0.14411 17.75 0.13537C18.2727 0.425202 18.4191 1.05662 18.1368 1.55348L16.9659 3.33387C17.8938 4.0086 18.6703 4.86663 19.2461 5.8537C19.822 6.84078 20.1847 7.93541 20.3114 9.0684L22.4545 8.96489C22.7318 8.96489 22.9977 9.07394 23.1938 9.26806C23.3899 9.46218 23.5 9.72547 23.5 10C23.5 10.2745 23.3899 10.5378 23.1938 10.7319C22.9977 10.9261 22.7318 11.0351 22.4545 11.0351L20.3114 10.9316C20.1847 12.0646 19.822 13.1592 19.2461 14.1463C18.6703 15.1334 17.8938 15.9914 16.9659 16.6661L18.1368 18.4465C18.4191 18.9434 18.2727 19.5748 17.75 19.8646C17.2273 20.1441 16.6105 19.9785 16.3177 19.4816L15.3455 17.5977C14.2886 18.0476 13.1503 18.2796 12 18.2796C10.8497 18.2796 9.71136 18.0476 8.65455 17.5977L7.68227 19.4816C7.38954 19.9785 6.77273 20.1441 6.25 19.8646C5.72727 19.5748 5.58091 18.9434 5.86318 18.4465L7.03409 16.6661C6.10615 15.9914 5.32971 15.1334 4.75387 14.1463C4.17802 13.1592 3.8153 12.0646 3.68864 10.9316L1.54545 11.0351C1.26818 11.0351 1.00227 10.9261 0.806206 10.7319C0.610146 10.5378 0.5 10.2745 0.5 10C0.5 9.72547 0.610146 9.46218 0.806206 9.26806C1.00227 9.07394 1.26818 8.96489 1.54545 8.96489ZM8.93682 9.32718C9.07273 8.69576 9.41773 8.1368 9.90909 7.7124L8.17364 5.08321C6.86197 6.07994 6.00142 7.54962 5.77955 9.17191L8.93682 9.32718ZM12 6.89466C12.3345 6.89466 12.6482 6.94642 12.9409 7.03958L14.3836 4.25512C13.6518 3.95494 12.8468 3.78932 12 3.78932C11.1532 3.78932 10.3482 3.95494 9.61636 4.25512L11.0591 7.03958C11.3518 6.94642 11.6655 6.89466 12 6.89466ZM15.0632 9.32718L18.2205 9.17191C17.9986 7.54962 17.138 6.07994 15.8264 5.08321L14.0909 7.7124C14.5823 8.1368 14.9273 8.69576 15.0632 9.32718ZM15.0632 10.6728C14.9273 11.3042 14.5823 11.8632 14.0909 12.2876L15.8264 14.9168C17.138 13.9201 17.9986 12.4504 18.2205 10.8281L15.0632 10.6728ZM12 13.1053C11.6655 13.1053 11.3518 13.0536 11.0486 12.9604L9.61636 15.7449C10.3482 16.0451 11.1532 16.2107 12 16.2107C12.8468 16.2107 13.6518 16.0451 14.3836 15.7449L12.9514 12.9604C12.6482 13.0536 12.3345 13.1053 12 13.1053ZM8.93682 10.6728L5.77955 10.8281C6.00955 12.4843 6.88773 13.9438 8.17364 14.9168L9.90909 12.2876C9.41773 11.8632 9.07273 11.3042 8.93682 10.6728Z" fill="#6F10C0"/>
</svg>
