<svg xmlns="http://www.w3.org/2000/svg" width="16" height="16" viewBox="0 0 16 16" fill="none">
  <path fill-rule="evenodd" clip-rule="evenodd" d="M2.66699 7.99984C2.66699 5.05584 5.05099 2.6665 7.99499 2.6665C10.9443 2.6665 13.3337 5.05584 13.3337 7.99984C13.3337 10.9438 10.9443 13.3332 7.99499 13.3332C5.05099 13.3332 2.66699 10.9438 2.66699 7.99984ZM3.73366 7.99984C3.73366 10.3572 5.64299 12.2665 8.00033 12.2665C10.3577 12.2665 12.267 10.3572 12.267 7.99984C12.267 5.6425 10.3577 3.73317 8.00033 3.73317C5.64299 3.73317 3.73366 5.6425 3.73366 7.99984ZM7.33366 5.33317H8.16699V8.01077L10.667 9.37251L10.2503 9.99984L7.33366 8.39328V5.33317Z" fill="#919EAB"/>
</svg>