<svg width="11" height="14" viewBox="0 0 11 14" fill="none" xmlns="http://www.w3.org/2000/svg">
<path d="M2.83574 0.0741563L2.20819 0.26321C1.64941 0.43172 1.1504 0.756348 0.769887 1.19888C0.389374 1.64142 0.143197 2.18345 0.0603312 2.76117C-0.199618 4.57118 0.381547 6.68753 1.78282 9.1146C3.18059 11.5355 4.71928 13.0952 6.41288 13.7779C6.95705 13.9972 7.55275 14.0557 8.12916 13.9463C8.70557 13.8369 9.23844 13.5643 9.66443 13.1609L10.1388 12.711C10.4469 12.4195 10.6386 12.026 10.6783 11.6037C10.7181 11.1815 10.6032 10.7591 10.355 10.4152L9.16816 8.76975C9.00771 8.5476 8.78176 8.38124 8.52199 8.29397C8.26222 8.2067 7.98166 8.2029 7.71963 8.28311L5.92449 8.83189L5.87811 8.84064C5.6803 8.86953 5.22342 8.44153 4.65451 7.456C4.05934 6.42496 3.93681 5.82191 4.10048 5.66612L5.01336 4.8145C5.34719 4.50332 5.57523 4.09543 5.66549 3.64807C5.75574 3.20071 5.70369 2.73632 5.51663 2.32004L4.93721 1.03255C4.76298 0.645118 4.45381 0.334261 4.06733 0.157928C3.68085 -0.0184041 3.24255 -0.0481783 2.83574 0.0741563ZM4.14074 1.3914L4.7184 2.67889C4.8309 2.92854 4.86236 3.20717 4.80836 3.47561C4.75435 3.74406 4.6176 3.98884 4.41732 4.17557L3.50181 5.02806C2.91539 5.58297 3.1097 6.52999 3.89742 7.89362C4.63788 9.17674 5.31357 9.81042 6.04003 9.70014L6.14856 9.67738L7.97608 9.11985C8.06343 9.09301 8.15699 9.0942 8.24364 9.12324C8.33029 9.15228 8.40567 9.20771 8.45921 9.28177L9.64605 10.9272C9.77033 11.0992 9.82792 11.3104 9.80812 11.5216C9.78831 11.7329 9.69246 11.9297 9.53839 12.0756L9.06313 12.5254C8.75885 12.8134 8.37829 13.008 7.96667 13.086C7.55505 13.1641 7.12968 13.1223 6.7411 12.9657C5.25493 12.367 3.85016 10.943 2.54166 8.67697C1.22966 6.4057 0.698387 4.47403 0.926827 2.88545C0.98596 2.47271 1.16179 2.08546 1.43361 1.76929C1.70544 1.45312 2.06193 1.22119 2.46114 1.10082L3.08869 0.911769C3.29215 0.850632 3.5109 0.865582 3.70415 0.953832C3.89739 1.04208 4.05195 1.19761 4.13899 1.3914" fill="#CCCCCC"/>
</svg>
