<svg width="24" height="24" viewBox="0 0 24 24" fill="#8E27D7" xmlns="http://www.w3.org/2000/svg">
<path fill-rule="evenodd" clip-rule="evenodd" d="M10 5C10 4.44772 10.4477 4 11 4H21C21.5523 4 22 4.44772 22 5C22 5.55228 21.5523 6 21 6H11C10.4477 6 10 5.55228 10 5ZM10 9C10 8.44772 10.4477 8 11 8H16C16.5523 8 17 8.44772 17 9C17 9.55228 16.5523 10 16 10H11C10.4477 10 10 9.55228 10 9Z" fill="#8E27D7"/>
<path d="M6 5H4C3.44772 5 3 5.44772 3 6V8C3 8.55228 3.44772 9 4 9H6C6.55228 9 7 8.55228 7 8V6C7 5.44772 6.55228 5 6 5Z" fill="#8E27D7"/>
<path fill-rule="evenodd" clip-rule="evenodd" d="M2 6C2 4.89543 2.89543 4 4 4H6C7.10457 4 8 4.89543 8 6V8C8 9.10457 7.10457 10 6 10H4C2.89543 10 2 9.10457 2 8V6ZM6 6H4V8H6V6Z" fill="#8E27D7"/>
<path fill-rule="evenodd" clip-rule="evenodd" d="M10 15C10 14.4477 10.4477 14 11 14H21C21.5523 14 22 14.4477 22 15C22 15.5523 21.5523 16 21 16H11C10.4477 16 10 15.5523 10 15ZM10 19C10 18.4477 10.4477 18 11 18H16C16.5523 18 17 18.4477 17 19C17 19.5523 16.5523 20 16 20H11C10.4477 20 10 19.5523 10 19Z" fill="#8E27D7"/>
<path d="M6 15H4C3.44772 15 3 15.4477 3 16V18C3 18.5523 3.44772 19 4 19H6C6.55228 19 7 18.5523 7 18V16C7 15.4477 6.55228 15 6 15Z" fill="#8E27D7"/>
<path fill-rule="evenodd" clip-rule="evenodd" d="M2 16C2 14.8954 2.89543 14 4 14H6C7.10457 14 8 14.8954 8 16V18C8 19.1046 7.10457 20 6 20H4C2.89543 20 2 19.1046 2 18V16ZM6 16H4V18H6V16Z" fill="#8E27D7"/>
</svg>
