<svg width="24" height="25" viewBox="0 0 24 25" fill="none" xmlns="http://www.w3.org/2000/svg">
<g id="basil:diamond-solid">
<path id="Vector" d="M9.37498 20.8992C9.40686 20.9276 9.44716 20.9448 9.48972 20.9482C9.53229 20.9516 9.57481 20.941 9.6108 20.9181C9.64679 20.8951 9.6743 20.861 9.68913 20.8209C9.70397 20.7809 9.70532 20.7371 9.69298 20.6962L7.17298 12.0582C7.15012 11.9796 7.10376 11.9099 7.04013 11.8584C6.97649 11.8069 6.89862 11.7762 6.81698 11.7702C6.40898 11.7402 6.00198 11.7072 5.59497 11.6702L2.22498 11.3632C2.18935 11.3598 2.15345 11.366 2.12109 11.3813C2.08874 11.3966 2.06114 11.4204 2.04124 11.4502C2.02134 11.4799 2.00987 11.5145 2.00807 11.5503C2.00626 11.586 2.01417 11.6216 2.03098 11.6532C3.85398 15.0632 6.47898 18.3132 9.37498 20.8992ZM11.847 22.7252C11.867 22.7952 11.927 22.8472 12 22.8472C12.0352 22.8462 12.0692 22.8337 12.0968 22.8117C12.1244 22.7897 12.1441 22.7594 12.153 22.7252L15.237 12.1522C15.2462 12.1215 15.2478 12.0891 15.2418 12.0576C15.2358 12.0261 15.2224 11.9965 15.2026 11.9714C15.1828 11.9462 15.1572 11.9261 15.1281 11.9129C15.0989 11.8996 15.067 11.8936 15.035 11.8952C13.0126 11.982 10.9874 11.982 8.96498 11.8952C8.93309 11.8936 8.90129 11.8997 8.87222 11.9129C8.84315 11.9261 8.81767 11.946 8.79789 11.9711C8.77812 11.9961 8.76463 12.0256 8.75856 12.0569C8.75248 12.0882 8.754 12.1206 8.76297 12.1512L11.847 22.7252ZM14.307 20.6962C14.251 20.8862 14.477 21.0312 14.625 20.8992C17.521 18.3122 20.146 15.0632 21.969 11.6532C21.9857 11.6217 21.9936 11.5862 21.9918 11.5506C21.9901 11.5149 21.9787 11.4804 21.9589 11.4507C21.9391 11.421 21.9117 11.3972 21.8795 11.3818C21.8473 11.3664 21.8115 11.36 21.776 11.3632L18.406 11.6702C17.998 11.7072 17.591 11.7402 17.183 11.7702C17.1013 11.7762 17.0235 11.8069 16.9598 11.8584C16.8962 11.9099 16.8498 11.9796 16.827 12.0582L14.307 20.6962ZM21.801 9.85522C21.8358 9.85216 21.8693 9.84 21.898 9.81996C21.9267 9.79991 21.9496 9.77269 21.9645 9.74101C21.9794 9.70932 21.9857 9.67429 21.9828 9.6394C21.9799 9.60452 21.9679 9.57101 21.948 9.54222L18.71 4.84722C18.572 4.64727 18.3875 4.48383 18.1724 4.37096C17.9572 4.25808 17.7179 4.19915 17.475 4.19922H14.985C14.9521 4.19922 14.9198 4.20731 14.8908 4.22277C14.8618 4.23823 14.8371 4.26058 14.8188 4.28786C14.8006 4.31514 14.7893 4.34651 14.786 4.37918C14.7827 4.41186 14.7875 4.44484 14.8 4.47522L17.057 9.99822C17.089 10.0763 17.145 10.1423 17.2169 10.1867C17.2887 10.2311 17.3728 10.2515 17.457 10.2452C17.727 10.2242 17.999 10.2012 18.27 10.1752L21.801 9.85522ZM13.165 4.44522C13.1345 4.37223 13.0831 4.30991 13.0173 4.26612C12.9514 4.22234 12.8741 4.19905 12.795 4.19922H11.205C11.1259 4.19905 11.0485 4.22234 10.9827 4.26612C10.9168 4.30991 10.8654 4.37223 10.835 4.44522L8.47698 10.1032C8.46477 10.1328 8.45985 10.1649 8.46263 10.1968C8.46541 10.2287 8.47581 10.2595 8.49296 10.2866C8.51011 10.3136 8.53351 10.3361 8.56118 10.3523C8.58885 10.3684 8.61999 10.3776 8.65198 10.3792C10.882 10.4872 13.118 10.4872 15.349 10.3792C15.3809 10.3775 15.4119 10.3681 15.4394 10.3519C15.467 10.3358 15.4902 10.3132 15.5073 10.2862C15.5243 10.2591 15.5346 10.2284 15.5374 10.1966C15.5401 10.1648 15.5352 10.1328 15.523 10.1032L13.165 4.44522ZM9.19998 4.47522C9.21245 4.44484 9.21726 4.41186 9.21397 4.37918C9.21068 4.34651 9.19939 4.31514 9.18111 4.28786C9.16282 4.26058 9.1381 4.23823 9.10913 4.22277C9.08015 4.20731 9.04782 4.19922 9.01498 4.19922H6.52498C6.28203 4.19915 6.04271 4.25808 5.82758 4.37096C5.61246 4.48383 5.42797 4.64727 5.28998 4.84722L2.05198 9.54222C2.03206 9.57101 2.02006 9.60452 2.01715 9.6394C2.01425 9.67429 2.02056 9.70932 2.03544 9.74101C2.05032 9.77269 2.07325 9.79991 2.10195 9.81996C2.13065 9.84 2.1641 9.85216 2.19898 9.85522L5.72998 10.1752C6.00098 10.2012 6.27198 10.2242 6.54298 10.2452C6.62721 10.2517 6.71133 10.2313 6.78322 10.1869C6.8551 10.1425 6.91104 10.0764 6.94298 9.99822L9.19998 4.47522Z" fill="#FDB447"/>
</g>
</svg>
