<svg width="18" height="9" viewBox="0 0 18 9" fill="none" xmlns="http://www.w3.org/2000/svg">
<path d="M1.12466 6.375H16.8747C17.1597 6.37509 17.4341 6.48337 17.6423 6.67796C17.8506 6.87255 17.9773 7.13895 17.9967 7.42332C18.0161 7.70769 17.9269 7.98884 17.747 8.20995C17.5671 8.43106 17.31 8.57565 17.0277 8.6145L16.8747 8.625H1.12466C0.839622 8.62491 0.565246 8.51663 0.356969 8.32204C0.148693 8.12745 0.0220461 7.86105 0.00261808 7.57668C-0.0168099 7.29231 0.0724298 7.01116 0.252306 6.79005C0.432181 6.56894 0.689282 6.42435 0.971657 6.3855L1.12466 6.375ZM1.12466 0.375H16.8747C17.1597 0.375087 17.4341 0.483366 17.6423 0.677959C17.8506 0.872551 17.9773 1.13895 17.9967 1.42332C18.0161 1.70769 17.9269 1.98884 17.747 2.20995C17.5671 2.43106 17.31 2.57565 17.0277 2.6145L16.8747 2.625H1.12466C0.839622 2.62491 0.565246 2.51663 0.356969 2.32204C0.148693 2.12745 0.0220461 1.86105 0.00261808 1.57668C-0.0168099 1.29231 0.0724298 1.01116 0.252306 0.790051C0.432181 0.568941 0.689282 0.424352 0.971657 0.3855L1.12466 0.375Z" fill="#CCCCCC"/>
</svg>
