<svg width="20" height="20" viewBox="0 0 20 20" fill="none" xmlns="http://www.w3.org/2000/svg">
<g id="carbon:email">
<path id="Vector" d="M16 6H4C3.73478 6 3.48043 6.09482 3.29289 6.2636C3.10536 6.43239 3 6.66131 3 6.9V14.1C3 14.3387 3.10536 14.5676 3.29289 14.7364C3.48043 14.9052 3.73478 15 4 15H16C16.2652 15 16.5196 14.9052 16.7071 14.7364C16.8946 14.5676 17 14.3387 17 14.1V6.9C17 6.66131 16.8946 6.43239 16.7071 6.2636C16.5196 6.09482 16.2652 6 16 6ZM14.9 6.9L10 9.951L5.1 6.9H14.9ZM4 14.1V7.3095L9.715 10.869C9.7987 10.9213 9.89813 10.9493 10 10.9493C10.1019 10.9493 10.2013 10.9213 10.285 10.869L16 7.3095V14.1H4Z" fill="#A7A7A7"/>
</g>
</svg>
