<svg width="24" height="25" viewBox="0 0 24 25" fill="none" xmlns="http://www.w3.org/2000/svg">
<path d="M7.84615 11.3H7.15385V12.7H7.84615V11.3ZM16.1538 12.7H16.8462V11.3H16.1538V12.7ZM13.3846 15.5H12.6923V16.9H13.3846V15.5ZM16.1538 16.9H16.8462V15.5H16.1538V16.9ZM7.84615 7.1H7.15385V8.5H7.84615V7.1ZM10.6154 8.5H11.3077V7.1H10.6154V8.5ZM16.1538 2.2L16.644 1.7044L16.4405 1.5H16.1538V2.2ZM20.3077 6.4H21V6.1102L20.7978 5.9044L20.3077 6.4ZM7.84615 12.7H16.1538V11.3H7.84615V12.7ZM13.3846 16.9H16.1538V15.5H13.3846V16.9ZM7.84615 8.5H10.6154V7.1H7.84615V8.5ZM18.9231 21.1H5.07692V22.5H18.9231V21.1ZM4.38462 20.4V3.6H3V20.4H4.38462ZM5.07692 2.9H16.1538V1.5H5.07692V2.9ZM19.6154 6.4V20.4H21V6.4H19.6154ZM15.6637 2.6956L19.8175 6.8956L20.7978 5.9044L16.644 1.7044L15.6637 2.6956ZM5.07692 21.1C4.89331 21.1 4.71722 21.0263 4.58739 20.895C4.45755 20.7637 4.38462 20.5857 4.38462 20.4H3C3 20.957 3.21882 21.4911 3.60832 21.8849C3.99782 22.2788 4.52609 22.5 5.07692 22.5V21.1ZM18.9231 22.5C19.4739 22.5 20.0022 22.2788 20.3917 21.8849C20.7812 21.4911 21 20.957 21 20.4H19.6154C19.6154 20.5857 19.5424 20.7637 19.4126 20.895C19.2828 21.0263 19.1067 21.1 18.9231 21.1V22.5ZM4.38462 3.6C4.38462 3.41435 4.45755 3.2363 4.58739 3.10503C4.71722 2.97375 4.89331 2.9 5.07692 2.9V1.5C4.52609 1.5 3.99782 1.72125 3.60832 2.11508C3.21882 2.5089 3 3.04305 3 3.6H4.38462Z" fill="#7A7A7A"/>
</svg>
