<svg width="24" height="25" viewBox="0 0 24 25" fill="none" xmlns="http://www.w3.org/2000/svg">
<path d="M12.75 16.25H7.5V11H12.75V16.25ZM9 14.75H11.25V12.5H9V14.75ZM12.75 23H7.5V17.75H12.75V23ZM9 21.5H11.25V19.25H9V21.5ZM19.5 16.25H14.25V11H19.5V16.25ZM15.75 14.75H18V12.5H15.75V14.75ZM19.5 23H14.25V17.75H19.5V23ZM15.75 21.5H18V19.25H15.75V21.5Z" fill="#7A7A7A"/>
<path d="M6 21.5H3C2.6023 21.4996 2.221 21.3414 1.93978 21.0602C1.65856 20.779 1.5004 20.3977 1.5 20V5C1.5004 4.6023 1.65856 4.221 1.93978 3.93978C2.221 3.65856 2.6023 3.5004 3 3.5H8.6895C8.88655 3.49951 9.08173 3.5381 9.26377 3.61354C9.4458 3.68898 9.61107 3.79977 9.75 3.9395L12.3105 6.5H21C21.3977 6.5004 21.779 6.65856 22.0602 6.93978C22.3414 7.221 22.4996 7.6023 22.5 8V14H21V8H11.6895L8.6895 5H3V20H6V21.5Z" fill="#7A7A7A"/>
</svg>
