<svg width="40" height="48" viewBox="0 0 40 48" fill="none" xmlns="http://www.w3.org/2000/svg">
<path d="M14.6439 13.7761C15.3738 12.7413 16.9083 12.7413 17.6383 13.7761L18.4554 13.1996L17.6383 13.7761C18.5613 15.0844 20.2005 15.681 21.7486 15.2721C22.9729 14.9486 24.1484 15.935 24.0425 17.1969C23.9086 18.7925 24.7807 20.3031 26.2295 20.9849C27.3753 21.5241 27.6418 23.0353 26.7495 23.9339C25.6213 25.0701 25.3184 26.788 25.9899 28.2415C26.5211 29.3911 25.7538 30.72 24.4927 30.8348C22.8981 30.98 21.5619 32.1012 21.142 33.6464C20.8099 34.8684 19.368 35.3932 18.3281 34.6705C17.0133 33.7568 15.2689 33.7568 13.954 34.6705C12.9142 35.3932 11.4722 34.8684 11.1402 33.6464C10.7203 32.1012 9.38406 30.98 7.78945 30.8348C6.52835 30.72 5.76111 29.3911 6.29223 28.2415C6.96381 26.788 6.6609 25.0701 5.53268 23.9339C4.64042 23.0353 4.90688 21.5241 6.05266 20.9849C7.50144 20.3031 8.37363 18.7925 8.2397 17.1969C8.13378 15.935 9.30926 14.9486 10.5336 15.2721C12.0817 15.681 13.7208 15.0844 14.6439 13.7761Z" stroke="#6F10C0" stroke-width="2"/>
<path d="M11 26L13 28L20 21" stroke="#6F10C0" stroke-width="2" stroke-linecap="round"/>
</svg>
