<svg width="18" height="18" viewBox="0 0 18 18" fill="none" xmlns="http://www.w3.org/2000/svg">
<path d="M17 4H9.309C9.21622 4 9.12527 3.97418 9.04633 3.92544C8.96739 3.87669 8.90357 3.80695 8.862 3.724L7.276 0.553C7.19301 0.386919 7.06542 0.247222 6.90753 0.149552C6.74963 0.0518831 6.56766 9.91486e-05 6.382 0H1C0.734784 0 0.48043 0.105357 0.292893 0.292893C0.105357 0.48043 0 0.734784 0 1V17C0 17.2652 0.105357 17.5196 0.292893 17.7071C0.48043 17.8946 0.734784 18 1 18H17C17.2652 18 17.5196 17.8946 17.7071 17.7071C17.8946 17.5196 18 17.2652 18 17V5C18 4.73478 17.8946 4.48043 17.7071 4.29289C17.5196 4.10536 17.2652 4 17 4Z" fill="#9BA4B4"/>
</svg>
