<svg width="24" height="24" viewBox="0 0 24 24" fill="none" xmlns="http://www.w3.org/2000/svg">
<rect width="24" height="24" rx="4" fill="#E3E3E3" fill-opacity="0.890196"/>
<path d="M10.6062 9.31864V16.0616C10.614 16.5547 10.8154 17.0249 11.1668 17.3709C11.5183 17.7168 11.9916 17.9107 12.4848 17.9107C12.9779 17.9107 13.4513 17.7168 13.8027 17.3709C14.1542 17.0249 14.3555 16.5547 14.3633 16.0616L14.3694 7.22332C14.3745 6.80188 14.2959 6.38362 14.1382 5.99278C13.9804 5.60194 13.7467 5.2463 13.4505 4.94648C13.1542 4.64665 12.8015 4.4086 12.4126 4.24613C12.0237 4.08366 11.6064 4 11.1849 4C10.7635 4 10.3462 4.08366 9.95728 4.24613C9.56838 4.4086 9.2156 4.64665 8.91939 4.94648C8.62318 5.2463 8.38943 5.60194 8.23169 5.99278C8.07395 6.38362 7.99536 6.80188 8.00047 7.22332V16.1211C7.99188 16.7145 8.10133 17.3036 8.32244 17.8542C8.54356 18.4049 8.87193 18.9061 9.28847 19.3287C9.70501 19.7513 10.2014 20.0869 10.7488 20.3159C11.2962 20.545 11.8836 20.663 12.477 20.663C13.0704 20.663 13.6579 20.545 14.2053 20.3159C14.7527 20.0869 15.2491 19.7513 15.6656 19.3287C16.0821 18.9061 16.4105 18.4049 16.6316 17.8542C16.8527 17.3036 16.9622 16.7145 16.9536 16.1211V7.80645" stroke="#9C9C9C" stroke-miterlimit="10" stroke-linecap="round"/>
</svg>
