<svg width="40" height="48" viewBox="0 0 40 48" fill="none" xmlns="http://www.w3.org/2000/svg">
<path fill-rule="evenodd" clip-rule="evenodd" d="M4.85714 36H28V34.2857H5.71429V12H4V35.1429L4.85714 36ZM7.42857 31.7143V18L8.28571 17.1429H11.7143L12.5714 18V31.7143L11.7143 32.5714H8.28571L7.42857 31.7143ZM10.8571 30.8571V18.8571H9.14286V30.8571H10.8571ZM21.1429 14.5714V31.7143L22 32.5714H25.4286L26.2857 31.7143V14.5714L25.4286 13.7143H22L21.1429 14.5714ZM24.5714 15.4286V30.8571H22.8571V15.4286H24.5714ZM14.2857 31.7143V21.4286L15.1429 20.5714H18.5714L19.4286 21.4286V31.7143L18.5714 32.5714H15.1429L14.2857 31.7143ZM17.7143 30.8571V22.2857H16V30.8571H17.7143Z" fill="#6F10C0"/>
</svg>
