<svg width="25" height="24" viewBox="0 0 25 24" fill="none" xmlns="http://www.w3.org/2000/svg">
<path fill-rule="evenodd" clip-rule="evenodd" d="M9.10288 3.79876C9.92705 2.85093 11.1433 2.25 12.5 2.25C13.8566 2.25 15.0728 2.85087 15.897 3.79861C17.1501 3.71106 18.4352 4.14616 19.3946 5.10557C20.354 6.06498 20.7891 7.35009 20.7016 8.60319C21.6492 9.42735 22.25 10.6435 22.25 12C22.25 13.3568 21.649 14.5731 20.7011 15.3973C20.7884 16.6502 20.3533 17.935 19.3941 18.8943C18.4348 19.8535 17.15 20.2886 15.8971 20.2013C15.0729 21.1491 13.8567 21.75 12.5 21.75C11.1434 21.75 9.9272 21.1491 9.10304 20.2014C7.84992 20.289 6.5648 19.8539 5.60537 18.8945C4.64596 17.935 4.21086 16.6499 4.29841 15.3968C3.35079 14.5726 2.75 13.3565 2.75 12C2.75 10.6434 3.35085 9.42723 4.29855 8.60306C4.2111 7.35005 4.64621 6.06507 5.60554 5.10574C6.56488 4.1464 7.84987 3.71129 9.10288 3.79876ZM16.1103 10.1859C16.3511 9.84887 16.273 9.38046 15.9359 9.1397C15.5989 8.89894 15.1305 8.97701 14.8897 9.31407L11.6543 13.8436L10.0303 12.2197C9.73744 11.9268 9.26256 11.9268 8.96967 12.2197C8.67678 12.5126 8.67678 12.9874 8.96967 13.2803L11.2197 15.5303C11.3756 15.6862 11.5921 15.7656 11.8119 15.7474C12.0316 15.7293 12.2322 15.6153 12.3603 15.4359L16.1103 10.1859Z" fill="#1DA522"/>
</svg>
