<svg width="21" height="21" viewBox="0 0 21 21" fill="none" xmlns="http://www.w3.org/2000/svg">
<path d="M10.5 0C13.2848 0 15.9555 1.10625 17.9246 3.07538C19.8938 5.04451 21 7.71523 21 10.5C21 13.2848 19.8938 15.9555 17.9246 17.9246C15.9555 19.8938 13.2848 21 10.5 21C7.71523 21 5.04451 19.8938 3.07538 17.9246C1.10625 15.9555 0 13.2848 0 10.5C0 7.71523 1.10625 5.04451 3.07538 3.07538C5.04451 1.10625 7.71523 0 10.5 0ZM9.192 12.5715L6.8595 10.2375C6.77588 10.1539 6.67661 10.0876 6.56736 10.0423C6.4581 9.99704 6.34101 9.97375 6.22275 9.97375C6.10449 9.97375 5.9874 9.99704 5.87814 10.0423C5.76889 10.0876 5.66962 10.1539 5.586 10.2375C5.41712 10.4064 5.32225 10.6354 5.32225 10.8743C5.32225 11.1131 5.41712 11.3421 5.586 11.511L8.556 14.481C8.63938 14.565 8.73858 14.6317 8.84786 14.6773C8.95715 14.7228 9.07436 14.7462 9.19275 14.7462C9.31114 14.7462 9.42835 14.7228 9.53764 14.6773C9.64692 14.6317 9.74612 14.565 9.8295 14.481L15.9795 8.3295C16.0642 8.24623 16.1316 8.147 16.1778 8.03755C16.224 7.92809 16.2481 7.81057 16.2487 7.69177C16.2492 7.57297 16.2262 7.45523 16.1811 7.34535C16.1359 7.23547 16.0694 7.13562 15.9854 7.05156C15.9015 6.96751 15.8017 6.9009 15.6919 6.8556C15.5821 6.81029 15.4644 6.78718 15.3455 6.78759C15.2267 6.788 15.1092 6.81193 14.9997 6.858C14.8902 6.90407 14.7909 6.97136 14.7075 7.056L9.192 12.5715Z" fill="#00AB55"/>
</svg>
