<svg width="24" height="25" viewBox="0 0 24 25" fill="none" xmlns="http://www.w3.org/2000/svg">
<g id="solar:hourglass-bold-duotone">
<path id="Vector" fill-rule="evenodd" clip-rule="evenodd" d="M11.9999 2.5C7.8669 2.5 5.7999 2.5 5.1979 3.8C5.14616 3.912 5.10271 4.02764 5.0679 4.146C4.6579 5.533 6.1199 7.141 9.0419 10.356L10.9999 12.5H12.9999L14.9579 10.357C17.8799 7.141 19.3409 5.533 18.9319 4.147C18.8972 4.02794 18.8538 3.91163 18.8019 3.799C18.1999 2.5 16.1329 2.5 11.9999 2.5Z" fill="#FDB447"/>
<path id="Vector_2" opacity="0.5" d="M5.19812 21.2C5.80012 22.5 7.86712 22.5 12.0001 22.5C16.1331 22.5 18.2001 22.5 18.8021 21.2C18.8539 21.088 18.8974 20.9724 18.9321 20.854C19.3421 19.467 17.8801 17.859 14.9581 14.644L13.0001 12.5H11.0001L9.04212 14.643C6.12012 17.859 4.65912 19.467 5.06812 20.853C5.10312 20.973 5.14612 21.088 5.19812 21.2Z" fill="#FDB447"/>
</g>
</svg>
