<?xml version="1.0" encoding="UTF-8"?>
<svg xmlns="http://www.w3.org/2000/svg" xmlns:xlink="http://www.w3.org/1999/xlink" width="24px" height="24px" viewBox="0 0 24 24" version="1.1">
<g id="surface1">
<path style="fill:none;stroke-width:1;stroke-linecap:round;stroke-linejoin:round;stroke:rgb(55.686275%,15.294118%,84.313725%);stroke-opacity:1;stroke-miterlimit:4;" d="M 4.000001 9.000002 L 4.000001 18.000005 C 4.000001 19.105474 4.894532 20.000005 6.000002 20.000005 L 9.000002 20.000005 M 4.000001 9.000002 L 4.000001 6.000002 C 4.000001 4.894532 4.894532 4.000001 6.000002 4.000001 L 18.000005 4.000001 C 19.105474 4.000001 20.000005 4.894532 20.000005 6.000002 L 20.000005 9.000002 M 4.000001 9.000002 L 9.000002 9.000002 M 20.000005 9.000002 L 9.000002 9.000002 M 20.000005 9.000002 L 20.000005 14.500004 M 9.000002 9.000002 L 9.000002 14.500004 M 9.000002 20.000005 L 18.000005 20.000005 C 19.105474 20.000005 20.000005 19.105474 20.000005 18.000005 L 20.000005 14.500004 M 9.000002 20.000005 L 9.000002 14.500004 M 9.000002 14.500004 L 20.000005 14.500004 " transform="matrix(1,0,0,1,0,0)"/>
</g>
</svg>
