<svg width="20" height="20" viewBox="0 0 20 20" fill="none" xmlns="http://www.w3.org/2000/svg">
<path d="M1 5.15385H19M6.53846 5.15385V19M19 12.0769H6.53846M17.6154 1H2.38462C2.01739 1 1.66521 1.14588 1.40554 1.40554C1.14588 1.66521 1 2.01739 1 2.38462V17.6154C1 17.9826 1.14588 18.3348 1.40554 18.5945C1.66521 18.8541 2.01739 19 2.38462 19H17.6154C17.9826 19 18.3348 18.8541 18.5945 18.5945C18.8541 18.3348 19 17.9826 19 17.6154V2.38462C19 2.01739 18.8541 1.66521 18.5945 1.40554C18.3348 1.14588 17.9826 1 17.6154 1Z" stroke="#6F10C0" stroke-width="2" stroke-linecap="round" stroke-linejoin="round"/>
</svg>
