<svg width="24" height="24" viewBox="0 0 24 24" fill="none" xmlns="http://www.w3.org/2000/svg">
<g clip-path="url(#clip0_1225_68359)">
<path d="M3.44875 19.4687C2.75215 19.6698 2 19.1804 2 18.4553V5.61015C2 5.21613 2.22998 4.85494 2.59838 4.71519C3.84315 4.24297 5.16508 4 6.5 4C7.83492 4 9.15685 4.24297 10.4016 4.71519C10.77 4.85494 11 5.21613 11 5.61015V18.4553C11 19.1804 10.2479 19.6698 9.55125 19.4687C8.5619 19.183 7.53485 19.037 6.5 19.037C5.46515 19.037 4.4381 19.183 3.44875 19.4687Z" fill="#454F5B"/>
<path d="M13.5984 4.71519C13.23 4.85494 13 5.21613 13 5.61015V18.4553C13 19.1804 13.7521 19.6698 14.4488 19.4687C15.4381 19.183 16.4651 19.037 17.5 19.037C18.5349 19.037 19.5619 19.183 20.5512 19.4687C21.2479 19.6698 22 19.1804 22 18.4553V5.61015C22 5.21613 21.77 4.85494 21.4016 4.71519C20.1568 4.24297 18.8349 4 17.5 4C16.1651 4 14.8432 4.24297 13.5984 4.71519Z" fill="#919EAB"/>
</g>
<defs>
<clipPath id="clip0_1225_68359">
<rect width="24" height="24" fill="white"/>
</clipPath>
</defs>
</svg>
