<svg width="13" height="16" viewBox="0 0 13 16" fill="none" xmlns="http://www.w3.org/2000/svg">
<path d="M6.26223 16C4.46527 15.4662 2.97217 14.3775 1.78295 12.7338C0.594316 11.0895 0 9.23739 0 7.17741V2.33939L6.26223 0L12.5245 2.33939V7.17741C12.5245 9.23739 11.9301 11.0892 10.7415 12.7329C9.55229 14.3772 8.05919 15.4662 6.26223 16ZM6.26223 15.0499C7.70851 14.6026 8.91622 13.7194 9.88538 12.4001C10.8545 11.0809 11.4211 9.60835 11.5851 7.98256H6.26223V0.954543L0.894604 2.95041V7.56299C0.894604 7.67869 0.909515 7.81854 0.939335 7.98256H6.26223V15.0499Z" fill="#6F10C0"/>
</svg>
