<svg width="20" height="20" viewBox="0 0 20 20" fill="none" xmlns="http://www.w3.org/2000/svg">
<path d="M18.6292 8.85838C18.5888 8.78697 18.5346 8.72424 18.4699 8.67377C18.4051 8.62329 18.3311 8.58606 18.252 8.5642C18.1728 8.54234 18.0902 8.53628 18.0087 8.54636C17.9273 8.55644 17.8486 8.58247 17.7772 8.62296C17.7058 8.66345 17.643 8.71761 17.5926 8.78235C17.5421 8.84708 17.5048 8.92112 17.483 9.00025C17.4611 9.07937 17.4551 9.16203 17.4651 9.24349C17.4752 9.32496 17.5013 9.40364 17.5417 9.47505L18.6292 8.85838ZM15.0051 6.69171C15.1229 6.80562 15.2808 6.86869 15.4446 6.86734C15.6085 6.866 15.7653 6.80034 15.8812 6.68451C15.9972 6.56869 16.063 6.41196 16.0645 6.24809C16.066 6.08422 16.003 5.92631 15.8892 5.80838L15.0051 6.69171ZM7.72425 15.75L4.29258 12.3167L3.41008 13.2L6.84008 16.6334L7.72425 15.75ZM14.4184 11.9109L12.8217 12.5109L13.2609 13.6817L14.8592 13.0817L14.4184 11.9109ZM7.53008 7.20005L8.10925 5.62088L6.93592 5.19005L6.35675 6.77005L7.53008 7.20005ZM5.03675 9.49671C5.63008 9.33338 6.08092 9.21838 6.45008 8.95338L5.72008 7.93838C5.57592 8.04255 5.38842 8.10338 4.70508 8.29171L5.03675 9.49671ZM6.35675 6.77005C6.11258 7.43671 6.03592 7.61838 5.92092 7.75338L6.87258 8.56421C7.16675 8.21838 7.31758 7.77755 7.53008 7.20005L6.35675 6.77005ZM6.45008 8.95338C6.60592 8.84088 6.74758 8.71005 6.87258 8.56421L5.92092 7.75338C5.86164 7.82288 5.79421 7.88499 5.72008 7.93838L6.45008 8.95338ZM12.8217 12.5109C12.2476 12.7275 11.8101 12.8809 11.4667 13.1775L12.2851 14.1242C12.4184 14.0075 12.5992 13.9292 13.2617 13.6809L12.8217 12.5109ZM11.7534 15.3334C11.9409 14.6509 12.0017 14.4642 12.1051 14.32L11.0901 13.5909C10.8251 13.96 10.7109 14.4109 10.5484 15.0025L11.7534 15.3334ZM11.4667 13.1784C11.3251 13.3 11.1984 13.4392 11.0901 13.5909L12.1051 14.32C12.1576 14.2475 12.2176 14.1817 12.2851 14.1242L11.4667 13.1784ZM4.29342 12.315C3.75508 11.7759 3.39008 11.4092 3.15342 11.1117C2.91508 10.8125 2.89092 10.6834 2.89092 10.6259L1.64092 10.6334C1.64342 11.1184 1.88425 11.525 2.17508 11.89C2.46675 12.2567 2.89258 12.6817 3.40925 13.1984L4.29342 12.315ZM4.70508 8.29171C4.00092 8.48671 3.42008 8.64505 2.98592 8.82005C2.55258 8.99338 2.14258 9.22838 1.90092 9.64838L2.98425 10.2717C3.01258 10.2217 3.09758 10.1217 3.45092 9.98005C3.80425 9.83838 4.30258 9.69921 5.03675 9.49671L4.70508 8.29171ZM2.89092 10.625C2.88994 10.5012 2.92186 10.3792 2.98342 10.2717L1.90092 9.64838C1.72879 9.94796 1.63852 10.2879 1.64092 10.6334L2.89092 10.625ZM6.84008 16.6334C7.36008 17.1534 7.78758 17.5825 8.15592 17.875C8.52258 18.1684 8.93175 18.41 9.42008 18.4109L9.42175 17.1609C9.36425 17.1609 9.23508 17.1367 8.93425 16.8975C8.63425 16.6592 8.26592 16.2925 7.72425 15.75L6.84008 16.6334ZM10.5484 15.0025C10.3442 15.7425 10.2051 16.2434 10.0626 16.5992C9.91925 16.9559 9.81842 17.0409 9.76842 17.0692L10.3876 18.155C10.8126 17.9134 11.0476 17.5 11.2226 17.0642C11.3976 16.6275 11.5576 16.0434 11.7534 15.3334L10.5484 15.0025ZM9.42008 18.4109C9.75925 18.4109 10.0926 18.3234 10.3876 18.155L9.76842 17.0692C9.66285 17.1295 9.54333 17.1611 9.42175 17.1609L9.42008 18.4109ZM14.8592 13.08C15.9934 12.6542 16.9117 12.3109 17.5642 11.9484C18.2267 11.5817 18.7568 11.1184 18.9151 10.3859L17.6934 10.1217C17.6484 10.33 17.5001 10.555 16.9576 10.855C16.4051 11.1625 15.5926 11.4692 14.4192 11.91L14.8592 13.08ZM13.7667 3.68338C12.9034 2.81921 12.2067 2.12005 11.6042 1.67171C10.9926 1.21838 10.3476 0.924213 9.61258 1.08671L9.88258 2.30671C10.0909 2.26088 10.3567 2.30255 10.8592 2.67588C11.3692 3.05505 11.9901 3.67338 12.8826 4.56755L13.7667 3.68338ZM8.10925 5.62088C8.54425 4.43505 8.84675 3.61171 9.15092 3.05338C9.45092 2.50338 9.67425 2.35338 9.88258 2.30671L9.61342 1.08671C8.87842 1.24838 8.41758 1.78671 8.05342 2.45505C7.69425 3.11505 7.35592 4.04338 6.93592 5.19005L8.10925 5.62088ZM17.5426 9.47505C17.7092 9.77088 17.7292 9.95838 17.6934 10.1217L18.9151 10.3859C19.0334 9.83838 18.9001 9.33588 18.6292 8.85838L17.5426 9.47505ZM12.8826 4.56755L15.0051 6.69171L15.8892 5.80838L13.7667 3.68338L12.8826 4.56755Z" fill="#9C9C9C"/>
<path d="M1.22512 17.8917C1.11472 18.0101 1.05461 18.1669 1.05747 18.3288C1.06033 18.4907 1.12592 18.6452 1.24043 18.7597C1.35494 18.8742 1.50943 18.9398 1.67135 18.9426C1.83326 18.9455 1.98997 18.8854 2.10845 18.775L1.22512 17.8917ZM5.98678 14.8933C6.10058 14.7754 6.1635 14.6175 6.162 14.4536C6.1605 14.2898 6.09469 14.133 5.97876 14.0172C5.86282 13.9014 5.70603 13.8357 5.54216 13.8344C5.37829 13.833 5.22044 13.8961 5.10262 14.01L5.98678 14.8933ZM2.10845 18.775L5.98678 14.8933L5.10262 14.01L1.22345 17.8917L2.10845 18.775Z" fill="#9C9C9C"/>
</svg>
