
<svg width="48" height="48" viewBox="0 0 48 48" fill="none" xmlns="http://www.w3.org/2000/svg">
<path d="M26.3999 9.60001V16C26.3999 16.4244 26.5685 16.8313 26.8685 17.1314C27.1686 17.4314 27.5756 17.6 27.9999 17.6H34.3999" stroke="#6F0FBF" stroke-width="2.66667" stroke-linecap="round" stroke-linejoin="round"/>
<path d="M12 24V12.8C12 11.9513 12.3371 11.1374 12.9373 10.5373C13.5374 9.93715 14.3513 9.60001 15.2 9.60001H26.4L34.4 17.6V24M36 31.2C36 30.5635 35.7471 29.953 35.2971 29.5029C34.847 29.0529 34.2365 28.8 33.6 28.8C32.9635 28.8 32.353 29.0529 31.9029 29.5029C31.4529 29.953 31.2 30.5635 31.2 31.2V36C31.2 36.6365 31.4529 37.247 31.9029 37.6971C32.353 38.1471 32.9635 38.4 33.6 38.4C34.2365 38.4 34.847 38.1471 35.2971 37.6971C35.7471 37.247 36 36.6365 36 36M12 28.8V38.4H13.6C14.4487 38.4 15.2626 38.0629 15.8627 37.4627C16.4629 36.8626 16.8 36.0487 16.8 35.2V32C16.8 31.1513 16.4629 30.3374 15.8627 29.7373C15.2626 29.1371 14.4487 28.8 13.6 28.8H12ZM24 28.8C24.6365 28.8 25.247 29.0529 25.6971 29.5029C26.1471 29.953 26.4 30.5635 26.4 31.2V36C26.4 36.6365 26.1471 37.247 25.6971 37.6971C25.247 38.1471 24.6365 38.4 24 38.4C23.3635 38.4 22.753 38.1471 22.3029 37.6971C21.8529 37.247 21.6 36.6365 21.6 36V31.2C21.6 30.5635 21.8529 29.953 22.3029 29.5029C22.753 29.0529 23.3635 28.8 24 28.8Z" stroke="#6F0FBF" stroke-width="2.66667" stroke-linecap="round" stroke-linejoin="round"/>
</svg>
