
<svg width="48" height="48" viewBox="0 0 48 48" fill="none" xmlns="http://www.w3.org/2000/svg">
<path d="M22.6439 13.7761C23.3738 12.7413 24.9083 12.7413 25.6383 13.7761L26.4554 13.1996L25.6383 13.7761C26.5613 15.0844 28.2005 15.681 29.7486 15.2721C30.9729 14.9486 32.1484 15.935 32.0425 17.1969C31.9086 18.7925 32.7807 20.3031 34.2295 20.9849C35.3753 21.5241 35.6418 23.0353 34.7495 23.9339C33.6213 25.0701 33.3184 26.788 33.9899 28.2415C34.5211 29.3911 33.7538 30.72 32.4927 30.8348C30.8981 30.98 29.5619 32.1012 29.142 33.6464C28.8099 34.8684 27.368 35.3932 26.3281 34.6705C25.0133 33.7568 23.2689 33.7568 21.954 34.6705C20.9142 35.3932 19.4722 34.8684 19.1402 33.6464C18.7203 32.1012 17.3841 30.98 15.7895 30.8348C14.5284 30.72 13.7611 29.3911 14.2922 28.2415C14.9638 26.788 14.6609 25.0701 13.5327 23.9339C12.6404 23.0353 12.9069 21.5241 14.0527 20.9849C15.5014 20.3031 16.3736 18.7925 16.2397 17.1969C16.1338 15.935 17.3093 14.9486 18.5336 15.2721C20.0817 15.681 21.7208 15.0844 22.6439 13.7761Z" stroke="#6F10C0" stroke-width="2"/>
<path d="M19 26L21 28L28 21" stroke="#6F10C0" stroke-width="2" stroke-linecap="round"/>
</svg>
