<svg width="48" height="48" viewBox="0 0 48 48" fill="none" xmlns="http://www.w3.org/2000/svg">
<path fill-rule="evenodd" clip-rule="evenodd" d="M12.8571 36H36V34.2857H13.7143V12H12V35.1429L12.8571 36ZM15.4286 31.7143V18L16.2857 17.1429H19.7143L20.5714 18V31.7143L19.7143 32.5714H16.2857L15.4286 31.7143ZM18.8571 30.8571V18.8571H17.1429V30.8571H18.8571ZM29.1429 14.5714V31.7143L30 32.5714H33.4286L34.2857 31.7143V14.5714L33.4286 13.7143H30L29.1429 14.5714ZM32.5714 15.4286V30.8571H30.8571V15.4286H32.5714ZM22.2857 31.7143V21.4286L23.1429 20.5714H26.5714L27.4286 21.4286V31.7143L26.5714 32.5714H23.1429L22.2857 31.7143ZM25.7143 30.8571V22.2857H24V30.8571H25.7143Z" fill="#6F10C0"/>
</svg>
