
<svg width="48" height="48" viewBox="0 0 48 48" fill="none" xmlns="http://www.w3.org/2000/svg">
<path d="M36 36L31.2634 31.2634M23.28 34.56C26.2716 34.56 29.1408 33.3716 31.2562 31.2562C33.3716 29.1408 34.56 26.2716 34.56 23.28C34.56 20.2884 33.3716 17.4192 31.2562 15.3038C29.1408 13.1884 26.2716 12 23.28 12C20.2884 12 17.4192 13.1884 15.3038 15.3038C13.1884 17.4192 12 20.2884 12 23.28C12 26.2716 13.1884 29.1408 15.3038 31.2562C17.4192 33.3716 20.2884 34.56 23.28 34.56Z" stroke="#6F10C0" stroke-width="2" stroke-linecap="round" stroke-linejoin="round"/>
<path d="M21.1203 19.2002L17.2803 23.0402L21.1203 26.8802M24.9603 19.2002L28.8003 23.0402L24.9603 26.8802" stroke="#6F10C0" stroke-width="2" stroke-linecap="round" stroke-linejoin="round"/>
</svg>
