
<svg width="48" height="48" viewBox="0 0 48 48" fill="none" xmlns="http://www.w3.org/2000/svg">
<path fill-rule="evenodd" clip-rule="evenodd" d="M38 17V36C38 37.0609 37.5786 38.0783 36.8284 38.8284C36.0783 39.5786 35.0609 40 34 40H32V38H34C34.5304 38 35.0391 37.7893 35.4142 37.4142C35.7893 37.0391 36 36.5304 36 36V17H32C31.2044 17 30.4413 16.6839 29.8787 16.1213C29.3161 15.5587 29 14.7956 29 14V10H18C17.4696 10 16.9609 10.2107 16.5858 10.5858C16.2107 10.9609 16 11.4696 16 12V30H14V12C14 10.9391 14.4214 9.92172 15.1716 9.17157C15.9217 8.42143 16.9391 8 18 8H29L38 17ZM13.2 31.7H10V39.698H11.582V37.014H13.188C13.7613 37.014 14.2493 36.8987 14.652 36.668C15.0587 36.4347 15.3673 36.1187 15.578 35.72C15.7976 35.303 15.9083 34.8372 15.9 34.366C15.9 33.866 15.7947 33.4147 15.584 33.012C15.373 32.6139 15.0541 32.2833 14.664 32.058C14.264 31.818 13.776 31.6987 13.2 31.7ZM14.29 34.366C14.2968 34.6295 14.2384 34.8905 14.12 35.126C14.0138 35.3312 13.8478 35.4993 13.644 35.608C13.411 35.7227 13.1536 35.779 12.894 35.772H11.576V32.96H12.896C13.332 32.96 13.6733 33.0807 13.92 33.322C14.1667 33.566 14.29 33.914 14.29 34.366ZM19.924 31.7H16.724V39.698H18.306V37.014H19.912C20.4853 37.014 20.9733 36.8987 21.376 36.668C21.7827 36.4347 22.0913 36.1187 22.302 35.72C22.518 35.3173 22.6253 34.866 22.624 34.366C22.624 33.866 22.5187 33.4147 22.308 33.012C22.097 32.6139 21.7781 32.2833 21.388 32.058C20.988 31.818 20.5 31.6987 19.924 31.7ZM21.014 34.366C21.0208 34.6295 20.9624 34.8905 20.844 35.126C20.7378 35.3312 20.5718 35.4993 20.368 35.608C20.135 35.7227 19.8776 35.779 19.618 35.772H18.3V32.96H19.62C20.056 32.96 20.3973 33.0807 20.644 33.322C20.8907 33.566 21.014 33.914 21.014 34.366ZM26.548 33.026V39.698H24.96V33.024H22.692V31.7H28.822V33.024L26.548 33.026Z" fill="#6F10C0"/>
</svg>
