
<svg width="48" height="48" viewBox="0 0 48 48" fill="none" xmlns="http://www.w3.org/2000/svg">
<path d="M20.2 18L21.4 15.6V14.4H20.2V12H27.4C27.74 12 28.0252 12.1152 28.2556 12.3456C28.486 12.576 28.6008 12.8608 28.6 13.2V14.4L27.4 16.8H23.8V15.6L21.4 18H20.2ZM19 36V27.78C19 27.56 19.0352 27.3252 19.1056 27.0756C19.176 26.826 19.2608 26.6008 19.36 26.4L23.8 18H27.4C27.68 18.28 27.95 18.6552 28.21 19.1256C28.47 19.596 28.6 20.0208 28.6 20.4V36H19ZM21.4 33.6H26.2V20.4H25.24L21.4 27.72V33.6Z" fill="#6F10C0"/>
</svg>
