
<svg width="48" height="48" viewBox="0 0 48 48" fill="none" xmlns="http://www.w3.org/2000/svg">
<path d="M12.8809 9.33252H14.9285V11.7611H12.8809V9.33252Z" stroke="#6F10C0"/>
<path d="M17.9285 9.33252H19.9761V11.7611H17.9285V9.33252Z" stroke="#6F10C0"/>
<path d="M22.9761 7.98389H25.0237V13.1096H22.9761V7.98389Z" stroke="#6F10C0"/>
<path d="M28.0239 7.4126H30.0715V13.6812H28.0239V7.4126Z" stroke="#6F10C0"/>
<path d="M33.0715 9.90381H35.1192V11.1895H33.0715V9.90381Z" stroke="#6F10C0"/>
<path d="M12.7619 15.9312H35.2381C35.241 15.9312 35.2421 15.9316 35.2425 15.9318L35.2425 15.9318C35.2434 15.9322 35.2449 15.933 35.2465 15.9346C35.2481 15.9363 35.249 15.9378 35.2494 15.9387L35.2494 15.9387C35.2496 15.9391 35.25 15.9401 35.25 15.9431V18.1031C35.25 18.106 35.2496 18.107 35.2494 18.1074L35.2494 18.1075C35.249 18.1083 35.2481 18.1099 35.2465 18.1115C35.2449 18.1131 35.2434 18.114 35.2425 18.1143C35.2421 18.1145 35.2411 18.115 35.2381 18.115H12.7619C12.759 18.115 12.7579 18.1145 12.7575 18.1143L12.7575 18.1143C12.7566 18.114 12.7551 18.1131 12.7535 18.1115C12.7519 18.1099 12.751 18.1083 12.7506 18.1075C12.7505 18.1071 12.75 18.1061 12.75 18.1031V15.9431C12.75 15.9401 12.7504 15.9391 12.7506 15.9387L12.7506 15.9387C12.751 15.9378 12.7519 15.9363 12.7535 15.9346C12.7551 15.933 12.7566 15.9322 12.7575 15.9318L12.7575 15.9318C12.7579 15.9316 12.759 15.9312 12.7619 15.9312Z" stroke="#6F10C0" stroke-width="1.5"/>
<path d="M21.3898 30.9592L14.2191 20.6147H33.7918L26.5991 31.1324C26.4667 31.326 26.3914 31.553 26.3819 31.7874L26.0655 39.6064L21.9565 36.4326L21.6092 31.5821C21.5932 31.3585 21.5174 31.1434 21.3898 30.9592Z" stroke="#6F10C0" stroke-width="1.5"/>
</svg>
