
<svg width="48" height="48" viewBox="0 0 48 48" fill="none" xmlns="http://www.w3.org/2000/svg">
<path d="M25.5 10V16C25.5 16.3978 25.658 16.7794 25.9393 17.0607C26.2206 17.342 26.6022 17.5 27 17.5H33" stroke="#6F10C0" stroke-width="2" stroke-linecap="round" stroke-linejoin="round"/>
<path d="M21.75 37H15C14.2044 37 13.4413 36.6839 12.8787 36.1213C12.3161 35.5587 12 34.7956 12 34V13C12 12.2044 12.3161 11.4413 12.8787 10.8787C13.4413 10.3161 14.2044 10 15 10H25.5L33 17.5V25M25.5 34H36M36 34L31.5 29.5M36 34L31.5 38.5" stroke="#6F10C0" stroke-width="2" stroke-linecap="round" stroke-linejoin="round"/>
</svg>
