
<svg width="48" height="48" viewBox="0 0 48 48" fill="none" xmlns="http://www.w3.org/2000/svg">
<path d="M33.8182 22C32.2364 22 31.3527 23.5709 31.7127 24.7382L27.84 28.6218C27.5127 28.5236 27.0327 28.5236 26.7055 28.6218L23.9236 25.84C24.2945 24.6727 23.4109 23.0909 21.8182 23.0909C20.2364 23.0909 19.3418 24.6618 19.7127 25.84L14.7382 30.8036C13.5709 30.4436 12 31.3273 12 32.9091C12 34.1091 12.9818 35.0909 14.1818 35.0909C15.7636 35.0909 16.6473 33.52 16.2873 32.3527L21.2509 27.3782C21.5782 27.4764 22.0582 27.4764 22.3855 27.3782L25.1673 30.16C24.7964 31.3273 25.68 32.9091 27.2727 32.9091C28.8545 32.9091 29.7491 31.3382 29.3782 30.16L33.2618 26.2873C34.4291 26.6473 36 25.7636 36 24.1818C36 22.9818 35.0182 22 33.8182 22Z" fill="#6F10C0"/>
<path d="M31.7647 20.4706L33.0918 17.5482L36 16.2353L33.0918 14.9224L31.7647 12L30.4659 14.9224L27.5294 16.2353L30.4659 17.5482L31.7647 20.4706ZM15.5294 23.2941L16.2353 20.4706L19.0588 19.7647L16.2353 19.0588L15.5294 16.2353L14.8235 19.0588L12 19.7647L14.8235 20.4706L15.5294 23.2941Z" fill="#6F10C0"/>
</svg>
