<svg width="16" height="16" viewBox="0 0 16 16" fill="none" xmlns="http://www.w3.org/2000/svg">
<path d="M5.19444 3.55556C5.19444 2.81148 5.49003 2.09787 6.01617 1.57173C6.54232 1.04558 7.25592 0.75 8 0.75C8.74408 0.75 9.45768 1.04558 9.98383 1.57173C10.51 2.09787 10.8056 2.81148 10.8056 3.55556C10.8056 4.29964 10.51 5.01324 9.98383 5.53938C9.45768 6.06553 8.74408 6.36111 8 6.36111C7.25592 6.36111 6.54232 6.06553 6.01617 5.53938C5.49003 5.01324 5.19444 4.29964 5.19444 3.55556ZM1.83208 10.721C2.52492 10.0281 3.46462 9.63889 4.44444 9.63889H11.5556C12.5354 9.63889 13.4751 10.0281 14.1679 10.721C14.8608 11.4138 15.25 12.3535 15.25 13.3333C15.25 13.8417 15.0481 14.3292 14.6886 14.6886C14.3292 15.0481 13.8417 15.25 13.3333 15.25H2.66667C2.15833 15.25 1.67082 15.0481 1.31138 14.6886C0.951934 14.3292 0.75 13.8417 0.75 13.3333C0.75 12.3535 1.13923 11.4138 1.83208 10.721Z" stroke="#6F10C0" stroke-width="1.5"/>
</svg>
