<svg width="32" height="32" viewBox="0 0 32 32" fill="none" xmlns="http://www.w3.org/2000/svg">
<path d="M21.9665 7.21068L24.7892 10.0333M23.7812 4.72401L16.1452 12.36C15.7506 12.754 15.4815 13.256 15.3718 13.8027L14.6665 17.3333L18.1972 16.6267C18.7438 16.5173 19.2452 16.2493 19.6398 15.8547L27.2758 8.21868C27.5053 7.98922 27.6873 7.7168 27.8115 7.417C27.9357 7.11719 27.9996 6.79586 27.9996 6.47135C27.9996 6.14684 27.9357 5.8255 27.8115 5.5257C27.6873 5.22589 27.5053 4.95348 27.2758 4.72401C27.0464 4.49455 26.774 4.31253 26.4742 4.18835C26.1743 4.06416 25.853 4.00024 25.5285 4.00024C25.204 4.00024 24.8827 4.06416 24.5829 4.18835C24.283 4.31253 24.0106 4.49455 23.7812 4.72401Z" stroke="#7A7A7A" stroke-width="2" stroke-linecap="round" stroke-linejoin="round"/>
<path d="M25.3333 20V24C25.3333 24.7072 25.0523 25.3855 24.5522 25.8856C24.0521 26.3857 23.3738 26.6666 22.6666 26.6666H7.99992C7.29267 26.6666 6.6144 26.3857 6.1143 25.8856C5.6142 25.3855 5.33325 24.7072 5.33325 24V9.33329C5.33325 8.62605 5.6142 7.94777 6.1143 7.44767C6.6144 6.94758 7.29267 6.66663 7.99992 6.66663H11.9999" stroke="#7A7A7A" stroke-width="2" stroke-linecap="round" stroke-linejoin="round"/>
</svg>
