<svg width="14" height="15" viewBox="0 0 14 15" fill="none" xmlns="http://www.w3.org/2000/svg">
<rect x="0.5" y="1" width="13" height="13" rx="6.5" stroke="#F3F3F3"/>
<path d="M5.75 9.49006V9.40909C5.75568 8.88068 5.80824 8.46023 5.90767 8.14773C6.00994 7.83523 6.15483 7.58239 6.34233 7.3892C6.52983 7.19602 6.75568 7.01989 7.01989 6.8608C7.19034 6.75284 7.34375 6.6321 7.48011 6.49858C7.61648 6.36506 7.72443 6.21165 7.80398 6.03835C7.88352 5.86506 7.9233 5.6733 7.9233 5.46307C7.9233 5.21023 7.86364 4.99148 7.74432 4.80682C7.625 4.62216 7.46591 4.48011 7.26705 4.38068C7.07102 4.27841 6.85227 4.22727 6.6108 4.22727C6.39205 4.22727 6.18324 4.27273 5.98438 4.36364C5.78551 4.45455 5.62074 4.59659 5.49006 4.78977C5.35938 4.98011 5.28409 5.22585 5.2642 5.52699H3.96875C3.98864 5.01562 4.1179 4.58381 4.35653 4.23153C4.59517 3.87642 4.91051 3.60795 5.30256 3.42614C5.69744 3.24432 6.13352 3.15341 6.6108 3.15341C7.13352 3.15341 7.59091 3.25142 7.98295 3.44744C8.375 3.64062 8.67898 3.91193 8.89489 4.26136C9.11364 4.60795 9.22301 5.01278 9.22301 5.47585C9.22301 5.79403 9.1733 6.08097 9.07386 6.33665C8.97443 6.58949 8.83239 6.81534 8.64773 7.0142C8.46591 7.21307 8.24716 7.3892 7.99148 7.54261C7.75 7.69318 7.55398 7.84943 7.40341 8.01136C7.25568 8.1733 7.14773 8.36506 7.07955 8.58665C7.01136 8.80824 6.97443 9.08239 6.96875 9.40909V9.49006H5.75ZM6.39347 12.081C6.16051 12.081 5.96023 11.9986 5.79261 11.8338C5.625 11.6662 5.54119 11.4645 5.54119 11.2287C5.54119 10.9957 5.625 10.7969 5.79261 10.6321C5.96023 10.4645 6.16051 10.3807 6.39347 10.3807C6.62358 10.3807 6.82244 10.4645 6.99006 10.6321C7.16051 10.7969 7.24574 10.9957 7.24574 11.2287C7.24574 11.3849 7.20597 11.5284 7.12642 11.6591C7.04972 11.7869 6.94744 11.8892 6.8196 11.9659C6.69176 12.0426 6.54972 12.081 6.39347 12.081Z" fill="#F3F3F3"/>
</svg>
