<svg width="14" height="13" viewBox="0 0 14 13" fill="none" xmlns="http://www.w3.org/2000/svg">
<path d="M7 12.5C10.3137 12.5 13 9.81371 13 6.5C13 3.18629 10.3137 0.5 7 0.5C3.68629 0.5 1 3.18629 1 6.5C1 9.81371 3.68629 12.5 7 12.5Z" stroke="#F3F3F3"/>
<path d="M9 6.5C9 8.232 8.736 9.7824 8.3224 10.8848C8.1152 11.4376 7.8776 11.8576 7.6344 12.132C7.3912 12.4064 7.176 12.5 7 12.5C6.824 12.5 6.608 12.4064 6.3648 12.132C6.1224 11.8576 5.8848 11.4376 5.6768 10.8848C5.264 9.7824 5 8.232 5 6.5C5 4.768 5.264 3.2176 5.6776 2.1152C5.8848 1.5624 6.1224 1.1424 6.3656 0.868C6.6088 0.5936 6.824 0.5 7 0.5C7.176 0.5 7.392 0.5936 7.6352 0.868C7.8776 1.1424 8.1152 1.5624 8.3232 2.1152C8.736 3.2176 9 4.768 9 6.5Z" stroke="#F3F3F3"/>
<path d="M1 6.5H13" stroke="#F3F3F3" stroke-linecap="round"/>
</svg>
