<svg width="32" height="32" viewBox="0 0 32 32" fill="none" xmlns="http://www.w3.org/2000/svg">
<g clip-path="url(#clip0_84_4350)">
<path fill-rule="evenodd" clip-rule="evenodd" d="M18.1147 2.66663C18.7408 2.66678 19.3469 2.8872 19.8267 3.28929L20.0001 3.44796L25.8854 9.33329C26.3281 9.77599 26.6009 10.3603 26.6561 10.984L26.6667 11.2186V26.6666C26.667 27.3394 26.4129 27.9874 25.9554 28.4807C25.498 28.974 24.871 29.2762 24.2001 29.3266L24.0001 29.3333H16.0001V26.6666H24.0001V13.3333H18.0001C17.5029 13.3333 17.0236 13.1481 16.6555 12.8138C16.2875 12.4795 16.0571 12.0202 16.0094 11.5253L16.0001 11.3333V5.33329H8.00008V16H5.33341V5.33329C5.3332 4.66052 5.58729 4.01254 6.04474 3.51923C6.5022 3.02592 7.12921 2.72375 7.80008 2.67329L8.00008 2.66663H18.1147ZM10.2761 19.2866L14.0481 23.0573C14.298 23.3073 14.4385 23.6464 14.4385 24C14.4385 24.3535 14.298 24.6926 14.0481 24.9426L10.2761 28.7133C10.1531 28.8406 10.006 28.9422 9.84329 29.0121C9.68062 29.082 9.50566 29.1188 9.32862 29.1203C9.15158 29.1218 8.976 29.0881 8.81214 29.0211C8.64828 28.954 8.49941 28.855 8.37422 28.7298C8.24903 28.6046 8.15003 28.4558 8.08299 28.2919C8.01594 28.128 7.98221 27.9525 7.98375 27.7754C7.98529 27.5984 8.02207 27.4234 8.09195 27.2608C8.16183 27.0981 8.2634 26.951 8.39075 26.828L9.88542 25.3333H4.00008C3.64646 25.3333 3.30732 25.1928 3.05727 24.9428C2.80722 24.6927 2.66675 24.3536 2.66675 24C2.66675 23.6463 2.80722 23.3072 3.05727 23.0571C3.30732 22.8071 3.64646 22.6666 4.00008 22.6666H9.88542L8.39075 21.172C8.26687 21.0482 8.16858 20.9012 8.10151 20.7394C8.03443 20.5776 7.99987 20.4042 7.99981 20.2291C7.99969 19.8754 8.14007 19.5361 8.39008 19.286C8.64009 19.0358 8.97925 18.8951 9.33294 18.895C9.50808 18.895 9.6815 18.9294 9.84333 18.9964C10.0052 19.0633 10.1522 19.1615 10.2761 19.2853M18.6667 5.88529V10.6666H23.4481L18.6667 5.88529Z" fill="#7A7A7A"/>
</g>
<defs>
<clipPath id="clip0_84_4350">
<rect width="32" height="32" rx="4" fill="white"/>
</clipPath>
</defs>
</svg>
