
<svg width="16" height="15" viewBox="0 0 16 15" fill="none" xmlns="http://www.w3.org/2000/svg">
<g id="Group">
<path id="Vector" d="M8 14.5C11.866 14.5 15 11.366 15 7.5C15 3.63401 11.866 0.5 8 0.5C4.13401 0.5 1 3.63401 1 7.5C1 11.366 4.13401 14.5 8 14.5Z" stroke="#9C9C9C"/>
<path id="Vector_2" d="M10.3334 7.5C10.3334 9.52067 10.0254 11.3295 9.54288 12.6156C9.30115 13.2605 9.02395 13.7505 8.74021 14.0707C8.45648 14.3908 8.20541 14.5 8.00008 14.5C7.79475 14.5 7.54275 14.3908 7.25901 14.0707C6.97621 13.7505 6.69901 13.2605 6.45635 12.6156C5.97475 11.3295 5.66675 9.52067 5.66675 7.5C5.66675 5.47933 5.97475 3.67053 6.45728 2.3844C6.69901 1.73947 6.97621 1.24947 7.25995 0.929333C7.54368 0.6092 7.79475 0.5 8.00008 0.5C8.20541 0.5 8.45741 0.6092 8.74115 0.929333C9.02395 1.24947 9.30115 1.73947 9.54381 2.3844C10.0254 3.67053 10.3334 5.47933 10.3334 7.5Z" stroke="#9C9C9C"/>
<path id="Vector_3" d="M1 7.5H15" stroke="#9C9C9C" stroke-linecap="round"/>
</g>
</svg>
