
<svg width="16" height="17" viewBox="0 0 16 17" fill="none" xmlns="http://www.w3.org/2000/svg">
<g id="Frame 48097318">
<rect x="0.5" y="1" width="15" height="15" rx="7.5" stroke="#9C9C9C"/>
<path id="?" d="M6.625 11.0717V10.9773C6.63163 10.3608 6.69295 9.87026 6.80895 9.50568C6.92827 9.1411 7.0973 8.84612 7.31605 8.62074C7.5348 8.39536 7.7983 8.18987 8.10653 8.00426C8.3054 7.87831 8.48438 7.73745 8.64347 7.58168C8.80256 7.4259 8.9285 7.24692 9.02131 7.04474C9.11411 6.84257 9.16051 6.61884 9.16051 6.37358C9.16051 6.0786 9.09091 5.82339 8.9517 5.60795C8.8125 5.39252 8.62689 5.2268 8.39489 5.1108C8.16619 4.99148 7.91099 4.93182 7.62926 4.93182C7.37405 4.93182 7.13045 4.98485 6.89844 5.09091C6.66643 5.19697 6.4742 5.36269 6.32173 5.58807C6.16927 5.81013 6.08144 6.09683 6.05824 6.44815H4.54688C4.57008 5.85156 4.72088 5.34777 4.99929 4.93679C5.2777 4.52249 5.6456 4.20928 6.10298 3.99716C6.56368 3.78504 7.07244 3.67898 7.62926 3.67898C8.23911 3.67898 8.77273 3.79332 9.23011 4.02202C9.6875 4.2474 10.0421 4.56392 10.294 4.97159C10.5492 5.37595 10.6768 5.84825 10.6768 6.38849C10.6768 6.75971 10.6188 7.09446 10.5028 7.39276C10.3868 7.68774 10.2211 7.95123 10.0057 8.18324C9.79356 8.41525 9.53835 8.62074 9.24006 8.79972C8.95833 8.97538 8.72964 9.15767 8.55398 9.34659C8.38163 9.53551 8.25568 9.75923 8.17614 10.0178C8.09659 10.2763 8.0535 10.5961 8.04688 10.9773V11.0717H6.625ZM7.37571 14.0945C7.10393 14.0945 6.87027 13.9983 6.67472 13.8061C6.47917 13.6106 6.38139 13.3752 6.38139 13.1001C6.38139 12.8284 6.47917 12.5964 6.67472 12.4041C6.87027 12.2086 7.10393 12.1108 7.37571 12.1108C7.64418 12.1108 7.87618 12.2086 8.07173 12.4041C8.2706 12.5964 8.37003 12.8284 8.37003 13.1001C8.37003 13.2824 8.32363 13.4498 8.23082 13.6023C8.14134 13.7514 8.02202 13.8707 7.87287 13.9602C7.72372 14.0497 7.558 14.0945 7.37571 14.0945Z" fill="#9C9C9C"/>
</g>
</svg>
