
<svg width="16" height="15" viewBox="0 0 16 15" fill="none" xmlns="http://www.w3.org/2000/svg">
<rect width="16" height="15" fill="white"/>
<g id="Components">
<path d="M-4438 -727C-4438 -728.105 -4437.1 -729 -4436 -729H2408C2409.1 -729 2410 -728.105 2410 -727V2248C2410 2249.1 2409.1 2250 2408 2250H-4436C-4437.1 2250 -4438 2249.1 -4438 2248V-727Z" fill="#EFEFEF"/>
<path d="M-4436 -728H2408V-730H-4436V-728ZM2409 -727V2248H2411V-727H2409ZM2408 2249H-4436V2251H2408V2249ZM-4437 2248V-727H-4439V2248H-4437ZM-4436 2249C-4436.55 2249 -4437 2248.55 -4437 2248H-4439C-4439 2249.66 -4437.66 2251 -4436 2251V2249ZM2409 2248C2409 2248.55 2408.55 2249 2408 2249V2251C2409.66 2251 2411 2249.66 2411 2248H2409ZM2408 -728C2408.55 -728 2409 -727.552 2409 -727H2411C2411 -728.657 2409.66 -730 2408 -730V-728ZM-4436 -730C-4437.66 -730 -4439 -728.657 -4439 -727H-4437C-4437 -727.552 -4436.55 -728 -4436 -728V-730Z" fill="black" fill-opacity="0.1"/>
<g id="Projects Card">
<rect x="-31.5" y="-462.5" width="395" height="569" rx="4.5" stroke="#9747FF" stroke-dasharray="10 5"/>
<g id="State=State3" filter="url(#filter0_dd_1_3)">
<rect x="-16" y="-153" width="364" height="244" rx="16" fill="#8E27D7" shape-rendering="crispEdges"/>
<g id="Frame 48097325">
<g id="Frame 48097322">
<g id="Frame 6">
<path d="M331 -4V19H333V-4H331Z" fill="#9C9C9C" mask="url(#path-5-inside-1_1_3)"/>
<g id="Frame 4">
<g id="Group 634">
<g id="vuesax/outline/message">
<g id="vuesax/outline/message_2">
<g id="message">
<g id="Vector">
<mask id="path-7-inside-2_1_3" fill="white">
<path d="M7.99992 14.7066C7.53992 14.7066 7.10659 14.4733 6.79992 14.0666L5.79992 12.7333C5.77992 12.7066 5.69992 12.6733 5.66659 12.6666H5.33325C2.55325 12.6666 0.833252 11.9133 0.833252 8.16659V4.83325C0.833252 1.88659 2.38659 0.333252 5.33325 0.333252H10.6666C13.6133 0.333252 15.1666 1.88659 15.1666 4.83325V8.16659C15.1666 11.1133 13.6133 12.6666 10.6666 12.6666H10.3333C10.2799 12.6666 10.2333 12.6933 10.1999 12.7333L9.19992 14.0666C8.89325 14.4733 8.45992 14.7066 7.99992 14.7066ZM5.33325 1.33325C2.94659 1.33325 1.83325 2.44659 1.83325 4.83325V8.16659C1.83325 11.1799 2.86659 11.6666 5.33325 11.6666H5.66659C6.00659 11.6666 6.39325 11.8599 6.59992 12.1333L7.59992 13.4666C7.83325 13.7733 8.16659 13.7733 8.39992 13.4666L9.39992 12.1333C9.61992 11.8399 9.96659 11.6666 10.3333 11.6666H10.6666C13.0533 11.6666 14.1666 10.5533 14.1666 8.16659V4.83325C14.1666 2.44659 13.0533 1.33325 10.6666 1.33325H5.33325Z"/>
</mask>
<path d="M7.99992 14.7066C7.53992 14.7066 7.10659 14.4733 6.79992 14.0666L5.79992 12.7333C5.77992 12.7066 5.69992 12.6733 5.66659 12.6666H5.33325C2.55325 12.6666 0.833252 11.9133 0.833252 8.16659V4.83325C0.833252 1.88659 2.38659 0.333252 5.33325 0.333252H10.6666C13.6133 0.333252 15.1666 1.88659 15.1666 4.83325V8.16659C15.1666 11.1133 13.6133 12.6666 10.6666 12.6666H10.3333C10.2799 12.6666 10.2333 12.6933 10.1999 12.7333L9.19992 14.0666C8.89325 14.4733 8.45992 14.7066 7.99992 14.7066ZM5.33325 1.33325C2.94659 1.33325 1.83325 2.44659 1.83325 4.83325V8.16659C1.83325 11.1799 2.86659 11.6666 5.33325 11.6666H5.66659C6.00659 11.6666 6.39325 11.8599 6.59992 12.1333L7.59992 13.4666C7.83325 13.7733 8.16659 13.7733 8.39992 13.4666L9.39992 12.1333C9.61992 11.8399 9.96659 11.6666 10.3333 11.6666H10.6666C13.0533 11.6666 14.1666 10.5533 14.1666 8.16659V4.83325C14.1666 2.44659 13.0533 1.33325 10.6666 1.33325H5.33325Z" stroke="#FFA500" stroke-width="2" mask="url(#path-7-inside-2_1_3)"/>
</g>
<path id="Vector_2" d="M7.99992 7.50008C7.62659 7.50008 7.33325 7.20008 7.33325 6.83341C7.33325 6.46675 7.63325 6.16675 7.99992 6.16675C8.36659 6.16675 8.66659 6.46675 8.66659 6.83341C8.66659 7.20008 8.37325 7.50008 7.99992 7.50008Z" fill="#FFA500"/>
<path id="Vector_3" d="M10.6667 7.50008C10.2933 7.50008 10 7.20008 10 6.83341C10 6.46675 10.3 6.16675 10.6667 6.16675C11.0333 6.16675 11.3333 6.46675 11.3333 6.83341C11.3333 7.20008 11.04 7.50008 10.6667 7.50008Z" fill="#FFA500"/>
<path id="Vector_4" d="M5.33341 7.50008C4.96008 7.50008 4.66675 7.20008 4.66675 6.83341C4.66675 6.46675 4.96675 6.16675 5.33341 6.16675C5.70008 6.16675 6.00008 6.46675 6.00008 6.83341C6.00008 7.20008 5.70675 7.50008 5.33341 7.50008Z" fill="#FFA500"/>
</g>
</g>
</g>
</g>
</g>
</g>
</g>
</g>
</g>
</g>
</g>
<defs>
<filter id="filter0_dd_1_3" x="-28" y="-161" width="388" height="268" filterUnits="userSpaceOnUse" color-interpolation-filters="sRGB">
<feFlood flood-opacity="0" result="BackgroundImageFix"/>
<feColorMatrix in="SourceAlpha" type="matrix" values="0 0 0 0 0 0 0 0 0 0 0 0 0 0 0 0 0 0 127 0" result="hardAlpha"/>
<feOffset dy="2"/>
<feGaussianBlur stdDeviation="2"/>
<feComposite in2="hardAlpha" operator="out"/>
<feColorMatrix type="matrix" values="0 0 0 0 0.661035 0 0 0 0 0.661035 0 0 0 0 0.661035 0 0 0 0.25 0"/>
<feBlend mode="normal" in2="BackgroundImageFix" result="effect1_dropShadow_1_3"/>
<feColorMatrix in="SourceAlpha" type="matrix" values="0 0 0 0 0 0 0 0 0 0 0 0 0 0 0 0 0 0 127 0" result="hardAlpha"/>
<feOffset dy="4"/>
<feGaussianBlur stdDeviation="6"/>
<feComposite in2="hardAlpha" operator="out"/>
<feColorMatrix type="matrix" values="0 0 0 0 0.868864 0 0 0 0 0.868864 0 0 0 0 0.868864 0 0 0 0.25 0"/>
<feBlend mode="normal" in2="effect1_dropShadow_1_3" result="effect2_dropShadow_1_3"/>
<feBlend mode="normal" in="SourceGraphic" in2="effect2_dropShadow_1_3" result="shape"/>
</filter>
</defs>
</svg>
