<svg width="20" height="20" viewBox="0 0 20 20" fill="none" xmlns="http://www.w3.org/2000/svg">
<path d="M11.187 0C9.92712 0 8.71887 0.495803 7.82801 1.37834C6.93716 2.26087 6.43668 3.45785 6.43668 4.70594C6.43668 5.95404 6.93716 7.15101 7.82801 8.03355C8.71887 8.91608 9.92712 9.41189 11.187 9.41189C12.4468 9.41189 13.6551 8.91608 14.5459 8.03355C15.4368 7.15101 15.9373 5.95404 15.9373 4.70594C15.9373 3.45785 15.4368 2.26087 14.5459 1.37834C13.6551 0.495803 12.4468 0 11.187 0ZM7.62426 4.70594C7.62426 3.76987 7.99961 2.87214 8.66775 2.21024C9.33589 1.54834 10.2421 1.17649 11.187 1.17649C12.1319 1.17649 13.0381 1.54834 13.7062 2.21024C14.3743 2.87214 14.7497 3.76987 14.7497 4.70594C14.7497 5.64201 14.3743 6.53975 13.7062 7.20165C13.0381 7.86355 12.1319 8.2354 11.187 8.2354C10.2421 8.2354 9.33589 7.86355 8.66775 7.20165C7.99961 6.53975 7.62426 5.64201 7.62426 4.70594ZM16.9645 17.4085C15.6926 18.212 14.0502 18.6602 12.2594 18.7861C12.1701 18.5525 12.0316 18.3403 11.8532 18.1638L11.3307 17.6461C13.3317 17.6273 15.0834 17.2002 16.3256 16.4155C17.5726 15.6273 18.3124 14.4825 18.3124 12.9413C18.3124 12.6293 18.1873 12.3301 17.9646 12.1094C17.7419 11.8888 17.4398 11.7649 17.1249 11.7649H9.69539C9.54702 11.3496 9.34674 10.9543 9.09922 10.5884H17.1249C17.7548 10.5884 18.3589 10.8363 18.8043 11.2775C19.2498 11.7188 19.5 12.3173 19.5 12.9413C19.5 14.9308 18.5108 16.4308 16.9645 17.4085ZM4.65532 17.6473C5.58875 17.6473 6.45093 17.3414 7.14448 16.8273L10.1728 19.8273C10.2279 19.882 10.2934 19.9254 10.3654 19.955C10.4375 19.9847 10.5148 19.9999 10.5928 20C10.6708 20.0001 10.7481 19.9849 10.8202 19.9554C10.8923 19.9258 10.9578 19.8825 11.013 19.8279C11.0682 19.7733 11.112 19.7084 11.1419 19.6371C11.1718 19.5657 11.1873 19.4891 11.1873 19.4118C11.1874 19.3346 11.1721 19.258 11.1422 19.1866C11.1124 19.1151 11.0687 19.0502 11.0136 18.9955L7.98528 15.9955C8.54583 15.2529 8.83694 14.3446 8.81149 13.4176C8.78603 12.4907 8.4455 11.5994 7.84502 10.888C7.24454 10.1767 6.41928 9.68697 5.50286 9.49815C4.58644 9.30934 3.63252 9.43249 2.79555 9.84766C1.95857 10.2628 1.28756 10.9457 0.891149 11.7857C0.49474 12.6258 0.396145 13.5738 0.61133 14.4762C0.826515 15.3787 1.34288 16.1827 2.07682 16.7583C2.81075 17.3338 3.71929 17.647 4.65532 17.6473ZM4.65532 16.4708C3.86791 16.4708 3.11275 16.1609 2.55597 15.6093C1.99918 15.0578 1.68639 14.3096 1.68639 13.5296C1.68639 12.7495 1.99918 12.0014 2.55597 11.4498C3.11275 10.8983 0.766083 12.1053 1.55349 12.1053C1.55349 13.1579 1.71121 15.4439 2.268 15.9955C2.82478 16.5471 4.72016 16.5884 4.72016 17.3684C4.72016 18.1485 7.31146 15.0578 6.75468 15.6093C6.19789 16.1609 5.44273 16.4708 4.65532 16.4708Z" fill="#6F10C0"/>
</svg>
