<svg width="22" height="21" viewBox="0 0 22 21" fill="none" xmlns="http://www.w3.org/2000/svg">
<path d="M19.25 15.105V12C19.25 11.6022 19.092 11.2206 18.8107 10.9393C18.5294 10.658 18.1478 10.5 17.75 10.5H11.75V7.5H18.5C18.8978 7.5 19.2794 7.34196 19.5607 7.06066C19.842 6.77936 20 6.39782 20 6V1.5C20 1.10218 19.842 0.720644 19.5607 0.43934C19.2794 0.158035 18.8978 0 18.5 0H3.50001C3.10218 0 2.72065 0.158035 2.43935 0.43934C2.15804 0.720644 2.00001 1.10218 2.00001 1.5V6C2.00001 6.39782 2.15804 6.77936 2.43935 7.06066C2.72065 7.34196 3.10218 7.5 3.50001 7.5H10.25V10.5H4.25001C3.85218 10.5 3.47065 10.658 3.18935 10.9393C2.90804 11.2206 2.75001 11.6022 2.75001 12V15.105C2.04301 15.2875 1.42687 15.7217 1.01706 16.326C0.607247 16.9303 0.431912 17.6634 0.523918 18.3878C0.615924 19.1121 0.968953 19.7781 1.51683 20.2607C2.06471 20.7434 2.76983 21.0097 3.50001 21.0097C4.23019 21.0097 4.9353 20.7434 5.48318 20.2607C6.03106 19.7781 6.38409 19.1121 6.4761 18.3878C6.5681 17.6634 6.39277 16.9303 5.98296 16.326C5.57315 15.7217 4.957 15.2875 4.25001 15.105V12H10.25V15H8.00001V21H14V15H11.75V12H17.75V15.105C17.043 15.2875 16.4269 15.7217 16.0171 16.326C15.6072 16.9303 15.4319 17.6634 15.5239 18.3878C15.6159 19.1121 15.969 19.7781 16.5168 20.2607C17.0647 20.7434 17.7698 21.0097 18.5 21.0097C19.2302 21.0097 19.9353 20.7434 20.4832 20.2607C21.0311 19.7781 21.3841 19.1121 21.4761 18.3878C21.5681 17.6634 21.3928 16.9303 20.983 16.326C20.5732 15.7217 19.957 15.2875 19.25 15.105ZM5.00001 18C5.00001 18.2967 4.91203 18.5867 4.74721 18.8334C4.58239 19.08 4.34812 19.2723 4.07403 19.3858C3.79994 19.4993 3.49834 19.5291 3.20737 19.4712C2.9164 19.4133 2.64913 19.2704 2.43935 19.0607C2.22957 18.8509 2.08671 18.5836 2.02883 18.2926C1.97095 18.0017 2.00066 17.7001 2.11419 17.426C2.22772 17.1519 2.41998 16.9176 2.66665 16.7528C2.91333 16.588 3.20334 16.5 3.50001 16.5C3.89783 16.5 4.27936 16.658 4.56067 16.9393C4.84197 17.2206 5.00001 17.6022 5.00001 18ZM12.5 16.5V19.5H9.50001V16.5H12.5ZM3.50001 6V1.5H18.5V6H3.50001ZM18.5 19.5C18.2033 19.5 17.9133 19.412 17.6667 19.2472C17.42 19.0824 17.2277 18.8481 17.1142 18.574C17.0007 18.2999 16.971 17.9983 17.0288 17.7074C17.0867 17.4164 17.2296 17.1491 17.4393 16.9393C17.6491 16.7296 17.9164 16.5867 18.2074 16.5288C18.4983 16.4709 18.7999 16.5007 19.074 16.6142C19.3481 16.7277 19.5824 16.92 19.7472 17.1666C19.912 17.4133 20 17.7033 20 18C20 18.3978 19.842 18.7794 19.5607 19.0607C19.2794 19.342 18.8978 19.5 18.5 19.5Z" fill="#212121"/>
</svg>
