<svg width="7" height="12" viewBox="0 0 7 12" fill="none" xmlns="http://www.w3.org/2000/svg">
<path id="?" d="M2.94922 8.18499V8.09053C2.95585 7.47405 3.01716 6.98352 3.13317 6.61894C3.25249 6.25436 3.42152 5.95938 3.64027 5.734C3.85902 5.50862 4.12251 5.30313 4.43075 5.11752C4.62962 4.99157 4.80859 4.85071 4.96768 4.69494C5.12678 4.53916 5.25272 4.36018 5.34553 4.158C5.43833 3.95583 5.48473 3.7321 5.48473 3.48684C5.48473 3.19186 5.41513 2.93665 5.27592 2.72121C5.13672 2.50578 4.95111 2.34006 4.71911 2.22405C4.49041 2.10474 4.2352 2.04508 3.95348 2.04508C3.69827 2.04508 3.45466 2.09811 3.22266 2.20417C2.99065 2.31023 2.79841 2.47595 2.64595 2.70133C2.49349 2.92339 2.40566 3.21009 2.38246 3.56141H0.871094C0.894295 2.96482 1.0451 2.46103 1.32351 2.05005C1.60192 1.63575 1.96982 1.32254 2.4272 1.11042C2.8879 0.898297 3.39666 0.792236 3.95348 0.792236C4.56333 0.792236 5.09695 0.906583 5.55433 1.13528C6.01172 1.36066 6.36636 1.67718 6.61825 2.08485C6.87346 2.48921 7.00107 2.96151 7.00107 3.50175C7.00107 3.87297 6.94306 4.20772 6.82706 4.50602C6.71106 4.801 6.54534 5.06449 6.3299 5.2965C6.11778 5.52851 5.86257 5.734 5.56428 5.91298C5.28255 6.08864 5.05386 6.27093 4.8782 6.45985C4.70585 6.64877 4.5799 6.87249 4.50036 7.13101C4.42081 7.38954 4.37772 7.70938 4.37109 8.09053V8.18499H2.94922ZM3.69993 11.2077C3.42815 11.2077 3.19448 11.1116 2.99893 10.9194C2.80339 10.7238 2.70561 10.4885 2.70561 10.2134C2.70561 9.94162 2.80339 9.70961 2.99893 9.51738C3.19448 9.32183 3.42815 9.22405 3.69993 9.22405C3.9684 9.22405 4.2004 9.32183 4.39595 9.51738C4.59482 9.70961 4.69425 9.94162 4.69425 10.2134C4.69425 10.3957 4.64785 10.5631 4.55504 10.7155C4.46555 10.8647 4.34624 10.984 4.19709 11.0735C4.04794 11.163 3.88222 11.2077 3.69993 11.2077Z" fill="black"/>
</svg>
