<svg width="24" height="24" viewBox="0 0 24 24" fill="#8E27D7" xmlns="http://www.w3.org/2000/svg">
<path fill-rule="evenodd" clip-rule="evenodd" d="M13 20.126H20C20 15.9854 16.9463 12.5688 13 12.0693V20.126ZM13 10.8637C14.7252 10.413 16 8.82351 16 6.93184C16 5.04016 14.7252 3.45067 13 3V10.8637Z" fill="#8E27D7"/>
<mask id="path-2-inside-1_5422_42129" fill="#8E27D7">
<path fill-rule="evenodd" clip-rule="evenodd" d="M10 20.126H3C3 15.9854 6.05369 12.5688 10 12.0693V20.126ZM10 10.8637C8.27477 10.413 7 8.82351 7 6.93184C7 5.04016 8.27477 3.45067 10 3V10.8637Z"/>
</mask>
<path fill-rule="evenodd" clip-rule="evenodd" d="M10 20.126H3C3 15.9854 6.05369 12.5688 10 12.0693V20.126ZM10 10.8637C8.27477 10.413 7 8.82351 7 6.93184C7 5.04016 8.27477 3.45067 10 3V10.8637Z" fill="#8E27D7"/>
<path d="M10 20.126H11V21.126H10V20.126ZM3 20.126V21.126H2V20.126H3ZM10 12.0693L9.87444 11.0772L11 10.9348V12.0693H10ZM10 10.8637H11V12.1585L9.74726 11.8312L10 10.8637ZM10 3L9.74726 2.03247L11 1.70522V3H10ZM10 21.126H3V19.126H10V21.126ZM2 20.126C2 15.4869 5.42326 11.6406 9.87444 11.0772L10.1256 13.0614C6.68411 13.497 4 16.484 4 20.126H2ZM11 12.0693V20.126H9V12.0693H11ZM8 6.93184C8 8.36657 8.96575 9.55994 10.2527 9.89614L9.74726 11.8312C7.58379 11.2661 6 9.28045 6 6.93184H8ZM10.2527 3.96753C8.96575 4.30373 8 5.49711 8 6.93184H6C6 4.58322 7.58379 2.59762 9.74726 2.03247L10.2527 3.96753ZM11 3V10.8637H9V3H11Z" fill="#212B36" mask="url(#path-2-inside-1_5422_42129)"/>
<path d="M11.5 2V22" stroke="#212B36" stroke-linecap="round"/>
</svg>
