<svg width="24" height="25" viewBox="0 0 24 25" fill="none" xmlns="http://www.w3.org/2000/svg">
<path d="M1.675 1.3125H18.125C18.357 1.3125 18.55 1.50546 18.55 1.7375V5.2625C18.55 5.49454 18.357 5.6875 18.125 5.6875H1.675C1.44296 5.6875 1.25 5.49454 1.25 5.2625V1.7375C1.25 1.50546 1.44296 1.3125 1.675 1.3125ZM1.675 8.3625H18.125C18.357 8.3625 18.55 8.55546 18.55 8.7875V12.3125C18.55 12.5445 18.357 12.7375 18.125 12.7375H1.675C1.44296 12.7375 1.25 12.5445 1.25 12.3125V8.7875C1.25 8.55546 1.44296 8.3625 1.675 8.3625ZM1.675 15.4125H18.125C18.357 15.4125 18.55 15.6055 18.55 15.8375V19.3625C18.55 19.5945 18.357 19.7875 18.125 19.7875H1.675C1.44296 19.7875 1.25 19.5945 1.25 19.3625V15.8375C1.25 15.6055 1.44296 15.4125 1.675 15.4125Z" stroke="#212121" stroke-width="1.5"/>
<path d="M18.125 24.65C21.3697 24.65 24 22.0197 24 18.775C24 15.5304 21.3697 12.9 18.125 12.9C14.8803 12.9 12.25 15.5304 12.25 18.775C12.25 22.0197 14.8803 24.65 18.125 24.65Z" fill="#1DA522"/>
<path d="M20.7684 16.0138L17.4196 19.3625L15.8334 17.7763L14.5996 19.0688L17.4196 21.8888L22.0021 17.3063L20.7684 16.0138Z" fill="#DCEDC8"/>
</svg>
