<svg width="24" height="25" viewBox="0 0 24 25" fill="none" xmlns="http://www.w3.org/2000/svg">
<path d="M15 12.5C15 10.8 13.7 9.5 12 9.5C10.3 9.5 9 10.8 9 12.5C9 14.2 10.3 15.5 12 15.5C13.7 15.5 15 14.2 15 12.5ZM17 3.8C13.1 1.6 8.3 2.3 5.1 5.2V3.5C5.1 2.9 4.7 2.5 4.1 2.5C3.5 2.5 3.1 2.9 3.1 3.5V8C3.1 8.6 3.5 9 4.1 9H8.6C9.2 9 9.6 8.6 9.6 8C9.6 7.4 9.2 7 8.6 7H6.2C7.7 5.4 9.8 4.5 12 4.5C16.4 4.5 20 8.1 20 12.5C20 13.1 20.4 13.5 21 13.5C21.6 13.5 22 13.1 22 12.5C22 8.9 20.1 5.6 17 3.8ZM19.9 16H15.4C14.8 16 14.4 16.4 14.4 17C14.4 17.6 14.8 18 15.4 18H17.8C16.3 19.6 14.2 20.5 12 20.5C7.6 20.5 4 16.9 4 12.5C4 11.9 3.6 11.5 3 11.5C2.4 11.5 2 11.9 2 12.5C2 18 6.5 22.5 12 22.5C14.6 22.5 17 21.5 18.9 19.7V21.5C18.9 22.1 19.3 22.5 19.9 22.5C20.5 22.5 20.9 22.1 20.9 21.5V17C20.9 16.4 20.4 16 19.9 16Z" fill="#212121"/>
</svg>
