<svg width="48" height="48" viewBox="0 0 48 48" fill="none" xmlns="http://www.w3.org/2000/svg">
<path d="M35.0114 21.112V31.9507C35.0114 32.7721 34.6851 33.5597 34.1044 34.1405C33.5236 34.7212 32.736 35.0475 31.9146 35.0475H16.4974C15.6785 35.0475 14.8929 34.7232 14.3125 34.1454C13.7322 33.5677 13.4043 32.7836 13.4006 31.9647L13.334 16.4808C13.3303 15.6598 13.6528 14.8709 14.2306 14.2875C14.8084 13.7042 15.5943 13.3742 16.4153 13.3701H27.2695" stroke="#A939EA" stroke-width="2" stroke-linecap="round" stroke-linejoin="round"/>
<path d="M34.2374 17.2414C35.9477 17.2414 37.3342 15.8549 37.3342 14.1446C37.3342 12.4343 35.9477 11.0479 34.2374 11.0479C32.5271 11.0479 31.1406 12.4343 31.1406 14.1446C31.1406 15.8549 32.5271 17.2414 34.2374 17.2414Z" fill="#A939EA" stroke="#A939EA" stroke-linecap="round" stroke-linejoin="round"/>
</svg>
