<svg width="32" height="32" viewBox="0 0 32 32" fill="none" xmlns="http://www.w3.org/2000/svg">
<g id="system-uicons:notification">
<g id="Group">
<path id="Vector" d="M26.6666 12.9524V23.619C26.6666 24.4273 26.3455 25.2025 25.774 25.774C25.2024 26.3456 24.4273 26.6667 23.619 26.6667H8.44643C7.64052 26.6667 6.86741 26.3475 6.29627 25.7789C5.72512 25.2103 5.40243 24.4387 5.39881 23.6328L5.33328 8.39467C5.32964 7.58665 5.64702 6.81025 6.21566 6.23619C6.7843 5.66212 7.55765 5.33736 8.36566 5.33333H19.0476" stroke="#C6C6C6" stroke-width="2" stroke-linecap="round" stroke-linejoin="round"/>
<path id="Vector_2" d="M25.9047 9.14286C27.5878 9.14286 28.9523 7.77839 28.9523 6.09524C28.9523 4.41208 27.5878 3.04762 25.9047 3.04762C24.2215 3.04762 22.8571 4.41208 22.8571 6.09524C22.8571 7.77839 24.2215 9.14286 25.9047 9.14286Z" fill="#C6C6C6" stroke="#C6C6C6" stroke-linecap="round" stroke-linejoin="round"/>
</g>
</g>
</svg>
