<svg width="24" height="24" viewBox="0 0 24 24" fill="#8E27D7" xmlns="http://www.w3.org/2000/svg">
<path d="M6.68534 18.3743L9.87809 15.1816L8.81759 14.1211L5.62484 17.3138L5.03009 16.7191C4.88944 16.5785 4.69871 16.4995 4.49984 16.4995C4.30097 16.4995 4.11024 16.5785 3.96959 16.7191L0.96959 19.7191C0.828987 19.8597 0.75 20.0505 0.75 20.2493C0.75 20.4482 0.828987 20.6389 0.96959 20.7796L3.21959 23.0296C3.36024 23.1702 3.55097 23.2492 3.74984 23.2492C3.94871 23.2492 4.13944 23.1702 4.28009 23.0296L7.28009 20.0296C7.42069 19.8889 7.49968 19.6982 7.49968 19.4993C7.49968 19.3005 7.42069 19.1097 7.28009 18.9691L6.68534 18.3743ZM3.74984 21.4388L2.56034 20.2493L4.49984 18.3098L5.68934 19.4993L3.74984 21.4388Z" fill="#8E27D7"/>
<path d="M17.9999 22.4997C16.8069 22.4983 15.6631 22.0238 14.8195 21.1802C13.9759 20.3365 13.5013 19.1928 13.4999 17.9997C13.5002 17.6077 13.5532 17.2174 13.6574 16.8395L7.16091 10.3422C6.7827 10.4464 6.39222 10.4994 5.99991 10.4997C5.26674 10.5026 4.54403 10.3257 3.89517 9.98429C3.24631 9.64292 2.6911 9.14758 2.27822 8.5417C1.86534 7.93582 1.6074 7.2379 1.52702 6.50913C1.44664 5.78037 1.54626 5.04301 1.81716 4.36171L2.23566 3.29596L4.71966 5.77996C4.8624 5.91626 5.05217 5.99232 5.24954 5.99232C5.4469 5.99232 5.63668 5.91626 5.77941 5.77996C5.84912 5.71037 5.90443 5.62772 5.94216 5.53673C5.97989 5.44574 5.99931 5.34821 5.99931 5.24971C5.99931 5.15121 5.97989 5.05368 5.94216 4.96269C5.90443 4.87171 5.84912 4.78905 5.77941 4.71946L3.29616 2.23396L4.36341 1.81621C5.0447 1.54579 5.78191 1.44657 6.51046 1.52722C7.239 1.60788 7.93665 1.86596 8.5423 2.27885C9.14794 2.69174 9.6431 3.24684 9.98438 3.89554C10.3257 4.54423 10.5027 5.26672 10.4999 5.99971C10.4996 6.39177 10.4466 6.782 10.3424 7.15996L16.8397 13.6572C17.2176 13.5532 17.6079 13.5002 17.9999 13.4997C18.7331 13.4968 19.4558 13.6738 20.1047 14.0151C20.7535 14.3565 21.3087 14.8518 21.7216 15.4577C22.1345 16.0636 22.3924 16.7615 22.4728 17.4903C22.5532 18.2191 22.4536 18.9564 22.1827 19.6377L21.7649 20.7035L19.2802 18.2195C19.1374 18.0832 18.9477 18.0071 18.7503 18.0071C18.5529 18.0071 18.3632 18.0832 18.2204 18.2195C18.1507 18.289 18.0953 18.3716 18.0575 18.4626C18.0197 18.5535 18.0002 18.6511 18.0001 18.7496C18.0001 18.8481 18.0194 18.9456 18.0571 19.0366C18.0948 19.1276 18.15 19.2103 18.2197 19.28L20.7044 21.7647L19.6379 22.1832C19.1166 22.3906 18.5609 22.4979 17.9999 22.4997ZM7.54641 8.60671L15.3922 16.4525L15.2129 16.91C15.0373 17.3491 14.9686 17.8237 15.0126 18.2946C15.0566 18.7655 15.212 19.2191 15.466 19.6181C15.7199 20.0171 16.0652 20.3499 16.4732 20.5891C16.8812 20.8283 17.3402 20.967 17.8124 20.9937L17.1592 20.3412C16.9502 20.1323 16.7844 19.8842 16.6713 19.6112C16.5582 19.3382 16.5 19.0456 16.5 18.7501C16.5 18.4546 16.5582 18.162 16.6713 17.889C16.7844 17.616 16.9502 17.3679 17.1592 17.159C17.5878 16.7497 18.1576 16.5213 18.7503 16.5213C19.3429 16.5213 19.9128 16.7497 20.3414 17.159L20.9939 17.8122C20.9671 17.34 20.8283 16.8809 20.589 16.4729C20.3497 16.065 20.0168 15.7197 19.6178 15.4658C19.2188 15.2118 18.7651 15.0564 18.2941 15.0124C17.8232 14.9684 17.3486 15.0371 16.9094 15.2127L16.4527 15.392L8.60766 7.54696L8.78766 7.08946C8.96334 6.65029 9.03199 6.17562 8.98795 5.70467C8.94391 5.23372 8.78844 4.78001 8.5344 4.38102C8.28035 3.98203 7.93501 3.64922 7.52691 3.41008C7.11881 3.17093 6.65967 3.03233 6.18741 3.00571L6.83991 3.65821C7.04889 3.86715 7.21465 4.1152 7.32775 4.38821C7.44085 4.66122 7.49906 4.95383 7.49906 5.24934C7.49906 5.54484 7.44085 5.83745 7.32775 6.11046C7.21465 6.38347 7.04889 6.63152 6.83991 6.84046C6.41129 7.24974 5.84143 7.47811 5.24879 7.47811C4.65614 7.47811 4.08629 7.24974 3.65766 6.84046L3.00516 6.18721C3.03189 6.6594 3.17058 7.11846 3.40977 7.52646C3.64896 7.93446 3.98179 8.2797 4.38076 8.53367C4.77973 8.78763 5.2334 8.94303 5.7043 8.98703C6.17519 9.03103 6.6498 8.96237 7.08891 8.78671L7.54641 8.60671Z" fill="#8E27D7"/>
<path d="M21.843 2.13765C21.4144 1.72837 20.8446 1.5 20.2519 1.5C19.6593 1.5 19.0894 1.72837 18.6608 2.13765L13.0508 7.74765L14.1113 8.80815L19.7213 3.19815C19.8641 3.06179 20.054 2.98572 20.2515 2.98572C20.449 2.98572 20.6389 3.06179 20.7818 3.19815C20.922 3.33899 21.0008 3.52964 21.0008 3.7284C21.0008 3.92715 20.922 4.11781 20.7818 4.25865L15.1718 9.86864L16.2323 10.9299L21.8423 5.3199C22.2638 4.89764 22.5005 4.32539 22.5005 3.72877C22.5005 3.13215 22.2645 2.55991 21.843 2.13765Z" fill="#8E27D7"/>
</svg>
