<svg width="28" height="28" viewBox="0 0 28 28" fill="none" xmlns="http://www.w3.org/2000/svg">
<path d="M0 28V20.5L10.1053 18L0 15.5V8L24 18L0 28Z" fill="#212121"/>
<rect width="12" height="12" transform="translate(16)" fill="#FBF8F8"/>
<path d="M27.52 0H16.48C16.2145 0 16 0.2145 16 0.48V11.52C16 11.7855 16.2145 12 16.48 12H27.52C27.7855 12 28 11.7855 28 11.52V0.48C28 0.2145 27.7855 0 27.52 0ZM22.0165 6.0915L19.1365 8.5065C19.0585 8.5725 18.94 8.517 18.94 8.415V7.4745C18.94 7.44 18.9565 7.4055 18.9835 7.383L20.6305 6L18.9835 4.617C18.9697 4.60611 18.9586 4.59219 18.9511 4.57633C18.9435 4.56046 18.9397 4.54307 18.94 4.5255V3.585C18.94 3.483 19.0585 3.4275 19.1365 3.4935L22.0165 5.907C22.075 5.955 22.075 6.0435 22.0165 6.0915ZM25.06 8.415C25.06 8.481 25.009 8.535 24.9475 8.535H22.1725C22.111 8.535 22.06 8.481 22.06 8.415V7.695C22.06 7.629 22.111 7.575 22.1725 7.575H24.9475C25.009 7.575 25.06 7.629 25.06 7.695V8.415Z" fill="#222AE0"/>
</svg>
