<svg width="28" height="32" viewBox="0 0 28 32" fill="none" xmlns="http://www.w3.org/2000/svg">
<path d="M4.44875 11.0338L12.8975 14.6562L4.4375 13.5312L4.44875 11.0338ZM12.8863 20.8438L4.4375 24.4662V21.9688L12.8863 20.8438ZM2.19875 7.625L2.1875 15.5L19.0625 17.75L2.1875 20L2.19875 27.875L25.8125 17.75L2.19875 7.625Z" fill="#212121"/>
<path d="M14.5769 10.0833H13.9231V11.4167H14.5769V10.0833ZM22.4231 11.4167H23.0769V10.0833H22.4231V11.4167ZM19.8077 14.0833H19.1538V15.4167H19.8077V14.0833ZM22.4231 15.4167H23.0769V14.0833H22.4231V15.4167ZM14.5769 6.08333H13.9231V7.41667H14.5769V6.08333ZM17.1923 7.41667H17.8462V6.08333H17.1923V7.41667ZM22.4231 1.41667L22.886 0.944667L22.6938 0.75H22.4231V1.41667ZM26.3462 5.41667H27V5.14067L26.8091 4.94467L26.3462 5.41667ZM14.5769 11.4167H22.4231V10.0833H14.5769V11.4167ZM19.8077 15.4167H22.4231V14.0833H19.8077V15.4167ZM14.5769 7.41667H17.1923V6.08333H14.5769V7.41667ZM25.0385 19.4167H11.9615V20.75H25.0385V19.4167ZM11.3077 18.75V2.75H10V18.75H11.3077ZM11.9615 2.08333H22.4231V0.75H11.9615V2.08333ZM25.6923 5.41667V18.75H27V5.41667H25.6923ZM21.9602 1.88867L25.8832 5.88867L26.8091 4.94467L22.886 0.944667L21.9602 1.88867ZM11.9615 19.4167C11.7881 19.4167 11.6218 19.3464 11.4992 19.2214C11.3766 19.0964 11.3077 18.9268 11.3077 18.75H10C10 19.2804 10.2067 19.7891 10.5745 20.1642C10.9424 20.5393 11.4413 20.75 11.9615 20.75V19.4167ZM25.0385 20.75C25.5587 20.75 26.0576 20.5393 26.4255 20.1642C26.7933 19.7891 27 19.2804 27 18.75H25.6923C25.6923 18.9268 25.6234 19.0964 25.5008 19.2214C25.3782 19.3464 25.2119 19.4167 25.0385 19.4167V20.75ZM11.3077 2.75C11.3077 2.57319 11.3766 2.40362 11.4992 2.2786C11.6218 2.15357 11.7881 2.08333 11.9615 2.08333V0.75C11.4413 0.75 10.9424 0.960714 10.5745 1.33579C10.2067 1.71086 10 2.21957 10 2.75H11.3077Z" fill="#212121"/>
</svg>
