<svg width="31" height="31" viewBox="0 0 31 31" fill="none" xmlns="http://www.w3.org/2000/svg">
<path d="M0 31V24.25L8.8421 22L0 19.75V13L21 22L0 31Z" fill="#212121"/>
<path d="M29.7692 0H16.2308C15.9043 0 15.5913 0.124513 15.3605 0.346146C15.1297 0.56778 15 0.86838 15 1.18182V11.8182C15 12.1316 15.1297 12.4322 15.3605 12.6539C15.5913 12.8755 15.9043 13 16.2308 13H29.7692C30.0957 13 30.4087 12.8755 30.6395 12.6539C30.8703 12.4322 31 12.1316 31 11.8182V1.18182C31 0.86838 30.8703 0.56778 30.6395 0.346146C30.4087 0.124513 30.0957 0 29.7692 0ZM20.2923 7.8C20.4229 7.89403 20.5092 8.03402 20.5323 8.18916C20.5554 8.3443 20.5133 8.5019 20.4154 8.62727C20.3175 8.75265 20.1717 8.83553 20.0101 8.8577C19.8485 8.87986 19.6844 8.83949 19.5538 8.74545L17.0923 6.97273C17.0159 6.91769 16.9538 6.84631 16.9111 6.76426C16.8684 6.68221 16.8462 6.59174 16.8462 6.5C16.8462 6.40826 16.8684 6.31779 16.9111 6.23574C16.9538 6.15369 17.0159 6.08231 17.0923 6.02727L19.5538 4.25455C19.6844 4.16051 19.8485 4.12014 20.0101 4.1423C20.1717 4.16447 20.3175 4.24735 20.4154 4.37273C20.5133 4.4981 20.5554 4.6557 20.5323 4.81084C20.5092 4.96598 20.4229 5.10597 20.2923 5.2L18.4869 6.5L20.2923 7.8ZM24.8223 2.52614L22.3608 10.7989C22.3398 10.8748 22.3033 10.946 22.2533 11.0082C22.2033 11.0704 22.141 11.1224 22.0698 11.1612C21.9987 11.2 21.9202 11.2248 21.8389 11.2341C21.7577 11.2434 21.6754 11.2371 21.5967 11.2155C21.518 11.1939 21.4447 11.1574 21.3808 11.1082C21.317 11.0591 21.2641 10.9982 21.2251 10.9291C21.186 10.8601 21.1618 10.7842 21.1536 10.7061C21.1455 10.6279 21.1537 10.549 21.1777 10.4739L23.6392 2.20114C23.6865 2.05321 23.7924 1.92901 23.934 1.85522C24.0757 1.78143 24.2418 1.76394 24.3968 1.8065C24.5517 1.84906 24.6831 1.94828 24.7626 2.08284C24.8422 2.2174 24.8636 2.37657 24.8223 2.52614ZM28.9077 6.97273L26.4462 8.74545C26.3156 8.83949 26.1515 8.87986 25.9899 8.8577C25.8283 8.83553 25.6825 8.75265 25.5846 8.62727C25.4867 8.5019 25.4446 8.3443 25.4677 8.18916C25.4908 8.03402 25.5771 7.89403 25.7077 7.8L27.5131 6.5L25.7077 5.2C25.643 5.15344 25.5886 5.09511 25.5474 5.02834C25.5062 4.96157 25.4792 4.88766 25.4677 4.81084C25.4563 4.73402 25.4607 4.65579 25.4808 4.58062C25.5008 4.50545 25.5361 4.43481 25.5846 4.37273C25.6331 4.31065 25.6939 4.25835 25.7634 4.21881C25.8329 4.17927 25.9099 4.15328 25.9899 4.1423C26.0699 4.13133 26.1514 4.13559 26.2296 4.15485C26.3079 4.17411 26.3815 4.20799 26.4462 4.25455L28.9077 6.02727C28.9841 6.08231 29.0462 6.15369 29.0889 6.23574C29.1316 6.31779 29.1538 6.40826 29.1538 6.5C29.1538 6.59174 29.1316 6.68221 29.0889 6.76426C29.0462 6.84631 28.9841 6.91769 28.9077 6.97273Z" fill="#222AE0"/>
</svg>
