<svg width="24" height="24" viewBox="0 0 24 24" fill="none" xmlns="http://www.w3.org/2000/svg">
<g id="Icons/Filled/Settings">
<g id="Settings">
<path id="Subtract" fill-rule="evenodd" clip-rule="evenodd" d="M9.35531 3.27457C10.0643 3.09516 10.8063 3 11.5696 3C12.3329 3 13.0749 3.09517 13.784 3.27461C14.3626 3.42105 14.6614 3.92079 14.7575 4.33621C14.8714 4.8283 15.1802 5.2716 15.651 5.54343C16.0839 5.79335 16.5733 5.85207 17.0247 5.74564C17.4396 5.64783 18.0188 5.69443 18.4065 6.14682C19.1272 6.98794 19.6957 7.96412 20.0687 9.03267C20.2914 9.67061 19.9464 10.2451 19.5821 10.5452C19.1615 10.8917 18.8951 11.4145 18.8951 12C18.8951 12.5855 19.1615 13.1083 19.5821 13.4548C19.9464 13.7549 20.2914 14.3294 20.0687 14.9673C19.6957 16.0358 19.1273 17.0119 18.4067 17.8529C18.019 18.3054 17.4397 18.3519 17.0248 18.2541C16.5734 18.1476 16.0839 18.2063 15.651 18.4563C15.1801 18.7281 14.8713 19.1715 14.7575 19.6637C14.6614 20.0791 14.3626 20.579 13.7838 20.7254C13.0748 20.9048 12.3328 21 11.5696 21C10.8063 21 10.0644 20.9048 9.35538 20.7254C8.77664 20.579 8.47783 20.0792 8.38174 19.6637C8.26791 19.1715 7.95908 18.7281 7.4882 18.4563C7.05526 18.2063 6.56578 18.1476 6.11435 18.2541C5.69946 18.352 5.12013 18.3054 4.73246 17.8529C4.01184 17.0119 3.44339 16.0358 3.07039 14.9673C2.84768 14.3294 3.19274 13.755 3.55707 13.4548C3.97761 13.1083 4.244 12.5855 4.244 12C4.244 11.4145 3.97761 10.8917 3.55707 10.5452C3.19274 10.245 2.84768 9.6706 3.07039 9.03266C3.44343 7.9641 4.01197 6.98791 4.7327 6.14679C5.12035 5.69439 5.6996 5.6478 6.11447 5.74563C6.56587 5.85207 7.0553 5.79336 7.4882 5.54343C7.95903 5.27159 8.26784 4.82829 8.38171 4.33619C8.47783 3.92076 8.77663 3.421 9.35531 3.27457ZM11.5695 14.5116C10.1824 14.5116 9.05791 13.3871 9.05791 12C9.05791 10.6129 10.1824 9.48837 11.5695 9.48837C12.9567 9.48837 14.0812 10.6129 14.0812 12C14.0812 13.3871 12.9567 14.5116 11.5695 14.5116Z" fill="#783C9A"/>
</g>
</g>
</svg>
