<svg width="40" height="48" viewBox="0 0 40 48" fill="none" xmlns="http://www.w3.org/2000/svg">
<path d="M12.2 18L13.4 15.6V14.4H12.2V12H19.4C19.74 12 20.0252 12.1152 20.2556 12.3456C20.486 12.576 20.6008 12.8608 20.6 13.2V14.4L19.4 16.8H15.8V15.6L13.4 18H12.2ZM11 36V27.78C11 27.56 11.0352 27.3252 11.1056 27.0756C11.176 26.826 11.2608 26.6008 11.36 26.4L15.8 18H19.4C19.68 18.28 19.95 18.6552 20.21 19.1256C20.47 19.596 20.6 20.0208 20.6 20.4V36H11ZM13.4 33.6H18.2V20.4H17.24L13.4 27.72V33.6Z" fill="#6F10C0"/>
</svg>
