<svg width="14" height="24" viewBox="0 0 14 24" fill="none" xmlns="http://www.w3.org/2000/svg">
<path d="M12.1426 5.14286H11.2854V0H9.57115V5.14286H4.42829V0H2.71401V5.14286H1.85686C1.40221 5.14286 0.966172 5.32347 0.644681 5.64496C0.32319 5.96645 0.142578 6.40249 0.142578 6.85714V12C0.145376 13.6687 0.756073 15.2793 1.86041 16.5304C2.96476 17.7814 4.48708 18.5873 6.14258 18.7971V24H7.85686V18.7971C9.51236 18.5873 11.0347 17.7814 12.139 16.5304C13.2434 15.2793 13.8541 13.6687 13.8569 12V6.85714C13.8569 6.40249 13.6763 5.96645 13.3548 5.64496C13.0333 5.32347 12.5972 5.14286 12.1426 5.14286Z" fill="#6F10C0"/>
</svg>
