<svg width="22" height="26" viewBox="0 0 22 26" fill="none" xmlns="http://www.w3.org/2000/svg">
<path d="M11.1009 19.9474V25M11.1009 4.78947V8.57895M6.36408 11.9907L8.25881 15.2724M15.8378 11.9907L13.943 15.2724M16.3411 1H5.86134C5.73118 0.999889 5.60416 1.04 5.49766 1.11484C5.39116 1.18968 5.31039 1.2956 5.26639 1.41811L1.05376 13.1535C1.01587 13.2598 1.00715 13.3743 1.0285 13.4851L2.16092 19.4345C2.18853 19.5788 2.26557 19.7089 2.37877 19.8025C2.49196 19.8961 2.63425 19.9473 2.78113 19.9474H19.4207C19.5677 19.9473 19.71 19.896 19.8232 19.8023C19.9365 19.7086 20.0134 19.5783 20.0409 19.4339L21.174 13.4851C21.1951 13.3742 21.1862 13.2597 21.1481 13.1535L16.9354 1.41874C16.8916 1.29622 16.811 1.19023 16.7046 1.11528C16.5982 1.04033 16.4713 1.00007 16.3411 1Z" stroke="#6F10C0" stroke-width="1.5" stroke-linecap="round" stroke-linejoin="round"/>
</svg>
