<?xml version="1.0" encoding="UTF-8" standalone="no" ?>
<!DOCTYPE svg PUBLIC "-//W3C//DTD SVG 1.1//EN" "http://www.w3.org/Graphics/SVG/1.1/DTD/svg11.dtd">
<svg xmlns="http://www.w3.org/2000/svg" xmlns:xlink="http://www.w3.org/1999/xlink" version="1.1" width="1080" height="1080" viewBox="0 0 1080 1080" xml:space="preserve">
<desc>Created with Fabric.js 5.2.4</desc>
<defs>
</defs>
<g transform="matrix(1 0 0 1 540 540)" id="cd7c7813-473a-43a3-a5ee-79a1a624a474"  >
<rect style="stroke: none; stroke-width: 1; stroke-dasharray: none; stroke-linecap: butt; stroke-dashoffset: 0; stroke-linejoin: miter; stroke-miterlimit: 4; fill: rgb(255,255,255); fill-rule: nonzero; opacity: 1; visibility: hidden;" vector-effect="non-scaling-stroke"  x="-540" y="-540" rx="0" ry="0" width="1080" height="1080" />
</g>
<g transform="matrix(1 0 0 1 540 540)" id="51a3908b-8ebe-4120-a962-c20397f9e88b"  >
</g>
<g transform="matrix(67.5 0 0 67.5 540 540)"  >
<g style=""   >
		<g transform="matrix(1 0 0 1 -0.02 -0.01)"  >
<path style="stroke: none; stroke-width: 1; stroke-dasharray: none; stroke-linecap: butt; stroke-dashoffset: 0; stroke-linejoin: miter; stroke-miterlimit: 4; fill: rgb(0,0,0); fill-rule: nonzero; opacity: 1;" vector-effect="non-scaling-stroke"  transform=" translate(-9.98, -9.99)" d="M 14.0872 6.70308 C 14.9271 5.85998 16.2664 5.81735 17.1568 6.57701 L 17.2869 6.69697 L 17.4134 6.83357 C 18.1376 7.68212 18.1376 8.93671 17.4134 9.78526 L 17.293 9.91574 L 10.4167 16.8183 C 10.2617 16.9739 10.0749 17.0931 9.86988 17.1682 L 9.71291 17.2161 L 6.62737 17.9764 C 6.28827 18.0599 5.98023 17.7813 6.00917 17.4498 L 6.0236 17.366 L 6.81558 14.2953 C 6.86895 14.0883 6.96574 13.8958 7.09885 13.7302 L 7.20537 13.6112 L 14.0872 6.70308 Z M 16.5811 7.40543 C 16.1201 6.94613 15.393 6.91684 14.898 7.31661 L 14.7957 7.40884 L 7.91383 14.317 C 7.87193 14.359 7.83804 14.408 7.8135 14.4616 L 7.7839 14.545 L 7.20061 16.805 L 9.47368 16.2452 C 9.51317 16.2354 9.55114 16.221 9.58682 16.2022 L 9.6385 16.1709 L 9.70829 16.1126 L 16.5845 9.20999 C 17.0806 8.71206 17.0806 7.90677 16.5811 7.40543 Z M 6.42419 2.22879 L 6.46607 2.31323 L 9.448 9.94224 L 8.676 10.7172 L 8.004 8.99824 L 4.007 8.99824 L 2.96614 11.678 C 2.87719 11.9068 2.63835 12.0329 2.40561 11.9879 L 2.31893 11.9628 C 2.09015 11.8738 1.96399 11.635 2.00906 11.4023 L 2.03413 11.3156 L 5.53436 2.31403 C 5.6877 1.9197 6.21661 1.89109 6.42419 2.22879 Z M 6.00061 3.871 L 4.396 7.99824 L 7.614 7.99824 L 6.00061 3.871 Z" stroke-linecap="round" />
</g>
		<g transform="matrix(1 0 0 1 -0.02 -0.01)"  >
<path style="stroke: none; stroke-width: 1; stroke-dasharray: none; stroke-linecap: butt; stroke-dashoffset: 0; stroke-linejoin: miter; stroke-miterlimit: 4; fill: rgb(0,0,0); fill-rule: nonzero; opacity: 1;" vector-effect="non-scaling-stroke"  transform=" translate(-9.98, -9.99)" d="M 14.0872 6.70308 C 14.9271 5.85998 16.2664 5.81735 17.1568 6.57701 L 17.2869 6.69697 L 17.4134 6.83357 C 18.1376 7.68212 18.1376 8.93671 17.4134 9.78526 L 17.293 9.91574 L 10.4167 16.8183 C 10.2617 16.9739 10.0749 17.0931 9.86988 17.1682 L 9.71291 17.2161 L 6.62737 17.9764 C 6.28827 18.0599 5.98023 17.7813 6.00917 17.4498 L 6.0236 17.366 L 6.81558 14.2953 C 6.86895 14.0883 6.96574 13.8958 7.09885 13.7302 L 7.20537 13.6112 L 14.0872 6.70308 Z M 6.42419 2.22879 L 6.46607 2.31323 L 9.448 9.94224 L 8.676 10.7172 L 8.004 8.99824 L 4.007 8.99824 L 2.96614 11.678 C 2.87719 11.9068 2.63835 12.0329 2.40561 11.9879 L 2.31893 11.9628 C 2.09015 11.8738 1.96399 11.635 2.00906 11.4023 L 2.03413 11.3156 L 5.53436 2.31403 C 5.6877 1.9197 6.21661 1.89109 6.42419 2.22879 Z M 6.00061 3.871 L 4.396 7.99824 L 7.614 7.99824 L 6.00061 3.871 Z" stroke-linecap="round" />
</g>
</g>
</g>
</svg>