<svg width="48" height="48" viewBox="0 0 48 48" fill="none" xmlns="http://www.w3.org/2000/svg">
<path d="M35.6667 12.3333V17H12.3333V12.3333H35.6667ZM35.6667 10H12.3333C11.7145 10 11.121 10.2458 10.6834 10.6834C10.2458 11.121 10 11.7145 10 12.3333V17C10 17.6188 10.2458 18.2123 10.6834 18.6499C11.121 19.0875 11.7145 19.3333 12.3333 19.3333H35.6667C36.2855 19.3333 36.879 19.0875 37.3166 18.6499C37.7542 18.2123 38 17.6188 38 17V12.3333C38 11.7145 37.7542 11.121 37.3166 10.6834C36.879 10.2458 36.2855 10 35.6667 10ZM17 24V35.6667H12.3333V24H17ZM17 21.6667H12.3333C11.7145 21.6667 11.121 21.9125 10.6834 22.3501C10.2458 22.7877 10 23.3812 10 24V35.6667C10 36.2855 10.2458 36.879 10.6834 37.3166C11.121 37.7542 11.7145 38 12.3333 38H17C17.6188 38 18.2123 37.7542 18.6499 37.3166C19.0875 36.879 19.3333 36.2855 19.3333 35.6667V24C19.3333 23.3812 19.0875 22.7877 18.6499 22.3501C18.2123 21.9125 17.6188 21.6667 17 21.6667ZM35.6667 24V35.6667H24V24H35.6667ZM35.6667 21.6667H24C23.3812 21.6667 22.7877 21.9125 22.3501 22.3501C21.9125 22.7877 21.6667 23.3812 21.6667 24V35.6667C21.6667 36.2855 21.9125 36.879 22.3501 37.3166C22.7877 37.7542 23.3812 38 24 38H35.6667C36.2855 38 36.879 37.7542 37.3166 37.3166C37.7542 36.879 38 36.2855 38 35.6667V24C38 23.3812 37.7542 22.7877 37.3166 22.3501C36.879 21.9125 36.2855 21.6667 35.6667 21.6667Z" fill="#A939EA"/>
</svg>
