<svg width="48" height="48" viewBox="0 0 48 48" fill="none" xmlns="http://www.w3.org/2000/svg">
<path fill-rule="evenodd" clip-rule="evenodd" d="M24.0002 9.6665C22.3205 9.6665 20.7096 10.3338 19.5219 11.5215C18.3342 12.7092 17.6669 14.3201 17.6669 15.9998C17.6669 17.6795 18.3342 19.2904 19.5219 20.4782C20.7096 21.6659 22.3205 22.3332 24.0002 22.3332C25.6799 22.3332 27.2909 21.6659 28.4786 20.4782C29.6663 19.2904 30.3336 17.6795 30.3336 15.9998C30.3336 14.3201 29.6663 12.7092 28.4786 11.5215C27.2909 10.3338 25.6799 9.6665 24.0002 9.6665ZM19.6669 15.9998C19.6669 14.8506 20.1235 13.7484 20.9361 12.9357C21.7488 12.1231 22.851 11.6665 24.0002 11.6665C25.1495 11.6665 26.2517 12.1231 27.0644 12.9357C27.877 13.7484 28.3336 14.8506 28.3336 15.9998C28.3336 17.1491 27.877 18.2513 27.0644 19.064C26.2517 19.8766 25.1495 20.3332 24.0002 20.3332C22.851 20.3332 21.7488 19.8766 20.9361 19.064C20.1235 18.2513 19.6669 17.1491 19.6669 15.9998ZM24.0002 24.3332C20.9162 24.3332 18.0736 25.0345 15.9682 26.2185C13.8936 27.3865 12.3336 29.1545 12.3336 31.3332V31.4692C12.3322 33.0185 12.3309 34.9625 14.0362 36.3518C14.8749 37.0345 16.0496 37.5212 17.6362 37.8412C19.2256 38.1638 21.2989 38.3332 24.0002 38.3332C26.7016 38.3332 28.7736 38.1638 30.3656 37.8412C31.9522 37.5212 33.1256 37.0345 33.9656 36.3518C35.6709 34.9625 35.6682 33.0185 35.6669 31.4692V31.3332C35.6669 29.1545 34.1069 27.3865 32.0336 26.2185C29.9269 25.0345 27.0856 24.3332 24.0002 24.3332ZM14.3336 31.3332C14.3336 30.1985 15.1629 28.9665 16.9482 27.9625C18.7029 26.9758 21.1936 26.3332 24.0016 26.3332C26.8069 26.3332 29.2976 26.9758 31.0522 27.9625C32.8389 28.9665 33.6669 30.1985 33.6669 31.3332C33.6669 33.0772 33.6136 34.0585 32.7016 34.7998C32.2082 35.2025 31.3816 35.5958 29.9682 35.8812C28.5589 36.1665 26.6322 36.3332 24.0002 36.3332C21.3682 36.3332 19.4402 36.1665 18.0322 35.8812C16.6189 35.5958 15.7922 35.2025 15.2989 34.8012C14.3869 34.0585 14.3336 33.0772 14.3336 31.3332Z" fill="#A939EA"/>
</svg>
