<svg width="24" height="24" viewBox="0 0 24 24" fill="none" xmlns="http://www.w3.org/2000/svg">
<path d="M2.66667 6.66667C2.66667 7.02029 2.80714 7.35943 3.05719 7.60948C3.30724 7.85952 3.64638 8 4 8C4.35362 8 4.69276 7.85952 4.94281 7.60948C5.19286 7.35943 5.33333 7.02029 5.33333 6.66667V5.33333H6.66666C7.02029 5.33333 7.35942 5.19286 7.60947 4.94281C7.85952 4.69276 8 4.35362 8 4C8 3.64638 7.85952 3.30724 7.60947 3.05719C7.35942 2.80714 7.02029 2.66667 6.66666 2.66667H5.33333V1.33333C5.33333 0.979711 5.19286 0.640573 4.94281 0.390524C4.69276 0.140476 4.35362 0 4 0C3.64638 0 3.30724 0.140476 3.05719 0.390524C2.80714 0.640573 2.66667 0.979711 2.66667 1.33333V2.66667H1.33333C0.979711 2.66667 0.640572 2.80714 0.390524 3.05719C0.140476 3.30724 0 3.64638 0 4C0 4.35362 0.140476 4.69276 0.390524 4.94281C0.640572 5.19286 0.979711 5.33333 1.33333 5.33333H2.66667V6.66667ZM20 2.66667H12C11.6464 2.66667 11.3072 2.80714 11.0572 3.05719C10.8071 3.30724 10.6667 3.64638 10.6667 4C10.6667 4.35362 10.8071 4.69276 11.0572 4.94281C11.3072 5.19286 11.6464 5.33333 12 5.33333H20C20.3536 5.33333 20.6928 5.47381 20.9428 5.72386C21.1929 5.97391 21.3333 6.31305 21.3333 6.66667V19.6267L19.24 17.6933C18.9941 17.4631 18.6702 17.3345 18.3333 17.3333H6.66666C6.31304 17.3333 5.9739 17.1929 5.72386 16.9428C5.47381 16.6928 5.33333 16.3536 5.33333 16V12C5.33333 11.6464 5.19286 11.3072 4.94281 11.0572C4.69276 10.8071 4.35362 10.6667 4 10.6667C3.64638 10.6667 3.30724 10.8071 3.05719 11.0572C2.80714 11.3072 2.66667 11.6464 2.66667 12V16C2.66667 17.0609 3.08809 18.0783 3.83824 18.8284C4.58838 19.5786 5.6058 20 6.66666 20H17.8133L21.8133 23.64C22.0456 23.8581 22.3483 23.9858 22.6667 24C22.8495 23.998 23.0304 23.9618 23.2 23.8933C23.4385 23.7892 23.6413 23.6176 23.7835 23.3997C23.9256 23.1817 24.0009 22.9269 24 22.6667V6.66667C24 5.6058 23.5786 4.58839 22.8284 3.83824C22.0783 3.08809 21.0609 2.66667 20 2.66667Z" fill="#6F10C0"/>
</svg>
