<svg width="26" height="24" viewBox="0 0 26 24" fill="none" xmlns="http://www.w3.org/2000/svg">
<circle cx="18.3831" cy="16.8511" r="7.14894" fill="#6F10C0"/>
<path fill-rule="evenodd" clip-rule="evenodd" d="M8.68085 0L0 4.08511V9.70213C0 12.2553 1.53191 16.3404 3.06383 17.8723C4.59574 19.4043 7.14894 20.9362 8.68085 21.4468C9.17468 21.2822 9.6851 21.0568 10.152 20.824C9.53809 19.6335 9.19149 18.2828 9.19149 16.8511C9.19149 12.2282 12.8051 8.4493 17.3617 8.18498V4.08511L8.68085 0Z" fill="#6F10C0"/>
<path d="M20.2231 15.3191C20.2231 16.1652 19.5372 16.8511 18.6912 16.8511C17.8451 16.8511 17.1592 16.1652 17.1592 15.3191C17.1592 14.4731 17.8451 13.7872 18.6912 13.7872C19.5372 13.7872 20.2231 14.4731 20.2231 15.3191Z" fill="#FBF8F8"/>
<path d="M15.5223 19.9314C15.2514 19.6308 15.2514 19.1775 15.5223 18.8768C16.3029 18.0102 17.4339 17.4654 18.6921 17.4654C19.9503 17.4654 21.0812 18.0102 21.8619 18.8768C22.1328 19.1775 22.1328 19.6308 21.8619 19.9314C21.0812 20.798 19.9503 21.3428 18.6921 21.3428C17.4339 21.3428 16.3029 20.798 15.5223 19.9314Z" fill="#FBF8F8"/>
</svg>
