<svg width="26" height="25" viewBox="0 0 26 25" fill="none" xmlns="http://www.w3.org/2000/svg">
<path d="M0.75 9.70213V4.56106L8.68085 0.828895L16.6117 4.56106V9.00695L11.1715 19.3928C10.6507 19.7229 9.64381 20.2953 8.68237 20.6512C7.24203 20.1063 4.96978 18.7176 3.59416 17.342C2.94112 16.689 2.22096 15.4036 1.65969 13.9069C1.1027 12.4215 0.75 10.8559 0.75 9.70213Z" fill="white" stroke="#6F10C0" stroke-width="1.5"/>
<circle cx="17.8723" cy="16.8511" r="7.14894" fill="white" stroke="#6F10C0" stroke-width="1.5"/>
<ellipse cx="17.8722" cy="15.3191" rx="1.53191" ry="1.53191" fill="#6F10C0"/>
<path d="M14.6941 19.9212C14.4299 19.6259 14.4299 19.1824 14.6941 18.8871C15.4751 18.0146 16.61 17.4655 17.8732 17.4655C19.1364 17.4655 20.2713 18.0146 21.0523 18.8871C21.3166 19.1824 21.3166 19.6259 21.0523 19.9211C20.2713 20.7937 19.1364 21.3428 17.8732 21.3428C16.61 21.3428 15.4751 20.7937 14.6941 19.9212Z" fill="#6F10C0"/>
</svg>
