<svg width="24" height="14" viewBox="0 0 24 14" fill="none" xmlns="http://www.w3.org/2000/svg">
<path d="M14.1721 0.501413C14.0496 0.50921 13.9321 0.551769 13.8339 0.623863C13.7357 0.695957 13.6611 0.794466 13.6192 0.90739L9.19609 12.6614C9.16664 12.7376 9.15283 12.8188 9.15547 12.9002C9.15811 12.9817 9.17714 13.0618 9.21148 13.1361C9.24581 13.2103 9.29477 13.2772 9.35555 13.3329C9.41633 13.3885 9.48774 13.432 9.56568 13.4606C9.64362 13.4892 9.72656 13.5025 9.80975 13.4996C9.89294 13.4968 9.97474 13.4779 10.0505 13.4441C10.1262 13.4103 10.1944 13.3621 10.2511 13.3025C10.3077 13.2428 10.3519 13.1727 10.3808 13.0963L14.8039 1.34237C14.8424 1.24532 14.8552 1.14035 14.8412 1.03717C14.8272 0.933983 14.7868 0.835937 14.7238 0.75209C14.6608 0.668243 14.5772 0.6013 14.4808 0.557484C14.3843 0.513668 14.2781 0.494383 14.1721 0.501413ZM6.89568 2.66662C6.79706 2.67715 6.70236 2.71027 6.61924 2.76329L0.30054 6.47508C0.208681 6.53047 0.132836 6.60796 0.0802278 6.70017C0.0276195 6.79239 0 6.89626 0 7.00188C0 7.1075 0.0276195 7.21136 0.0802278 7.30357C0.132836 7.39578 0.208681 7.47327 0.30054 7.52866L6.61924 11.2405C6.68987 11.292 6.77073 11.3285 6.85663 11.3477C6.94253 11.3668 7.03157 11.3681 7.11803 11.3516C7.20449 11.3351 7.28646 11.301 7.35869 11.2516C7.43092 11.2022 7.4918 11.1386 7.53743 11.0648C7.58306 10.9911 7.61243 10.9088 7.62365 10.8232C7.63488 10.7377 7.62771 10.6508 7.6026 10.5681C7.5775 10.4854 7.53502 10.4088 7.47789 10.3431C7.42076 10.2775 7.35024 10.2243 7.27085 10.1869L1.85061 7.00669L7.27085 3.81689C7.3948 3.74589 7.49036 3.63568 7.54178 3.5044C7.59319 3.37313 7.59741 3.22863 7.55372 3.09469C7.51004 2.96075 7.42106 2.84538 7.30145 2.76757C7.18184 2.68976 7.03872 2.65415 6.89568 2.66662ZM17.0155 2.66662C16.8802 2.67404 16.7509 2.72386 16.6467 2.80871C16.5425 2.89356 16.4689 3.00896 16.4369 3.13787C16.4048 3.26677 16.4159 3.40236 16.4685 3.52462C16.5211 3.64689 16.6125 3.74935 16.7291 3.81689L22.1494 7.00669L16.7291 10.1869C16.6498 10.2243 16.5792 10.2775 16.5221 10.3431C16.465 10.4088 16.4225 10.4854 16.3974 10.5681C16.3723 10.6508 16.3651 10.7377 16.3764 10.8232C16.3876 10.9088 16.4169 10.9911 16.4626 11.0648C16.5082 11.1386 16.5691 11.2022 16.6413 11.2516C16.7135 11.301 16.7955 11.3351 16.882 11.3516C16.9684 11.3681 17.0575 11.3668 17.1434 11.3477C17.2293 11.3285 17.3101 11.292 17.3808 11.2405L23.6995 7.52866C23.7913 7.47327 23.8672 7.39578 23.9198 7.30357C23.9724 7.21136 24 7.1075 24 7.00188C24 6.89626 23.9724 6.79239 23.9198 6.70017C23.8672 6.60796 23.7913 6.53047 23.6995 6.47508L17.3808 2.76329C17.2719 2.69529 17.1445 2.66156 17.0155 2.66662Z" fill="#9C9C9C"/>
</svg>
