<svg width="48" height="48" viewBox="0 0 48 48" fill="none" xmlns="http://www.w3.org/2000/svg">
<path d="M12.666 22.6665V26.6665C12.666 31.6945 12.666 34.2092 14.2287 35.7705C15.79 37.3332 18.3047 37.3332 23.3327 37.3332H24.666C29.694 37.3332 32.2087 37.3332 33.77 35.7705C35.3327 34.2092 35.3327 31.6945 35.3327 26.6665V22.6665" stroke="#A939EA" stroke-width="2"/>
<path d="M20.6667 10.6665H27.3333L28.2027 19.3558C28.26 19.9422 28.1939 20.534 28.0087 21.0933C27.8236 21.6526 27.5235 22.167 27.1277 22.6034C26.7318 23.0397 26.2491 23.3884 25.7104 23.6271C25.1718 23.8657 24.5892 23.989 24 23.989C23.4109 23.989 22.8282 23.8657 22.2896 23.6271C21.7509 23.3884 21.2682 23.0397 20.8724 22.6034C20.4765 22.167 20.1764 21.6526 19.9913 21.0933C19.8061 20.534 19.7401 19.9422 19.7973 19.3558L20.6667 10.6665Z" stroke="#A939EA" stroke-width="2"/>
<path d="M12.4394 15.1345C12.6767 13.9478 12.7954 13.3545 13.0367 12.8732C13.2882 12.3719 13.6422 11.9291 14.0759 11.5735C14.5096 11.2179 15.0132 10.9575 15.554 10.8092C16.074 10.6665 16.6794 10.6665 17.89 10.6665H20.666L19.6994 20.3265C19.6484 20.8793 19.4851 21.416 19.2195 21.9035C18.9538 22.391 18.5915 22.8192 18.1547 23.1619C17.7179 23.5045 17.2157 23.7544 16.6789 23.8962C16.1422 24.0381 15.5821 24.0688 15.033 23.9867C14.4839 23.9046 13.9574 23.7112 13.4856 23.4185C13.0139 23.1258 12.6068 22.7399 12.2894 22.2844C11.9719 21.829 11.7508 21.3135 11.6395 20.7696C11.5282 20.2256 11.529 19.6647 11.642 19.1212L12.4394 15.1345ZM35.5594 15.1345C35.322 13.9478 35.2034 13.3545 34.962 12.8732C34.7106 12.3719 34.3565 11.9291 33.9228 11.5735C33.4892 11.2179 32.9856 10.9575 32.4447 10.8092C31.9247 10.6665 31.3194 10.6665 30.1087 10.6665H27.3327L28.2994 20.3265C28.3504 20.8793 28.5137 21.416 28.7793 21.9035C29.0449 22.391 29.4072 22.8192 29.8441 23.1619C30.2809 23.5045 30.7831 23.7544 31.3198 23.8962C31.8566 24.0381 32.4167 24.0688 32.9657 23.9867C33.5148 23.9046 34.0414 23.7112 34.5131 23.4185C34.9849 23.1258 35.392 22.7399 35.7094 22.2844C36.0268 21.829 36.248 21.3135 36.3593 20.7696C36.4706 20.2256 36.4697 19.6647 36.3567 19.1212L35.5594 15.1345Z" stroke="#A939EA" stroke-width="2"/>
<path d="M20.666 36.6663V32.6663C20.666 31.4197 20.666 30.797 20.934 30.333C21.1095 30.029 21.362 29.7765 21.666 29.601C22.13 29.333 22.7527 29.333 23.9993 29.333C25.246 29.333 25.8687 29.333 26.3327 29.601C26.6367 29.7765 26.8892 30.029 27.0647 30.333C27.3327 30.797 27.3327 31.4197 27.3327 32.6663V36.6663" stroke="#A939EA" stroke-width="2" stroke-linecap="round"/>
</svg>
