<svg width="20" height="20" viewBox="0 0 20 20" fill="none" xmlns="http://www.w3.org/2000/svg">
<g id="streamline:web">
<g id="Group">
<path id="Vector" d="M17 10C17 11.8565 16.2625 13.637 14.9497 14.9497C13.637 16.2625 11.8565 17 10 17C8.14348 17 6.36301 16.2625 5.05025 14.9497C3.7375 13.637 3 11.8565 3 10M17 10C17 8.14348 16.2625 6.36301 14.9497 5.05025C13.637 3.7375 11.8565 3 10 3C8.14348 3 6.36301 3.7375 5.05025 5.05025C3.7375 6.36301 3 8.14348 3 10M17 10H3" stroke="#A7A7A7" stroke-linecap="round" stroke-linejoin="round"/>
<path id="Vector_2" d="M12.625 10C12.4961 12.5598 11.5768 15.0113 10 17C8.42324 15.0113 7.50394 12.5598 7.375 10C7.50394 7.44016 8.42324 4.9887 10 3C11.5768 4.9887 12.4961 7.44016 12.625 10Z" stroke="#A7A7A7" stroke-linecap="round" stroke-linejoin="round"/>
</g>
</g>
</svg>
