
<svg width="74" height="69" viewBox="0 0 74 69" fill="none" xmlns="http://www.w3.org/2000/svg">
<path d="M15.4732 17.8518C20.7844 5.7177 33.7037 -0.348886 44.3319 4.30314C44.3631 4.31683 44.3906 4.32883 44.4218 4.34252C44.4532 4.35622 44.4844 4.36991 44.5157 4.38362C44.7896 4.50348 45.0582 4.63509 45.3251 4.77061C45.341 4.77756 45.3588 4.79004 45.3743 4.79681C45.5942 4.9118 45.8071 5.03307 46.0195 5.15412C46.1909 5.25253 46.36 5.34523 46.5243 5.44992L46.5438 5.45848C50.5713 7.92786 53.5052 11.8746 55.0421 16.403C55.1955 16.5216 55.3467 16.6439 55.4943 16.7647C55.2899 8.70178 50.564 4.80365 44.2856 2.05553C33.6574 -2.59651 19.4408 4.16569 14.9748 16.637C14.3295 18.4414 13.9104 20.1763 13.6774 21.848C13.6526 22.469 13.6523 23.0768 13.6648 23.6766C14.0349 21.7235 14.6327 19.772 15.4732 17.8518Z" fill="url(#paint0_linear_1931_12752)"/>
<path d="M46.5438 5.45848L46.5243 5.44992C46.36 5.34523 46.1909 5.25253 46.0195 5.15412C45.8071 5.03307 45.5942 4.9118 45.3743 4.79681C45.3588 4.79004 45.3375 4.78541 45.3216 4.77846C45.0252 4.62532 44.7235 4.48393 44.4184 4.35037C44.3871 4.33668 44.3597 4.32468 44.3284 4.31099C33.7003 -0.341037 20.781 5.72555 15.4698 17.8596C14.6293 19.7798 14.0353 21.7333 13.6653 23.6861C13.8725 33.5848 19.0424 40.8355 22.0702 44.2477C19.2478 38.5345 18.7402 30.7598 21.8666 23.617C26.8959 12.1268 38.2214 5.98489 47.1638 9.89901C50.1562 11.2088 52.817 13.2438 54.5363 16.0365C54.7051 16.1619 54.8739 16.2872 55.041 16.4165C53.5041 11.8881 50.5685 7.94534 46.5423 5.47186L46.5438 5.45848Z" fill="url(#paint1_linear_1931_12752)"/>
<path d="M21.8718 23.6051C18.7452 30.7483 19.253 38.5227 22.0754 44.2358C23.3398 45.6598 24.2307 46.4146 24.2307 46.4146C23.3037 39.9493 25.6423 32.8173 27.7076 28.0778C28.1458 27.0766 28.6314 26.1054 29.1742 25.1636C29.1742 25.1636 33.7376 15.9731 42.6572 13.6351C42.672 13.6323 42.6836 13.628 42.6989 13.6253C47.4183 12.2986 51.4106 13.7419 54.5451 16.0263C52.8262 13.2338 50.169 11.2004 47.1726 9.88884C38.2305 5.97482 26.9011 12.115 21.8718 23.6051Z" fill="url(#paint2_linear_1931_12752)"/>
<path d="M2.60332 46.0727C2.59967 46.0385 2.6056 46.0036 2.60195 45.9693C2.60009 45.931 2.59644 45.8968 2.59458 45.8585C2.58624 45.5367 2.58963 45.2201 2.59877 44.9011C2.59793 44.8818 2.59866 44.8587 2.59764 44.8397C2.60574 44.5763 2.62148 44.3168 2.64131 44.0585C2.65372 43.8491 2.66861 43.6447 2.69063 43.4346L2.6914 43.4116C3.2299 37.8684 5.98336 32.7705 10.0467 29.0887C10.0281 29.0991 10.0247 29.1069 10.0467 29.0887C1.94883 32.9468 0.33446 39.5209 0.588282 47.1515C1 59.5116 13.3076 70.0599 26.5494 68.6127C28.6999 68.3747 30.6454 67.9022 32.4175 67.2505C30.8285 67.5049 29.2082 67.5118 27.4319 67.5765C14.1288 68.0563 3.01661 58.4292 2.60332 46.0727Z" fill="url(#paint3_linear_1931_12752)"/>
<path d="M50.6023 45.4596C47.4184 52.4886 39.3873 58.4302 29.8584 58.7746C17.2637 59.2327 6.77092 51.1724 6.42782 40.7748C6.28777 36.5582 7.3216 32.3221 10.0558 29.0786L10.0524 29.0863C5.98888 32.7685 3.2356 37.866 2.6971 43.4092L2.69633 43.4322C2.67592 43.6386 2.66333 43.8484 2.64683 44.0565C2.62718 44.3144 2.60965 44.578 2.60334 44.8374C2.60418 44.8567 2.60345 44.8798 2.60447 44.8987C2.59328 45.2543 2.59745 45.6069 2.60765 45.967C2.61116 46.0016 2.60537 46.0361 2.60884 46.0708C3.02052 58.4309 14.1343 68.0543 27.4396 67.5702C29.2158 67.5054 30.8319 67.4971 32.425 67.2445C33.1368 67.1303 33.8429 66.9761 34.5545 66.7352C34.7011 66.6873 34.8436 66.6279 34.9866 66.5784C46.157 60.9393 50.6074 45.4901 50.6171 45.4569L50.6023 45.4596Z" fill="url(#paint4_linear_1931_12752)"/>
<path d="M10.0446 29.0829C10.0299 29.095 10.0281 29.0991 10.0446 29.0829V29.0829Z" fill="#F15C2B"/>
<path d="M6.42782 40.7748C6.77092 51.1724 17.2637 59.2327 29.8584 58.7746C39.3873 58.4302 47.4184 52.4886 50.6023 45.4596C50.6095 45.4111 50.6174 45.382 50.6174 45.382C32.7418 55.2968 21.6644 50.8081 21.6644 50.8081C7.46446 45.7862 7.74764 35.9385 10.0469 29.1307C10.0537 29.1152 10.0472 29.0982 10.0524 29.0863C7.31411 32.3285 6.28828 36.5677 6.42833 40.7843L6.42782 40.7748Z" fill="url(#paint5_linear_1931_12752)"/>
<path d="M68.3071 31.1324C66.5832 28.9367 64.3913 26.9479 62.3845 25.5594L62.3905 25.5667C62.2088 25.4497 62.0255 25.3462 61.8421 25.2331C61.872 25.2602 61.8999 25.2818 61.9298 25.3089C61.9779 25.3487 62.0273 25.3843 62.0754 25.4241C63.9084 26.9657 65.5814 28.7976 67.0161 30.9089C74.4363 41.8354 72.669 56.0215 63.0639 62.5889C63.036 62.6093 63.0101 62.6263 62.9841 62.6426C62.9564 62.6636 62.9289 62.6843 62.9011 62.7047C62.6494 62.8751 62.3949 63.0307 62.1366 63.1841C62.1178 63.1949 62.1008 63.2015 62.0863 63.2137C61.8726 63.3404 61.6581 63.4569 61.4403 63.572C61.2688 63.6655 61.0974 63.759 60.92 63.845L60.9013 63.8554C56.2778 66.1647 50.8593 66.4367 45.8451 64.9532C45.817 64.9643 45.7946 64.9735 45.7664 64.9845C53.0542 69.7279 59.0977 67.7732 64.9866 63.7437C74.588 57.1747 76.4621 41.5196 68.3071 31.1324Z" fill="url(#paint6_linear_1931_12752)"/>
<path d="M37.7023 22.5374C44.8732 21.9047 53.5494 25.6602 58.7383 33.3032C65.7647 43.6503 64.9096 56.5184 56.8314 62.0462C53.6335 64.2304 49.8305 65.4856 45.9126 64.9267C45.8903 64.9355 45.8662 64.9483 45.8451 64.9532C50.8593 66.4367 56.2778 66.1647 60.9013 63.8554L60.92 63.845C61.0974 63.759 61.2688 63.6655 61.4403 63.572C61.6581 63.4569 61.8726 63.3404 62.0863 63.2137C62.1049 63.2033 62.1196 63.1908 62.1341 63.1786C62.4187 63.0085 62.7024 62.8282 62.982 62.6373C63.0096 62.6163 63.0378 62.6052 63.0639 62.5889C72.669 56.0215 74.4363 41.8354 67.0161 30.9089C65.5814 28.7976 63.9084 26.9657 62.0754 25.4241C62.0273 25.3843 61.9779 25.3487 61.9298 25.3089C61.8921 25.2784 61.8501 25.246 61.8125 25.2154C51.2555 18.7603 41.0546 21.375 37.7023 22.5374Z" fill="url(#paint7_linear_1931_12752)"/>
<path d="M56.8314 62.0462C64.9096 56.5184 65.7647 43.6503 58.7383 33.3032C53.5494 25.6602 44.8732 21.9047 37.7023 22.5374C37.0872 22.7501 36.6974 22.9165 36.587 22.9664C36.5992 22.9811 36.6176 23.0031 36.6298 23.0178C41.9726 25.4219 45.9187 28.8665 48.7953 32.3576C48.7953 32.3576 55.5764 39.4948 56.3117 48.4312C56.71 51.9512 56.0345 54.8049 54.888 57.0729C54.2238 58.3873 53.403 59.5065 52.5391 60.448C51.2088 61.9853 49.6096 63.1476 47.9323 64.0186C47.2931 64.3614 46.8917 64.5223 46.8917 64.5223L46.8951 64.5145C46.5655 64.6601 46.2395 64.7985 45.9126 64.9267C49.8305 65.4856 53.6335 64.2304 56.8314 62.0462Z" fill="url(#paint8_linear_1931_12752)"/>
<path d="M56.3117 48.4312C56.5386 51.1932 56.1977 54.1227 54.888 57.0729C56.0345 54.8049 56.71 51.9512 56.3117 48.4312Z" fill="#EC1D3D"/>
<path d="M56.3117 48.4312C56.5386 51.1932 56.1977 54.1227 54.888 57.0729C56.0345 54.8049 56.71 51.9512 56.3117 48.4312Z" fill="#573996"/>
<path d="M54.9209 56.5398C54.3033 58.0572 53.4853 59.3506 52.5391 60.448C53.403 59.5065 54.2238 58.3873 54.888 57.0729C54.888 57.0729 54.9014 56.8825 54.9209 56.5398Z" fill="#EC1D3D"/>
<path d="M47.9323 64.0186C47.5893 64.1958 47.2413 64.3621 46.8951 64.5145L46.8917 64.5223C46.8917 64.5223 47.2931 64.3614 47.9323 64.0186Z" fill="#EC1D3D"/>
<path d="M47.9323 64.0186C47.5893 64.1958 47.2413 64.3621 46.8951 64.5145L46.8917 64.5223C46.8917 64.5223 47.2931 64.3614 47.9323 64.0186Z" fill="url(#paint9_linear_1931_12752)"/>
<path d="M45.9126 64.9267C46.2431 64.8001 46.5714 64.6675 46.897 64.5202C47.2454 64.3639 47.5893 64.1958 47.9323 64.0186C49.6096 63.1476 51.2033 61.9877 52.5391 60.448C53.491 59.3487 54.3017 58.0609 54.9151 56.5421C55.0438 53.9265 55.2223 42.0819 48.7895 32.3597C45.9129 28.8686 41.9668 25.4241 36.6241 23.0201C36.5967 23.0081 36.5733 22.9978 36.5459 22.9858C36.5459 22.9858 36.5572 22.9814 36.5814 22.9686C36.6918 22.9187 37.0816 22.7524 37.6969 22.5397C41.0488 21.3772 51.2501 18.7627 61.8067 25.2176C61.8185 25.2227 61.8363 25.2352 61.8363 25.2352C62.0198 25.3483 62.1989 25.4501 62.3847 25.5689L62.3787 25.5616C62.2934 25.3839 59.8449 20.3815 55.4854 16.7748C55.3379 16.6541 55.1862 16.5316 55.0333 16.4132C54.8658 16.2837 54.6987 16.1544 54.5281 16.0329C51.3954 13.7446 47.3977 12.3036 42.6819 13.6319L29.163 25.168C28.6241 26.1115 28.1328 27.085 27.6962 28.0826C25.635 32.8234 23.2925 39.9537 24.2193 46.4194C24.2193 46.4194 23.3286 45.6642 22.064 44.2406C19.0346 40.8321 13.8647 33.5814 13.6591 23.679C13.6466 23.0792 13.6471 22.471 13.6719 21.85L13.6753 21.8422C13.6753 21.8422 11.4927 24.8693 10.0667 29.0643C10.0597 29.0803 10.0511 29.0999 10.0482 29.1171C7.74892 35.9249 7.46574 45.7727 21.6655 50.795C21.6655 50.795 32.7372 55.2851 50.6189 45.3685C50.6189 45.3685 50.6147 45.3993 50.6034 45.446C49.1832 63.3867 42.0838 66.1985 38.1864 66.5517C40.2209 66.408 43.0008 66.0104 45.7675 64.9709C45.7957 64.9598 45.8185 64.9508 45.8467 64.9398C45.8689 64.931 45.8896 64.9259 45.9123 64.9173L45.9126 64.9267ZM29.2574 48.1145C27.0132 37.2356 33.3136 26.6433 33.3136 26.6433C42.8799 29.9088 49.4399 40.4258 49.4399 40.4258C41.3485 48.6247 29.2574 48.1145 29.2574 48.1145Z" fill="#6F10C0"/>
<path d="M33.3136 26.6433C33.3136 26.6433 27.0132 37.2356 29.2574 48.1145C29.2574 48.1145 41.3485 48.6247 49.4399 40.4258C49.4399 40.4258 42.8799 29.9088 33.3136 26.6433Z" fill="#140535"/>
<path d="M35.3226 66.4493C35.206 66.4918 35.0934 66.5361 34.9772 66.5787C34.9639 66.587 34.9527 66.5914 34.9398 66.5999C34.9398 66.5999 35.7196 66.7351 36.9369 66.6269C35.7711 66.6597 35.0607 66.6109 35.0607 66.6109C35.1521 66.5617 35.2373 66.5055 35.325 66.4548L35.3226 66.4493Z" fill="url(#paint10_linear_1931_12752)"/>
<path d="M50.6023 45.4596C50.5922 45.4927 46.1422 60.9421 34.9713 66.581C35.088 66.5385 35.2042 66.4959 35.3173 66.4514C47.7938 59.3725 50.4066 46.5343 50.6023 45.4596Z" fill="#F15C2B"/>
<path d="M50.6023 45.4596C50.5922 45.4927 46.1422 60.9421 34.9713 66.581C35.088 66.5385 35.2042 66.4959 35.3173 66.4514C47.7938 59.3725 50.4066 46.5343 50.6023 45.4596Z" fill="url(#paint11_linear_1931_12752)"/>
<path d="M35.0547 66.6034C35.0547 66.6034 35.7692 66.654 36.9308 66.6198C37.3036 66.6096 37.7216 66.5914 38.1789 66.5577C37.0136 66.5903 35.0547 66.6034 35.0547 66.6034Z" fill="#814FA0"/>
<path d="M50.6023 45.4596C50.4029 46.5327 47.7997 59.3702 35.3226 66.4493C35.2354 66.4998 35.1424 66.5526 35.0547 66.6034C35.0547 66.6034 37.0254 66.5955 38.1907 66.5629C42.0884 66.2102 49.1874 63.3983 50.6078 45.4572L50.6023 45.4596Z" fill="#814FA0"/>
<path d="M50.6023 45.4596C50.4029 46.5327 47.7997 59.3702 35.3226 66.4493C35.2354 66.4998 35.1424 66.5526 35.0547 66.6034C35.0547 66.6034 37.0254 66.5955 38.1907 66.5629C42.0884 66.2102 49.1874 63.3983 50.6078 45.4572L50.6023 45.4596Z" fill="#6F10C0"/>
<path d="M42.649 13.6316C33.7298 15.9697 29.163 25.168 29.163 25.168C30.973 22.0018 33.3634 19.1923 36.2712 16.9791C38.5208 15.2685 40.6473 14.2013 42.649 13.6316Z" fill="#EC1D3D"/>
<path d="M42.649 13.6316C33.7298 15.9697 29.163 25.168 29.163 25.168C30.973 22.0018 33.3634 19.1923 36.2712 16.9791C38.5208 15.2685 40.6473 14.2013 42.649 13.6316Z" fill="url(#paint12_linear_1931_12752)"/>
<path d="M42.649 13.6316C40.6473 14.2013 38.5208 15.2685 36.2712 16.9791C33.3634 19.1923 30.9786 21.9996 29.1664 25.1602L42.6853 13.624C42.6853 13.624 42.6589 13.6312 42.6437 13.6339L42.649 13.6316Z" fill="#814FA0"/>
<path d="M42.649 13.6316C40.6473 14.2013 38.5208 15.2685 36.2712 16.9791C33.3634 19.1923 30.9786 21.9996 29.1664 25.1602L42.6853 13.624C42.6853 13.624 42.6589 13.6312 42.6437 13.6339L42.649 13.6316Z" fill="url(#paint13_linear_1931_12752)"/>
<path d="M53.2541 39.1662C53.9695 40.5461 54.547 41.8565 55.0029 43.1043C55.6598 44.8518 55.9173 45.9564 55.9173 45.9564C55.9378 46.1013 55.9508 46.2424 55.9673 46.3855C56.1231 47.0948 56.2315 47.774 56.3046 48.4374C55.5705 39.4971 48.7895 32.3597 48.7895 32.3597C50.7601 34.7478 52.2288 37.1639 53.302 39.2807C53.268 39.2098 53.2487 39.1687 53.2487 39.1687L53.2541 39.1662Z" fill="url(#paint14_linear_1931_12752)"/>
<path d="M53.2541 39.1662C53.9695 40.5461 54.547 41.8565 55.0029 43.1043C55.6598 44.8518 55.9173 45.9564 55.9173 45.9564C55.9378 46.1013 55.9508 46.2424 55.9673 46.3855C56.1231 47.0948 56.2315 47.774 56.3046 48.4374C55.5705 39.4971 48.7895 32.3597 48.7895 32.3597C50.7601 34.7478 52.2288 37.1639 53.302 39.2807C53.268 39.2098 53.2487 39.1687 53.2487 39.1687L53.2541 39.1662Z" fill="#6F10C0"/>
<path d="M53.2541 39.1662C53.2541 39.1662 53.2751 39.2036 53.3077 39.2788C54.0472 40.7302 54.6039 42.0358 55.0029 43.1043C54.547 41.8565 53.9695 40.5461 53.2541 39.1662Z" fill="#EC1D3D"/>
<path d="M53.2541 39.1662C53.2541 39.1662 53.2751 39.2036 53.3077 39.2788C54.0472 40.7302 54.6039 42.0358 55.0029 43.1043C54.547 41.8565 53.9695 40.5461 53.2541 39.1662Z" fill="url(#paint15_linear_1931_12752)"/>
<path d="M53.2541 39.1662C53.2541 39.1662 53.2751 39.2036 53.3077 39.2788C54.0472 40.7302 54.6039 42.0358 55.0029 43.1043C54.547 41.8565 53.9695 40.5461 53.2541 39.1662Z" fill="url(#paint16_linear_1931_12752)"/>
<path d="M56.3117 48.4312C56.237 47.7715 56.1249 47.0907 55.9731 46.3832C56.4599 50.5737 55.9934 53.8978 54.9209 56.5398C54.9014 56.8825 54.888 57.0729 54.888 57.0729C56.1923 54.1252 56.5386 51.1932 56.3117 48.4312Z" fill="#EC1D3D"/>
<path d="M56.3117 48.4312C56.237 47.7715 56.1249 47.0907 55.9731 46.3832C56.4599 50.5737 55.9934 53.8978 54.9209 56.5398C54.9014 56.8825 54.888 57.0729 54.888 57.0729C56.1923 54.1252 56.5386 51.1932 56.3117 48.4312Z" fill="url(#paint17_linear_1931_12752)"/>
<path d="M56.3117 48.4312C56.237 47.7715 56.1249 47.0907 55.9731 46.3832C56.4599 50.5737 55.9934 53.8978 54.9209 56.5398C54.9014 56.8825 54.888 57.0729 54.888 57.0729C56.1923 54.1252 56.5386 51.1932 56.3117 48.4312Z" fill="#2C10C0"/>
<path d="M55.9173 45.9564C55.9173 45.9564 55.6598 44.8518 55.0029 43.1043C54.5998 42.034 54.049 40.7261 53.3132 39.2763C52.2345 37.162 50.7642 34.7496 48.7953 32.3576C55.2278 42.0794 55.0456 53.9224 54.9209 56.5398C55.9934 53.8978 56.4599 50.5737 55.9731 46.3832C55.9565 46.2405 55.9478 46.1007 55.9273 45.9558L55.9173 45.9564Z" fill="#6F10C0"/>
<defs>
<linearGradient id="paint0_linear_1931_12752" x1="-54.6454" y1="136.111" x2="113.859" y2="91.5206" gradientUnits="userSpaceOnUse">
<stop stop-color="#F47D20"/>
<stop offset="0.39" stop-color="#F47F1F"/>
<stop offset="0.66" stop-color="#F5881F"/>
<stop offset="0.89" stop-color="#F8981D"/>
<stop offset="1" stop-color="#FAA21D"/>
</linearGradient>
<linearGradient id="paint1_linear_1931_12752" x1="20.3955" y1="71.6119" x2="58.0873" y2="11.6974" gradientUnits="userSpaceOnUse">
<stop stop-color="#FF5B0D"/>
<stop offset="1" stop-color="#FF4127" stop-opacity="0.8"/>
</linearGradient>
<linearGradient id="paint2_linear_1931_12752" x1="54.8391" y1="17.766" x2="20.5068" y2="58.1941" gradientUnits="userSpaceOnUse">
<stop stop-color="#EC003A"/>
<stop offset="1" stop-color="#FF3F29" stop-opacity="0.8"/>
</linearGradient>
<linearGradient id="paint3_linear_1931_12752" x1="23.9635" y1="-3.2001" x2="68.6136" y2="70.0643" gradientUnits="userSpaceOnUse">
<stop stop-color="#F47D20"/>
<stop offset="1" stop-color="#F5881F" stop-opacity="0.8"/>
</linearGradient>
<linearGradient id="paint4_linear_1931_12752" x1="5.0452" y1="30.1705" x2="66.1279" y2="56.9068" gradientUnits="userSpaceOnUse">
<stop stop-color="#FF5B0D"/>
<stop offset="1" stop-color="#FF4127" stop-opacity="0.8"/>
</linearGradient>
<linearGradient id="paint5_linear_1931_12752" x1="16.7141" y1="7.01395" x2="80.836" y2="30.9711" gradientUnits="userSpaceOnUse">
<stop stop-color="#EC003A"/>
<stop offset="1" stop-color="#FF3F29" stop-opacity="0.8"/>
</linearGradient>
<linearGradient id="paint6_linear_1931_12752" x1="-39.1027" y1="75.8611" x2="5.17285" y2="-34.8134" gradientUnits="userSpaceOnUse">
<stop stop-color="#F47D20"/>
<stop offset="0.39" stop-color="#F47F1F"/>
<stop offset="0.66" stop-color="#F5881F"/>
<stop offset="0.89" stop-color="#F8981F"/>
<stop offset="1" stop-color="#FAA21F"/>
</linearGradient>
<linearGradient id="paint7_linear_1931_12752" x1="32.2807" y1="76.0263" x2="17.1127" y2="4.27319" gradientUnits="userSpaceOnUse">
<stop stop-color="#FF5B0D"/>
<stop offset="1" stop-color="#FF4127" stop-opacity="0.8"/>
</linearGradient>
<linearGradient id="paint8_linear_1931_12752" x1="25.7393" y1="71.5789" x2="54.2593" y2="6.42112" gradientUnits="userSpaceOnUse">
<stop stop-color="#EC003A"/>
<stop offset="1" stop-color="#FF3F29" stop-opacity="0.8"/>
</linearGradient>
<linearGradient id="paint9_linear_1931_12752" x1="-49918.5" y1="-159533" x2="-26096.7" y2="2072.3" gradientUnits="userSpaceOnUse">
<stop stop-color="#573996"/>
<stop offset="0.15" stop-color="#603E98" stop-opacity="0.92"/>
<stop offset="0.43" stop-color="#6C459B" stop-opacity="0.83"/>
<stop offset="0.73" stop-color="#70489D" stop-opacity="0.8"/>
</linearGradient>
<linearGradient id="paint10_linear_1931_12752" x1="89636.6" y1="-165024" x2="9324.72" y2="-170575" gradientUnits="userSpaceOnUse">
<stop stop-color="#573996"/>
<stop offset="0.15" stop-color="#603E98" stop-opacity="0.92"/>
<stop offset="0.43" stop-color="#6C459B" stop-opacity="0.83"/>
<stop offset="0.73" stop-color="#70489D" stop-opacity="0.8"/>
</linearGradient>
<linearGradient id="paint11_linear_1931_12752" x1="600.76" y1="147.798" x2="506.566" y2="345.699" gradientUnits="userSpaceOnUse">
<stop stop-color="#573996"/>
<stop offset="0.15" stop-color="#603E98" stop-opacity="0.92"/>
<stop offset="0.43" stop-color="#6C459B" stop-opacity="0.83"/>
<stop offset="0.73" stop-color="#70489D" stop-opacity="0.8"/>
</linearGradient>
<linearGradient id="paint12_linear_1931_12752" x1="411.581" y1="104.015" x2="215.326" y2="440.25" gradientUnits="userSpaceOnUse">
<stop stop-color="#573996"/>
<stop offset="0.15" stop-color="#603E98" stop-opacity="0.92"/>
<stop offset="0.43" stop-color="#6C459B" stop-opacity="0.83"/>
<stop offset="0.73" stop-color="#70489D" stop-opacity="0.8"/>
</linearGradient>
<linearGradient id="paint13_linear_1931_12752" x1="412.842" y1="105.927" x2="216.768" y2="441.308" gradientUnits="userSpaceOnUse">
<stop stop-color="#573996"/>
<stop offset="0.15" stop-color="#603E98" stop-opacity="0.92"/>
<stop offset="0.43" stop-color="#6C459B" stop-opacity="0.83"/>
<stop offset="0.73" stop-color="#70489D" stop-opacity="0.8"/>
</linearGradient>
<linearGradient id="paint14_linear_1931_12752" x1="1.70088" y1="831.466" x2="-346.094" y2="-420.134" gradientUnits="userSpaceOnUse">
<stop stop-color="#E81C43"/>
<stop offset="0.26" stop-color="#E81F42"/>
<stop offset="0.48" stop-color="#EA2A3F"/>
<stop offset="0.69" stop-color="#ED3B3B"/>
<stop offset="0.8" stop-color="#EF4838"/>
</linearGradient>
<linearGradient id="paint15_linear_1931_12752" x1="-350.455" y1="-1220.26" x2="4257.84" y2="10174.7" gradientUnits="userSpaceOnUse">
<stop stop-color="#573996"/>
<stop offset="0.15" stop-color="#603E98" stop-opacity="0.92"/>
<stop offset="0.43" stop-color="#6C459B" stop-opacity="0.83"/>
<stop offset="0.73" stop-color="#70489D" stop-opacity="0.8"/>
</linearGradient>
<linearGradient id="paint16_linear_1931_12752" x1="376.356" y1="-633.9" x2="-4858.67" y2="3118.92" gradientUnits="userSpaceOnUse">
<stop stop-color="#573996"/>
<stop offset="0.15" stop-color="#603E98" stop-opacity="0.92"/>
<stop offset="0.43" stop-color="#6C459B" stop-opacity="0.83"/>
<stop offset="0.73" stop-color="#70489D" stop-opacity="0.8"/>
</linearGradient>
<linearGradient id="paint17_linear_1931_12752" x1="-3022.57" y1="-1912.49" x2="-3473.81" y2="-569.655" gradientUnits="userSpaceOnUse">
<stop stop-color="#573996"/>
<stop offset="0.15" stop-color="#603E98" stop-opacity="0.92"/>
<stop offset="0.43" stop-color="#6C459B" stop-opacity="0.83"/>
<stop offset="0.73" stop-color="#70489D" stop-opacity="0.8"/>
</linearGradient>
</defs>
</svg>
