<svg width="32" height="32" viewBox="0 0 32 32" fill="none" xmlns="http://www.w3.org/2000/svg">
<rect width="32" height="32" fill="#E3E3E3"/>
<g id="Frame 2">
<rect width="1440" height="960" transform="translate(-44 -224)" fill="#F6F6F6"/>
<g id="Frame 12">
<rect x="-20" y="-140" width="72" height="781" rx="12" fill="white"/>
<g id="Frame 13">
<g id="Frame 12_2">
<g id="Navigation Component">
<g id="mdi:ship-wheel">
<path id="Vector" d="M2.66659 14.6667L5.39992 14.8C5.56146 13.3406 6.02406 11.9306 6.75847 10.6591C7.49288 9.38769 8.48313 8.28245 9.66659 7.41333L8.17325 5.12C7.81325 4.48 7.99992 3.66666 8.66659 3.29333C9.33325 2.93333 10.1199 3.14666 10.4933 3.78666L11.7333 6.21333C13.0811 5.63387 14.5328 5.33503 15.9999 5.33503C17.467 5.33503 18.9188 5.63387 20.2666 6.21333L21.5066 3.78666C21.8799 3.14666 22.6666 2.93333 23.3333 3.29333C23.9999 3.66666 24.1866 4.48 23.8266 5.12L22.3333 7.41333C23.5167 8.28245 24.507 9.38769 25.2414 10.6591C25.9758 11.9306 26.4384 13.3406 26.5999 14.8L29.3333 14.6667C29.6869 14.6667 30.026 14.8071 30.2761 15.0572C30.5261 15.3072 30.6666 15.6464 30.6666 16C30.6666 16.3536 30.5261 16.6928 30.2761 16.9428C30.026 17.1929 29.6869 17.3333 29.3333 17.3333L26.5999 17.2C26.4384 18.6594 25.9758 20.0694 25.2414 21.3409C24.507 22.6123 23.5167 23.7175 22.3333 24.5867L23.8266 26.88C24.1866 27.52 23.9999 28.3333 23.3333 28.7067C22.6666 29.0667 21.8799 28.8533 21.5066 28.2133L20.2666 25.7867C18.9188 26.3661 17.467 26.665 15.9999 26.665C14.5328 26.665 13.0811 26.3661 11.7333 25.7867L10.4933 28.2133C10.1199 28.8533 9.33325 29.0667 8.66659 28.7067C7.99992 28.3333 7.81325 27.52 8.17325 26.88L9.66659 24.5867C8.48313 23.7175 7.49288 22.6123 6.75847 21.3409C6.02406 20.0694 5.56146 18.6594 5.39992 17.2L2.66659 17.3333C2.31296 17.3333 1.97382 17.1929 1.72378 16.9428C1.47373 16.6928 1.33325 16.3536 1.33325 16C1.33325 15.6464 1.47373 15.3072 1.72378 15.0572C1.97382 14.8071 2.31296 14.6667 2.66659 14.6667ZM12.0933 15.1333C12.2666 14.32 12.7066 13.6 13.3333 13.0533L11.1199 9.66666C9.44707 10.9506 8.34955 12.8437 8.06659 14.9333L12.0933 15.1333ZM15.9999 12C16.4266 12 16.8266 12.0667 17.1999 12.1867L19.0399 8.6C18.1066 8.21333 17.0799 8 15.9999 8C14.9199 8 13.8933 8.21333 12.9599 8.6L14.7999 12.1867C15.1733 12.0667 15.5733 12 15.9999 12ZM19.9066 15.1333L23.9333 14.9333C23.6503 12.8437 22.5528 10.9506 20.8799 9.66666L18.6666 13.0533C19.2933 13.6 19.7333 14.32 19.9066 15.1333ZM19.9066 16.8667C19.7333 17.68 19.2933 18.4 18.6666 18.9467L20.8799 22.3333C22.5528 21.0494 23.6503 19.1563 23.9333 17.0667L19.9066 16.8667ZM15.9999 20C15.5733 20 15.1733 19.9333 14.7866 19.8133L12.9599 23.4C13.8933 23.7867 14.9199 24 15.9999 24C17.0799 24 18.1066 23.7867 19.0399 23.4L17.2133 19.8133C16.8266 19.9333 16.4266 20 15.9999 20ZM12.0933 16.8667L8.06659 17.0667C8.35992 19.2 9.47992 21.08 11.1199 22.3333L13.3333 18.9467C12.7066 18.4 12.2666 17.68 12.0933 16.8667Z" fill="#305DCF"/>
</g>
</g>
</g>
</g>
</g>
</g>
</svg>
