<svg width="32" height="32" viewBox="0 0 32 32" fill="none" xmlns="http://www.w3.org/2000/svg">
<path d="M4.66675 14.6667V18.6667C4.66675 23.6947 4.66675 26.2093 6.22941 27.7707C7.79075 29.3333 10.3054 29.3333 15.3334 29.3333H16.6667C21.6947 29.3333 24.2094 29.3333 25.7707 27.7707C27.3334 26.2093 27.3334 23.6947 27.3334 18.6667V14.6667" stroke="#305DCF" stroke-width="2"/>
<path d="M12.6667 2.66666H19.3333L20.2027 11.356C20.26 11.9423 20.1939 12.5342 20.0087 13.0935C19.8236 13.6528 19.5235 14.1672 19.1277 14.6035C18.7318 15.0399 18.2491 15.3886 17.7104 15.6272C17.1718 15.8659 16.5892 15.9892 16 15.9892C15.4109 15.9892 14.8282 15.8659 14.2896 15.6272C13.7509 15.3886 13.2682 15.0399 12.8724 14.6035C12.4765 14.1672 12.1764 13.6528 11.9913 13.0935C11.8061 12.5342 11.7401 11.9423 11.7973 11.356L12.6667 2.66666Z" stroke="#305DCF" stroke-width="2"/>
<path d="M4.44011 7.13466C4.67745 5.94799 4.79611 5.35466 5.03745 4.87332C5.28891 4.37204 5.64297 3.92924 6.07665 3.57366C6.51033 3.21808 7.01393 2.95766 7.55478 2.80932C8.07478 2.66666 8.68011 2.66666 9.89078 2.66666H12.6668L11.7001 12.3267C11.6491 12.8795 11.4858 13.4161 11.2202 13.9036C10.9546 14.3912 10.5923 14.8194 10.1554 15.162C9.71859 15.5047 9.21642 15.7545 8.67965 15.8964C8.14289 16.0382 7.58282 16.069 7.03374 15.9869C6.48467 15.9047 5.95813 15.7114 5.48636 15.4187C5.0146 15.126 4.60754 14.7401 4.2901 14.2846C3.97265 13.8291 3.75151 13.3136 3.64021 12.7697C3.5289 12.2258 3.52978 11.6649 3.64278 11.1213L4.44011 7.13466ZM27.5601 7.13466C27.3228 5.94799 27.2041 5.35466 26.9628 4.87332C26.7113 4.37204 26.3573 3.92924 25.9236 3.57366C25.4899 3.21808 24.9863 2.95766 24.4454 2.80932C23.9254 2.66666 23.3201 2.66666 22.1094 2.66666H19.3334L20.3001 12.3267C20.3511 12.8795 20.5144 13.4161 20.78 13.9036C21.0456 14.3912 21.408 14.8194 21.8448 15.162C22.2816 15.5047 22.7838 15.7545 23.3206 15.8964C23.8573 16.0382 24.4174 16.069 24.9665 15.9869C25.5156 15.9047 26.0421 15.7114 26.5139 15.4187C26.9856 15.126 27.3927 14.7401 27.7101 14.2846C28.0276 13.8291 28.2487 13.3136 28.36 12.7697C28.4713 12.2258 28.4704 11.6649 28.3574 11.1213L27.5601 7.13466Z" stroke="#305DCF" stroke-width="2"/>
<path d="M12.6667 28.6666V24.6666C12.6667 23.42 12.6667 22.7973 12.9347 22.3333C13.1103 22.0293 13.3627 21.7768 13.6667 21.6013C14.1307 21.3333 14.7534 21.3333 16.0001 21.3333C17.2467 21.3333 17.8694 21.3333 18.3334 21.6013C18.6374 21.7768 18.8899 22.0293 19.0654 22.3333C19.3334 22.7973 19.3334 23.42 19.3334 24.6666V28.6666" stroke="#305DCF" stroke-width="2" stroke-linecap="round"/>
</svg>
