<svg width="32" height="32" viewBox="0 0 32 32" fill="none" xmlns="http://www.w3.org/2000/svg">
<path d="M26.6666 12.9524V23.619C26.6666 24.4273 26.3455 25.2025 25.774 25.774C25.2024 26.3456 24.4273 26.6666 23.619 26.6666H8.44643C7.64052 26.6667 6.86741 26.3475 6.29627 25.7789C5.72512 25.2103 5.40243 24.4386 5.39881 23.6327L5.33328 8.39465C5.32964 7.58663 5.64702 6.81023 6.21566 6.23617C6.7843 5.6621 7.55765 5.33734 8.36566 5.33331H19.0476" stroke="#305DCF" stroke-width="2" stroke-linecap="round" stroke-linejoin="round"/>
<path d="M25.9048 9.14285C27.588 9.14285 28.9524 7.77838 28.9524 6.09523C28.9524 4.41207 27.588 3.04761 25.9048 3.04761C24.2216 3.04761 22.8572 4.41207 22.8572 6.09523C22.8572 7.77838 24.2216 9.14285 25.9048 9.14285Z" fill="#305DCF" stroke="#305DCF" stroke-linecap="round" stroke-linejoin="round"/>
</svg>
